<svg width="19" height="21" viewBox="0 0 19 21" fill="none" xmlns="http://www.w3.org/2000/svg">
<path fill-rule="evenodd" clip-rule="evenodd" d="M9.99998 2.25C8.62314 2.25 7.34467 2.66143 6.27803 3.36788C5.93269 3.59661 5.46733 3.50207 5.2386 3.15674C5.00988 2.8114 5.10441 2.34603 5.44975 2.11731C6.75441 1.2532 8.31957 0.75 9.99998 0.75C14.5563 0.75 18.25 4.44365 18.25 9C18.25 12.0153 17.6759 14.8983 16.6299 17.5442C16.4776 17.9294 16.0419 18.1182 15.6567 17.966C15.2714 17.8137 15.0826 17.3779 15.2349 16.9927C16.2127 14.5196 16.75 11.8235 16.75 9C16.75 5.27208 13.7279 2.25 9.99998 2.25ZM4.15671 4.23863C4.50205 4.46735 4.59658 4.93272 4.36786 5.27806C3.6614 6.34469 3.24998 7.62316 3.24998 9C3.24998 10.6132 2.78653 12.1204 1.98459 13.393C1.76375 13.7434 1.30065 13.8485 0.950212 13.6276C0.599779 13.4068 0.49472 12.9437 0.715557 12.5933C1.37092 11.5533 1.74998 10.3222 1.74998 9C1.74998 7.31959 2.25318 5.75443 3.11728 4.44977C3.34601 4.10444 3.81137 4.0099 4.15671 4.23863ZM9.99998 6C8.34312 6 6.99998 7.34315 6.99998 9C6.99998 12.0997 5.82401 14.9266 3.89462 17.0556C3.61647 17.3626 3.14217 17.3859 2.83524 17.1077C2.5283 16.8296 2.50497 16.3553 2.78312 16.0484C4.47217 14.1845 5.49998 11.7132 5.49998 9C5.49998 6.51472 7.51469 4.5 9.99998 4.5C12.4853 4.5 14.5 6.51472 14.5 9C14.5 9.54724 14.4777 10.0897 14.4334 10.6264C14.3993 11.0392 14.037 11.3462 13.6242 11.3121C13.2114 11.278 12.9044 10.9157 12.9385 10.5029C12.9794 10.0078 13 9.50657 13 9C13 7.34315 11.6568 6 9.99998 6ZM10.0003 8.25C10.4145 8.25 10.7503 8.58579 10.7503 9C10.7503 12.9082 9.32588 16.4855 6.96884 19.2384C6.69945 19.553 6.22599 19.5897 5.91135 19.3203C5.59671 19.0509 5.56004 18.5775 5.82943 18.2628C7.96257 15.7715 9.25029 12.5371 9.25029 9C9.25029 8.58579 9.58608 8.25 10.0003 8.25ZM13.2387 13.4331C13.637 13.5467 13.8678 13.9617 13.7542 14.3601C13.1843 16.3576 12.3041 18.2239 11.1693 19.9035C10.9374 20.2467 10.4712 20.337 10.128 20.1051C9.78478 19.8732 9.69453 19.407 9.92642 19.0637C10.974 17.5132 11.7861 15.791 12.3117 13.9485C12.4254 13.5502 12.8404 13.3194 13.2387 13.4331Z" fill="url(#paint0_linear_5965_71782)"/>
<defs>
<linearGradient id="paint0_linear_5965_71782" x1="9.42498" y1="0.75" x2="9.42498" y2="20.2337" gradientUnits="userSpaceOnUse">
<stop stop-color="white"/>
<stop offset="1" stop-color="#5991E0"/>
</linearGradient>
</defs>
</svg>
