<svg width="21" height="20" viewBox="0 0 21 20" fill="none" xmlns="http://www.w3.org/2000/svg">
<path d="M3 4.625C3 2.34683 4.84683 0.5 7.125 0.5C9.40317 0.5 11.25 2.34683 11.25 4.625C11.25 6.90317 9.40317 8.75 7.125 8.75C4.84683 8.75 3 6.90317 3 4.625Z" fill="url(#paint0_linear_6011_21373)"/>
<path d="M12.75 6.875C12.75 5.01104 14.261 3.5 16.125 3.5C17.989 3.5 19.5 5.01104 19.5 6.875C19.5 8.73896 17.989 10.25 16.125 10.25C14.261 10.25 12.75 8.73896 12.75 6.875Z" fill="url(#paint1_linear_6011_21373)"/>
<path d="M0 17.375C0 13.44 3.18997 10.25 7.125 10.25C11.06 10.25 14.25 13.44 14.25 17.375V17.3776C14.25 17.4174 14.2496 17.4574 14.249 17.4969C14.2446 17.7554 14.1074 17.9935 13.8859 18.1268C11.9107 19.3161 9.59657 20 7.125 20C4.65343 20 2.3393 19.3161 0.364061 18.1268C0.142563 17.9935 0.00537291 17.7554 0.00102639 17.4969C0.000344753 17.4564 0 17.4157 0 17.375Z" fill="url(#paint2_linear_6011_21373)"/>
<path d="M15.7498 17.3781C15.7498 17.4262 15.7494 17.4744 15.7486 17.5222C15.7429 17.8608 15.6612 18.1878 15.5157 18.482C15.7172 18.4939 15.9203 18.5 16.1248 18.5C17.7206 18.5 19.232 18.1303 20.5764 17.4713C20.8234 17.3502 20.9843 17.1036 20.9957 16.8287C20.9984 16.7611 20.9998 16.6932 20.9998 16.625C20.9998 13.9326 18.8172 11.75 16.1248 11.75C15.3784 11.75 14.6711 11.9178 14.0387 12.2176C15.1135 13.6561 15.7498 15.4412 15.7498 17.375V17.3781Z" fill="url(#paint3_linear_6011_21373)"/>
<defs>
<linearGradient id="paint0_linear_6011_21373" x1="10.4999" y1="0.5" x2="10.4999" y2="20" gradientUnits="userSpaceOnUse">
<stop stop-color="white"/>
<stop offset="1" stop-color="#5991E0"/>
</linearGradient>
<linearGradient id="paint1_linear_6011_21373" x1="10.4999" y1="0.5" x2="10.4999" y2="20" gradientUnits="userSpaceOnUse">
<stop stop-color="white"/>
<stop offset="1" stop-color="#5991E0"/>
</linearGradient>
<linearGradient id="paint2_linear_6011_21373" x1="10.4999" y1="0.5" x2="10.4999" y2="20" gradientUnits="userSpaceOnUse">
<stop stop-color="white"/>
<stop offset="1" stop-color="#5991E0"/>
</linearGradient>
<linearGradient id="paint3_linear_6011_21373" x1="10.4999" y1="0.5" x2="10.4999" y2="20" gradientUnits="userSpaceOnUse">
<stop stop-color="white"/>
<stop offset="1" stop-color="#5991E0"/>
</linearGradient>
</defs>
</svg>
