<svg width="24" height="25" viewBox="0 0 24 25" fill="none" xmlns="http://www.w3.org/2000/svg">
<g clip-path="url(#clip0_6005_12210)">
<path d="M12 24.5C18.6274 24.5 24 19.1274 24 12.5C24 5.87258 18.6274 0.5 12 0.5C5.37258 0.5 0 5.87258 0 12.5C0 19.1274 5.37258 24.5 12 24.5Z" fill="#F0F0F0"/>
<path d="M6.7832 16.6738L7.82669 23.7536C9.12663 24.236 10.5327 24.4999 12.0006 24.4999C17.1601 24.4999 21.5587 21.2434 23.2541 16.6738H6.7832Z" fill="black"/>
<path d="M6.7832 8.32611L7.82669 1.2463C9.12663 0.763906 10.5327 0.5 12.0006 0.5C17.1601 0.5 21.5587 3.7565 23.2541 8.32611H6.7832Z" fill="#6DA544"/>
<path d="M0 12.4997C0 17.6593 3.25655 22.0578 7.82611 23.7533V1.24609C3.25655 2.94161 0 7.34012 0 12.4997Z" fill="#A2001D"/>
</g>
<defs>
<clipPath id="clip0_6005_12210">
<rect width="24" height="24" fill="white" transform="translate(0 0.5)"/>
</clipPath>
</defs>
</svg>
