<svg width="33" height="33" viewBox="0 0 33 33" fill="none" xmlns="http://www.w3.org/2000/svg">
<g clip-path="url(#clip0_6295_1544)">
<path d="M16.5 33C25.6127 33 33 25.6127 33 16.5C33 7.3873 25.6127 0 16.5 0C7.3873 0 0 7.3873 0 16.5C0 25.6127 7.3873 33 16.5 33Z" fill="#FCFCFC"/>
<path d="M6.81496 15.3042L5.02148 12.0504L6.81496 8.84766L8.60843 12.0504L6.81496 15.3042Z" fill="#A2001D"/>
<path d="M3.22804 15.3042L1.43457 12.0504L3.22804 8.84766L5.02152 12.0504L3.22804 15.3042Z" fill="#A2001D"/>
<path d="M6.81496 24.1518L5.02148 20.8981L6.81496 17.6953L8.60843 20.8981L6.81496 24.1518Z" fill="#A2001D"/>
<path d="M3.22804 24.1518L1.43457 20.8981L3.22804 17.6953L5.02152 20.8981L3.22804 24.1518Z" fill="#A2001D"/>
<path d="M8.60855 3.20263L8.10078 2.2959C7.19006 2.8355 6.33587 3.46024 5.54883 4.15917L6.81507 6.45635L8.60855 3.20263Z" fill="#A2001D"/>
<path d="M6.81481 26.543L5.53516 28.8282C6.32148 29.5281 7.1751 30.1538 8.08544 30.6945L8.60835 29.7458L6.81481 26.543Z" fill="#A2001D"/>
<path d="M10.0439 20.8047V31.6884C12.0271 32.5326 14.209 33.0003 16.5005 33.0003C23.5949 33.0003 29.6429 28.5226 31.9742 22.2394L10.0439 20.8047Z" fill="#6DA544"/>
<path d="M31.9742 22.2391C32.6375 20.4516 33.0005 18.5183 33.0005 16.5C33.0005 7.38736 25.6131 0 16.5005 0C14.2092 0 12.0271 0.467479 10.0439 1.31149V22.2392H31.9742V22.2391Z" fill="#A2001D"/>
</g>
<defs>
<clipPath id="clip0_6295_1544">
<rect width="33" height="33" fill="white"/>
</clipPath>
</defs>
</svg>
