<svg width="33" height="33" viewBox="0 0 33 33" fill="none" xmlns="http://www.w3.org/2000/svg">
<g clip-path="url(#clip0_6295_1416)">
<path d="M33 16.5005C33 14.4822 32.637 12.5488 31.9737 10.7614L16.5 10.0439L1.02629 10.7613C0.363064 12.5488 0 14.4822 0 16.5005C0 18.5188 0.363064 20.4522 1.02629 22.2396L16.5 22.957L31.9737 22.2396C32.637 20.4522 33 18.5188 33 16.5005Z" fill="#496E2D"/>
<path d="M16.5001 33.0002C23.5945 33.0002 29.6425 28.5225 31.9738 22.2393H1.02637C3.3577 28.5225 9.40566 33.0002 16.5001 33.0002Z" fill="#D80027"/>
<path d="M1.02637 10.7609H31.9739C29.6425 4.47769 23.5945 0 16.5001 0C9.40566 0 3.3577 4.47769 1.02637 10.7609Z" fill="#F0F0F0"/>
</g>
<defs>
<clipPath id="clip0_6295_1416">
<rect width="33" height="33" fill="white"/>
</clipPath>
</defs>
</svg>
