<svg width="20" height="20" viewBox="0 0 20 20" fill="none" xmlns="http://www.w3.org/2000/svg">
<path fill-rule="evenodd" clip-rule="evenodd" d="M6.92312 0C7.34795 0 7.69234 0.344393 7.69234 0.769224V2.31347C8.59937 2.32715 9.50063 2.365 10.3955 2.4264C11.3282 2.49039 12.254 2.57998 13.172 2.69446C13.5936 2.74703 13.8927 3.13139 13.8402 3.55296C13.7876 3.97452 13.4032 4.27366 12.9817 4.22109C12.3053 4.13674 11.6245 4.06633 10.9396 4.01015C10.3337 6.37913 9.28823 8.57157 7.89535 10.4957C8.2203 10.8888 8.56194 11.2676 8.91918 11.6311C9.21696 11.9341 9.21273 12.4212 8.90973 12.7189C8.60673 13.0167 8.11971 13.0125 7.82193 12.7095C7.51129 12.3934 7.21149 12.0666 6.92311 11.7297C5.31172 13.6122 3.34308 15.1794 1.12243 16.3266C0.744988 16.5216 0.280949 16.3737 0.0859655 15.9963C-0.109018 15.6188 0.0388914 15.1548 0.41633 14.9598C2.55146 13.8568 4.43303 12.3319 5.9509 10.4957C5.06262 9.26858 4.31554 7.93224 3.73364 6.51044C3.57273 6.11726 3.76101 5.66808 4.15418 5.50717C4.54736 5.34625 4.99653 5.53454 5.15745 5.92771C5.63161 7.08628 6.22524 8.18356 6.92311 9.20418C8.01529 7.60684 8.85232 5.82152 9.3756 3.90708C8.56327 3.8666 7.74562 3.84612 6.92312 3.84612C4.87099 3.84612 2.84899 3.97363 0.864561 4.22109C0.442999 4.27366 0.0586401 3.97452 0.00607205 3.55296C-0.046496 3.13139 0.252633 2.74703 0.674195 2.69446C2.47308 2.47014 4.30141 2.34142 6.1539 2.31347V0.769224C6.1539 0.344393 6.49829 0 6.92312 0ZM13.8461 6.92301C14.1449 6.92301 14.4167 7.09612 14.5431 7.36694L19.9277 18.9053C20.1073 19.2903 19.9409 19.748 19.5559 19.9277C19.1709 20.1073 18.7132 19.9409 18.5335 19.5559L17.3048 16.9229H10.3873L9.1586 19.5559C8.97895 19.9409 8.52123 20.1073 8.13626 19.9277C7.75129 19.748 7.58485 19.2903 7.7645 18.9053L13.149 7.36694C13.2754 7.09612 13.5472 6.92301 13.8461 6.92301ZM11.1052 15.3845H16.5869L13.8461 9.51123L11.1052 15.3845Z" fill="url(#paint0_linear_5981_38256)"/>
<defs>
<linearGradient id="paint0_linear_5981_38256" x1="10" y1="0" x2="10" y2="20" gradientUnits="userSpaceOnUse">
<stop stop-color="#F8FBFF"/>
<stop offset="1" stop-color="#5991E0"/>
</linearGradient>
</defs>
</svg>
