<svg width="20" height="20" viewBox="0 0 20 20" fill="none" xmlns="http://www.w3.org/2000/svg">
<path fill-rule="evenodd" clip-rule="evenodd" d="M6.35288 2.04876C7.17705 1.10093 8.39332 0.5 9.75 0.5C11.1066 0.5 12.3228 1.10087 13.147 2.04861C14.4001 1.96106 15.6852 2.39616 16.6446 3.35557C17.604 4.31498 18.0391 5.60009 17.9516 6.85319C18.8992 7.67735 19.5 8.89348 19.5 10.25C19.5 11.6068 18.899 12.8231 17.9511 13.6473C18.0384 14.9002 17.6033 16.185 16.6441 17.1443C15.6848 18.1035 14.4 18.5386 13.1471 18.4513C12.3229 19.3991 11.1067 20 9.75 20C8.3934 20 7.1772 19.3991 6.35304 18.4514C5.09992 18.539 3.8148 18.1039 2.85537 17.1445C1.89596 16.185 1.46086 14.8999 1.54841 13.6468C0.600785 12.8226 0 11.6065 0 10.25C0 8.89342 0.600846 7.67723 1.54855 6.85306C1.4611 5.60005 1.89621 4.31507 2.85554 3.35574C3.81488 2.3964 5.09987 1.96129 6.35288 2.04876ZM13.3603 8.43593C13.6011 8.09887 13.523 7.63046 13.1859 7.3897C12.8489 7.14894 12.3805 7.22701 12.1397 7.56407L8.9043 12.0936L7.28033 10.4697C6.98744 10.1768 6.51256 10.1768 6.21967 10.4697C5.92678 10.7626 5.92678 11.2374 6.21967 11.5303L8.46967 13.7803C8.62556 13.9362 8.84215 14.0156 9.06186 13.9974C9.28157 13.9793 9.48216 13.8653 9.6103 13.6859L13.3603 8.43593Z" fill="url(#paint0_linear_6011_13464)"/>
<defs>
<linearGradient id="paint0_linear_6011_13464" x1="9.75" y1="0.5" x2="9.75" y2="20" gradientUnits="userSpaceOnUse">
<stop stop-color="white"/>
<stop offset="1" stop-color="#5991E0"/>
</linearGradient>
</defs>
</svg>
