<svg width="33" height="33" viewBox="0 0 33 33" fill="none" xmlns="http://www.w3.org/2000/svg">
<g clip-path="url(#clip0_6295_1582)">
<path d="M16.5 33C25.6127 33 33 25.6127 33 16.5C33 7.3873 25.6127 0 16.5 0C7.3873 0 0 7.3873 0 16.5C0 25.6127 7.3873 33 16.5 33Z" fill="#F0F0F0"/>
<path d="M15.0655 16.5C15.0655 16.5 4.84268 28.1696 4.83301 28.1672C7.81886 31.1532 11.9439 33 16.5003 33C25.613 33 33.0003 25.6126 33.0003 16.5H15.0655Z" fill="#D80027"/>
<path d="M4.83273 4.83301C-1.61091 11.2766 -1.61091 21.7239 4.83273 28.1676C7.49548 25.5049 10.0564 22.9439 16.5 16.5003L4.83273 4.83301Z" fill="#0052B4"/>
</g>
<defs>
<clipPath id="clip0_6295_1582">
<rect width="33" height="33" fill="white"/>
</clipPath>
</defs>
</svg>
