<svg width="22" height="22" viewBox="0 0 22 22" fill="none" xmlns="http://www.w3.org/2000/svg">
<path fill-rule="evenodd" clip-rule="evenodd" d="M11 5.75C11 2.85051 13.3505 0.5 16.25 0.5C16.7791 0.5 17.2913 0.578518 17.7747 0.725047C18.027 0.801507 18.2206 1.00479 18.2847 1.26048C18.3488 1.51618 18.2739 1.78674 18.0875 1.97313L14.7688 5.29183C14.8305 5.76741 15.0438 6.22581 15.409 6.59099C15.7742 6.95617 16.2326 7.16947 16.7082 7.23117L20.0269 3.91247C20.2133 3.72608 20.4838 3.65122 20.7395 3.7153C20.9952 3.77938 21.1985 3.97299 21.275 4.22526C21.4215 4.7087 21.5 5.22086 21.5 5.75C21.5 8.64949 19.1495 11 16.25 11C16.0995 11 15.9503 10.9936 15.8027 10.9812C14.7855 10.8952 13.9338 11.0816 13.4944 11.6151L6.34327 20.2987C5.71684 21.0593 4.78308 21.5 3.79769 21.5C1.97642 21.5 0.5 20.0236 0.5 18.2023C0.5 17.2169 0.940666 16.2832 1.70132 15.6567L10.3849 8.50557C10.9184 8.06623 11.1048 7.21453 11.0188 6.19728C11.0064 6.04968 11 5.9005 11 5.75ZM3.11723 18.125C3.11723 17.7108 3.45302 17.375 3.86723 17.375H3.87473C4.28895 17.375 4.62473 17.7108 4.62473 18.125V18.1325C4.62473 18.5468 4.28895 18.8825 3.87473 18.8825H3.86723C3.45302 18.8825 3.11723 18.5468 3.11723 18.1325V18.125Z" fill="url(#paint0_linear_6005_14238)"/>
<path d="M9.07597 7.64031L6.87502 5.43936V3.87502C6.87502 3.61157 6.73679 3.36744 6.51089 3.2319L2.76089 0.981897C2.46578 0.804833 2.08804 0.851335 1.84469 1.09469L1.09469 1.84469C0.851335 2.08804 0.804833 2.46578 0.981897 2.76089L3.2319 6.51089C3.36744 6.73679 3.61157 6.87502 3.87502 6.87502H5.43936L7.50138 8.93704L9.07597 7.64031Z" fill="url(#paint1_linear_6005_14238)"/>
<path fill-rule="evenodd" clip-rule="evenodd" d="M11.5559 16.3287L15.7386 20.5114C17.0567 21.8294 19.1936 21.8294 20.5116 20.5114C21.8296 19.1934 21.8296 17.0565 20.5116 15.7385L17.206 12.4328C16.8937 12.4771 16.5746 12.5 16.2501 12.5C16.0574 12.5 15.866 12.4918 15.6765 12.4758C15.2822 12.4425 14.994 12.4696 14.8089 12.5177C14.7053 12.5446 14.6574 12.5713 14.6419 12.5814L11.5559 16.3287ZM14.9698 14.9697C15.2627 14.6768 15.7375 14.6768 16.0304 14.9697L17.9054 16.8447C18.1983 17.1376 18.1983 17.6124 17.9054 17.9053C17.6125 18.1982 17.1377 18.1982 16.8448 17.9053L14.9698 16.0303C14.6769 15.7374 14.6769 15.2626 14.9698 14.9697Z" fill="url(#paint2_linear_6005_14238)"/>
<defs>
<linearGradient id="paint0_linear_6005_14238" x1="11.0001" y1="0.5" x2="11.0001" y2="21.5" gradientUnits="userSpaceOnUse">
<stop stop-color="#F8FBFF"/>
<stop offset="1" stop-color="#5991E0"/>
</linearGradient>
<linearGradient id="paint1_linear_6005_14238" x1="11.0001" y1="0.5" x2="11.0001" y2="21.5" gradientUnits="userSpaceOnUse">
<stop stop-color="#F8FBFF"/>
<stop offset="1" stop-color="#5991E0"/>
</linearGradient>
<linearGradient id="paint2_linear_6005_14238" x1="11.0001" y1="0.5" x2="11.0001" y2="21.5" gradientUnits="userSpaceOnUse">
<stop stop-color="#F8FBFF"/>
<stop offset="1" stop-color="#5991E0"/>
</linearGradient>
</defs>
</svg>
