<svg width="32" height="32" viewBox="0 0 32 32" fill="none" xmlns="http://www.w3.org/2000/svg">
<path fill-rule="evenodd" clip-rule="evenodd" d="M10.0024 8H14.9969L15 8H19.5065C21.9887 8.00357 23.9999 10.0169 23.9999 12.5V25C26.209 25 27.9999 23.2091 27.9999 21V8.14429C27.9999 6.13709 26.5002 4.39547 24.4478 4.22512C24.1494 4.20036 23.8505 4.17761 23.551 4.15689C22.8844 2.8753 21.5444 2 20 2H18C16.4556 2 15.1156 2.87529 14.449 4.15687C14.1494 4.17759 13.8504 4.20035 13.5519 4.22512C11.5489 4.39137 10.0723 6.05426 10.0024 8ZM18 4C16.8954 4 16 4.89543 16 6H22C22 4.89543 21.1046 4 20 4H18Z" fill="url(#paint0_linear_5981_39816)"/>
<path fill-rule="evenodd" clip-rule="evenodd" d="M4 12.5C4 11.1193 5.11929 10 6.5 10H19.5C20.8807 10 22 11.1193 22 12.5V27.5C22 28.8807 20.8807 30 19.5 30H6.5C5.11929 30 4 28.8807 4 27.5V12.5ZM16.7809 18.6247C17.1259 18.1934 17.056 17.5641 16.6247 17.2191C16.1934 16.8741 15.5641 16.944 15.2191 17.3753L11.9171 21.5029L10.7071 20.2929C10.3166 19.9024 9.68342 19.9024 9.29289 20.2929C8.90237 20.6834 8.90237 21.3166 9.29289 21.7071L11.2929 23.7071C11.494 23.9082 11.7713 24.0142 12.0553 23.9985C12.3393 23.9827 12.6032 23.8468 12.7809 23.6247L16.7809 18.6247Z" fill="url(#paint1_linear_5981_39816)"/>
<defs>
<linearGradient id="paint0_linear_5981_39816" x1="15.9999" y1="2" x2="15.9999" y2="30" gradientUnits="userSpaceOnUse">
<stop stop-color="#156EEB"/>
<stop offset="1" stop-color="#0048AC"/>
</linearGradient>
<linearGradient id="paint1_linear_5981_39816" x1="15.9999" y1="2" x2="15.9999" y2="30" gradientUnits="userSpaceOnUse">
<stop stop-color="#156EEB"/>
<stop offset="1" stop-color="#0048AC"/>
</linearGradient>
</defs>
</svg>
