<svg width="20" height="20" viewBox="0 0 20 20" fill="none" xmlns="http://www.w3.org/2000/svg">
<path fill-rule="evenodd" clip-rule="evenodd" d="M9.75 0C4.36522 0 0 4.36522 0 9.75C0 15.1348 4.36522 19.5 9.75 19.5C15.1348 19.5 19.5 15.1348 19.5 9.75C19.5 4.36522 15.1348 0 9.75 0ZM6.29688 2.25525C3.46517 3.5621 1.5 6.42655 1.5 9.75C1.5 14.3063 5.19365 18 9.75 18C14.0641 18 17.6048 14.6887 17.9691 10.4691L17.5082 10.0082C17.3372 9.83718 17.1949 9.63973 17.0867 9.42342L16.0067 7.2633C15.8804 7.01078 15.5439 6.95616 15.3442 7.1558C15.1318 7.36824 14.8209 7.44881 14.532 7.36627L13.2591 7.00259C12.7757 6.86447 12.274 7.15424 12.152 7.642C12.0609 8.00661 12.2088 8.38916 12.5215 8.59764L13.1082 8.9888C13.6989 9.38259 13.7817 10.2184 13.2797 10.7203L13.0795 10.9205C12.8686 11.1315 12.75 11.4176 12.75 11.716V12.1268C12.75 12.5346 12.6392 12.9347 12.4294 13.2844L11.1148 15.4754C10.7334 16.1111 10.0465 16.5 9.30519 16.5C8.72244 16.5 8.25003 16.0276 8.25003 15.4448V14.2733C8.25003 13.3533 7.68989 12.5259 6.83565 12.1843L6.18151 11.9226C5.19978 11.5299 4.62393 10.5066 4.79776 9.46362L4.80479 9.42139C4.8512 9.14295 4.94959 8.87573 5.09482 8.63367L5.18423 8.48466C5.67346 7.66928 6.62244 7.24948 7.55485 7.43597L8.7327 7.67153C9.30738 7.78647 9.87404 7.44096 10.035 6.87744L10.2435 6.14774C10.3923 5.62721 10.1491 5.07456 9.66493 4.83245L9.00003 4.5L8.90904 4.59099C8.48708 5.01295 7.91478 5.25 7.31805 5.25H7.13712C6.88927 5.25 6.65098 5.34905 6.47572 5.5243C6.19225 5.80778 5.75817 5.87907 5.39961 5.69979C4.91435 5.45716 4.73836 4.85278 5.01749 4.38757L6.29688 2.25525Z" fill="url(#paint0_linear_5981_38990)"/>
<defs>
<linearGradient id="paint0_linear_5981_38990" x1="9.75" y1="0" x2="9.75" y2="19.5" gradientUnits="userSpaceOnUse">
<stop stop-color="#F8FBFF"/>
<stop offset="1" stop-color="#5991E0"/>
</linearGradient>
</defs>
</svg>
