<svg width="24" height="25" viewBox="0 0 24 25" fill="none" xmlns="http://www.w3.org/2000/svg">
<g clip-path="url(#clip0_6005_12216)">
<path d="M16.1745 1.24639C14.8745 0.764047 13.4684 0.5 12.0006 0.5C10.5327 0.5 9.12667 0.764047 7.82669 1.24639L6.7832 12.5L7.82669 23.7536C9.12667 24.236 10.5327 24.5 12.0006 24.5C13.4684 24.5 14.8745 24.236 16.1745 23.7536L17.218 12.5L16.1745 1.24639Z" fill="#FFDA44"/>
<path d="M23.9999 12.4997C23.9999 7.34013 20.7434 2.94156 16.1738 1.24609V23.7534C20.7434 22.0578 23.9999 17.6593 23.9999 12.4997Z" fill="#D80027"/>
<path d="M0 12.4997C0 17.6593 3.2565 22.0577 7.82611 23.7533V1.24609C3.2565 2.94156 0 7.34012 0 12.4997Z" fill="black"/>
</g>
<defs>
<clipPath id="clip0_6005_12216">
<rect width="24" height="24" fill="white" transform="translate(0 0.5)"/>
</clipPath>
</defs>
</svg>
