<svg width="33" height="33" viewBox="0 0 33 33" fill="none" xmlns="http://www.w3.org/2000/svg">
<g clip-path="url(#clip0_6295_515)">
<path d="M16.5 33C25.6127 33 33 25.6127 33 16.5C33 7.3873 25.6127 0 16.5 0C7.3873 0 0 7.3873 0 16.5C0 25.6127 7.3873 33 16.5 33Z" fill="#F0F0F0"/>
<path d="M3.41081 6.4541C2.11472 8.14039 1.13742 10.084 0.568359 12.1954H9.1521L3.41081 6.4541Z" fill="#0052B4"/>
<path d="M32.4313 12.1953C31.8622 10.084 30.8848 8.14039 29.5888 6.4541L23.8477 12.1953H32.4313Z" fill="#0052B4"/>
<path d="M0.568359 20.8047C1.13748 22.916 2.11478 24.8596 3.41081 26.5459L9.15191 20.8047H0.568359Z" fill="#0052B4"/>
<path d="M26.5459 3.41087C24.8596 2.11478 22.9161 1.13748 20.8047 0.568359V9.15203L26.5459 3.41087Z" fill="#0052B4"/>
<path d="M6.4541 29.5888C8.14039 30.8848 10.084 31.8621 12.1953 32.4313V23.8477L6.4541 29.5888Z" fill="#0052B4"/>
<path d="M12.1953 0.568359C10.0839 1.13748 8.14032 2.11478 6.4541 3.41081L12.1953 9.15197V0.568359Z" fill="#0052B4"/>
<path d="M20.8047 32.4313C22.916 31.8621 24.8596 30.8848 26.5459 29.5888L20.8047 23.8477V32.4313Z" fill="#0052B4"/>
<path d="M23.8477 20.8047L29.5888 26.5459C30.8848 24.8597 31.8622 22.916 32.4313 20.8047H23.8477Z" fill="#0052B4"/>
<path d="M32.8603 14.3478H18.6523H18.6522V0.13967C17.9477 0.0479531 17.2294 0 16.5 0C15.7705 0 15.0523 0.0479531 14.3478 0.13967V14.3477V14.3478H0.13967C0.0479531 15.0523 0 15.7706 0 16.5C0 17.2295 0.0479531 17.9477 0.13967 18.6522H14.3477H14.3478V32.8603C15.0523 32.952 15.7705 33 16.5 33C17.2294 33 17.9477 32.9521 18.6522 32.8603V18.6523V18.6522H32.8603C32.952 17.9477 33 17.2295 33 16.5C33 15.7706 32.952 15.0523 32.8603 14.3478Z" fill="#D80027"/>
<path d="M20.8047 20.8048L28.1676 28.1676C28.5062 27.8291 28.8292 27.4752 29.1374 27.1083L22.8338 20.8047H20.8047V20.8048Z" fill="#D80027"/>
<path d="M12.1959 20.8047H12.1958L4.83301 28.1675C5.17152 28.5061 5.52543 28.8292 5.89229 29.1374L12.1959 22.8336V20.8047Z" fill="#D80027"/>
<path d="M12.196 12.1961V12.1959L4.83317 4.83301C4.49454 5.17152 4.1715 5.52543 3.86328 5.89229L10.167 12.196H12.196V12.1961Z" fill="#D80027"/>
<path d="M20.8047 12.1961L28.1676 4.83311C27.8291 4.49447 27.4752 4.17143 27.1083 3.86328L20.8047 10.167V12.1961Z" fill="#D80027"/>
</g>
<defs>
<clipPath id="clip0_6295_515">
<rect width="33" height="33" fill="white"/>
</clipPath>
</defs>
</svg>
