<svg width="264" height="446" viewBox="0 0 264 446" fill="none" xmlns="http://www.w3.org/2000/svg">
<g filter="url(#filter0_dd_5965_57156)">
<rect x="12" y="31" width="240" height="72" rx="36" fill="#FCFCFD" shape-rendering="crispEdges"/>
<path d="M101.273 77.5V60.22H104.393V77.5H101.273ZM112.577 77.5V60.22H115.697V77.5H112.577ZM102.761 67.276H113.993V69.724H102.761V67.276ZM124.28 77.74C122.984 77.74 121.848 77.468 120.872 76.924C119.912 76.38 119.16 75.628 118.616 74.668C118.088 73.708 117.824 72.604 117.824 71.356C117.824 70.108 118.088 69.012 118.616 68.068C119.16 67.108 119.912 66.364 120.872 65.836C121.832 65.292 122.952 65.02 124.232 65.02C125.448 65.02 126.504 65.276 127.4 65.788C128.296 66.284 128.992 66.988 129.488 67.9C129.984 68.812 130.232 69.876 130.232 71.092C130.232 71.316 130.224 71.524 130.208 71.716C130.192 71.908 130.168 72.1 130.136 72.292H119.696V70.18H127.808L127.184 70.756C127.184 69.604 126.92 68.74 126.392 68.164C125.864 67.588 125.128 67.3 124.184 67.3C123.16 67.3 122.344 67.652 121.736 68.356C121.144 69.06 120.848 70.076 120.848 71.404C120.848 72.716 121.144 73.724 121.736 74.428C122.344 75.116 123.2 75.46 124.304 75.46C124.944 75.46 125.504 75.34 125.984 75.1C126.464 74.86 126.816 74.492 127.04 73.996H129.896C129.496 75.148 128.816 76.06 127.856 76.732C126.912 77.404 125.72 77.74 124.28 77.74ZM132.495 77.5V60.22H135.519V77.5H132.495ZM138.729 77.5V60.22H141.753V77.5H138.729ZM150.531 77.74C149.235 77.74 148.091 77.468 147.099 76.924C146.123 76.38 145.363 75.628 144.819 74.668C144.275 73.692 144.003 72.58 144.003 71.332C144.003 70.084 144.275 68.988 144.819 68.044C145.363 67.1 146.123 66.364 147.099 65.836C148.091 65.292 149.235 65.02 150.531 65.02C151.843 65.02 152.987 65.292 153.963 65.836C154.939 66.364 155.699 67.1 156.243 68.044C156.787 68.988 157.059 70.084 157.059 71.332C157.059 72.58 156.779 73.692 156.219 74.668C155.675 75.628 154.915 76.38 153.939 76.924C152.963 77.468 151.827 77.74 150.531 77.74ZM150.531 75.316C151.171 75.316 151.747 75.156 152.259 74.836C152.771 74.5 153.171 74.036 153.459 73.444C153.747 72.836 153.891 72.124 153.891 71.308C153.891 70.108 153.571 69.164 152.931 68.476C152.307 67.788 151.507 67.444 150.531 67.444C149.555 67.444 148.747 67.788 148.107 68.476C147.467 69.164 147.147 70.108 147.147 71.308C147.147 72.124 147.291 72.836 147.579 73.444C147.883 74.036 148.283 74.5 148.779 74.836C149.291 75.156 149.875 75.316 150.531 75.316ZM159.441 71.428L159.009 59.74H162.345L161.889 71.428H159.441ZM158.961 77.5V74.044H162.417V77.5H158.961Z" fill="#262626"/>
<g clip-path="url(#clip0_5965_57156)">
<path d="M132 46C142.493 46 151 37.4934 151 27C151 16.5066 142.493 8 132 8C121.507 8 113 16.5066 113 27C113 37.4934 121.507 46 132 46Z" fill="#E4E4E4"/>
<path d="M116.928 15.4326C115.435 17.3744 114.31 19.6125 113.655 22.0438H123.539L116.928 15.4326Z" fill="#0052B4"/>
<path d="M150.346 22.0437C149.69 19.6125 148.565 17.3744 147.072 15.4326L140.461 22.0437H150.346Z" fill="#0052B4"/>
<path d="M113.655 31.9561C114.31 34.3873 115.435 36.6254 116.928 38.5671L123.539 31.9561H113.655Z" fill="#0052B4"/>
<path d="M143.568 11.9275C141.626 10.435 139.388 9.30965 136.957 8.6543V18.5385L143.568 11.9275Z" fill="#0052B4"/>
<path d="M120.432 42.0719C122.374 43.5644 124.612 44.6897 127.043 45.3451V35.4609L120.432 42.0719Z" fill="#0052B4"/>
<path d="M127.043 8.6543C124.612 9.30965 122.374 10.435 120.432 11.9274L127.043 18.5385V8.6543Z" fill="#0052B4"/>
<path d="M136.957 45.3451C139.388 44.6897 141.626 43.5644 143.568 42.072L136.957 35.4609V45.3451Z" fill="#0052B4"/>
<path d="M140.461 31.9561L147.072 38.5672C148.565 36.6255 149.69 34.3873 150.346 31.9561H140.461Z" fill="#0052B4"/>
<path d="M150.839 24.5218H134.478H134.478V8.16083C133.667 8.05522 132.84 8 132 8C131.16 8 130.333 8.05522 129.522 8.16083V24.5216V24.5217H113.161C113.055 25.333 113 26.1601 113 27C113 27.8401 113.055 28.667 113.161 29.4782H129.522H129.522V45.8392C130.333 45.9448 131.16 46 132 46C132.84 46 133.667 45.9449 134.478 45.8392V29.4784V29.4783H150.839C150.945 28.667 151 27.8401 151 27C151 26.1601 150.945 25.333 150.839 24.5218Z" fill="#D80027"/>
<path d="M136.957 31.9571L145.435 40.4356C145.825 40.0458 146.197 39.6382 146.552 39.2158L139.293 31.957H136.957V31.9571Z" fill="#D80027"/>
<path d="M127.043 31.957H127.043L118.565 40.4354C118.955 40.8254 119.362 41.1973 119.785 41.5523L127.043 34.2934V31.957Z" fill="#D80027"/>
<path d="M127.044 22.0431V22.043L118.565 13.5645C118.175 13.9543 117.803 14.3618 117.448 14.7842L124.707 22.0431H127.044V22.0431Z" fill="#D80027"/>
<path d="M136.957 22.0436L145.435 13.565C145.045 13.1751 144.638 12.8031 144.215 12.4482L136.957 19.7071V22.0436Z" fill="#D80027"/>
</g>
</g>
<g filter="url(#filter1_d_5965_57156)">
<path d="M128.527 110.163L129.703 111.123C131.051 112.225 132.978 112.262 134.368 111.214L136.165 109.859C140.062 106.92 144.392 104.606 149 103H132.515H115L115.581 103.182C120.302 104.663 124.696 107.033 128.527 110.163Z" fill="#FCFCFD"/>
</g>
<g filter="url(#filter2_dd_5965_57156)">
<rect x="12" y="193" width="240" height="72" rx="36" fill="#FCFCFD" shape-rendering="crispEdges"/>
<path d="M85.9136 226.156C86.8576 226.156 87.7376 226.284 88.5536 226.54C89.3856 226.78 90.0496 227.156 90.5456 227.668C91.0576 228.18 91.3136 228.836 91.3136 229.636C91.3136 230.42 91.0736 231.044 90.5936 231.508C90.1296 231.972 89.4976 232.308 88.6976 232.516V232.636C89.2576 232.764 89.7616 232.948 90.2096 233.188C90.6576 233.412 91.0096 233.724 91.2656 234.124C91.5376 234.508 91.6736 235.028 91.6736 235.684C91.6736 236.404 91.4416 237.076 90.9776 237.7C90.5296 238.308 89.8256 238.804 88.8656 239.188C87.9216 239.556 86.7056 239.74 85.2176 239.74C84.5136 239.74 83.8496 239.708 83.2256 239.644C82.6016 239.58 82.0336 239.492 81.5216 239.38C81.0096 239.252 80.5616 239.1 80.1776 238.924V235.972C80.7216 236.228 81.3856 236.46 82.1696 236.668C82.9696 236.876 83.8176 236.98 84.7136 236.98C85.3696 236.98 85.9536 236.932 86.4656 236.836C86.9936 236.74 87.4096 236.58 87.7136 236.356C88.0336 236.132 88.1936 235.836 88.1936 235.468C88.1936 235.116 88.0576 234.828 87.7856 234.604C87.5136 234.364 87.1056 234.188 86.5616 234.076C86.0176 233.964 85.3216 233.908 84.4736 233.908H83.0816V231.436H84.4016C85.5856 231.436 86.4976 231.34 87.1376 231.148C87.7936 230.956 88.1216 230.596 88.1216 230.068C88.1216 229.652 87.9136 229.34 87.4976 229.132C87.0816 228.908 86.4016 228.796 85.4576 228.796C84.8336 228.796 84.1536 228.868 83.4176 229.012C82.6816 229.156 81.9856 229.364 81.3296 229.636L80.2736 227.14C81.0256 226.852 81.8496 226.62 82.7456 226.444C83.6416 226.252 84.6976 226.156 85.9136 226.156ZM106.234 226.396V236.884H108.154V244.204H104.938V239.5H96.1301V244.204H92.9141V236.884H94.0181C94.5941 236.004 95.0821 235.004 95.4821 233.884C95.8821 232.748 96.2021 231.54 96.4421 230.26C96.6821 228.98 96.8581 227.692 96.9701 226.396H106.234ZM99.9701 229.084C99.8421 230.044 99.6821 230.98 99.4901 231.892C99.2981 232.788 99.0581 233.652 98.7701 234.484C98.4981 235.316 98.1621 236.116 97.7621 236.884H102.658V229.084H99.9701ZM117.684 226.156C119.156 226.156 120.348 226.732 121.26 227.884C122.172 229.02 122.628 230.7 122.628 232.924C122.628 234.412 122.412 235.668 121.98 236.692C121.548 237.7 120.956 238.46 120.204 238.972C119.452 239.484 118.58 239.74 117.588 239.74C116.964 239.74 116.42 239.66 115.956 239.5C115.508 239.34 115.124 239.132 114.804 238.876C114.484 238.62 114.204 238.348 113.964 238.06H113.772C113.836 238.364 113.884 238.684 113.916 239.02C113.948 239.34 113.964 239.66 113.964 239.98V245.26H110.388V226.396H113.292L113.796 228.1H113.964C114.204 227.748 114.492 227.428 114.828 227.14C115.164 226.836 115.564 226.596 116.028 226.42C116.508 226.244 117.06 226.156 117.684 226.156ZM116.532 229.012C115.908 229.012 115.412 229.14 115.044 229.396C114.676 229.652 114.404 230.044 114.228 230.572C114.068 231.084 113.98 231.732 113.964 232.516V232.9C113.964 233.748 114.044 234.468 114.204 235.06C114.364 235.636 114.636 236.076 115.02 236.38C115.404 236.684 115.924 236.836 116.58 236.836C117.124 236.836 117.572 236.684 117.924 236.38C118.276 236.076 118.54 235.628 118.716 235.036C118.892 234.444 118.98 233.724 118.98 232.876C118.98 231.596 118.78 230.636 118.38 229.996C117.996 229.34 117.38 229.012 116.532 229.012ZM130.951 226.132C132.711 226.132 134.055 226.516 134.983 227.284C135.927 228.036 136.399 229.196 136.399 230.764V239.5H133.903L133.207 237.724H133.111C132.743 238.188 132.359 238.572 131.959 238.876C131.575 239.18 131.127 239.396 130.615 239.524C130.119 239.668 129.503 239.74 128.767 239.74C127.999 239.74 127.303 239.596 126.679 239.308C126.071 239.004 125.591 238.548 125.239 237.94C124.887 237.316 124.711 236.532 124.711 235.588C124.711 234.196 125.199 233.172 126.175 232.516C127.151 231.844 128.615 231.476 130.567 231.412L132.847 231.34V230.764C132.847 230.076 132.663 229.572 132.295 229.252C131.943 228.932 131.447 228.772 130.807 228.772C130.167 228.772 129.543 228.868 128.935 229.06C128.327 229.236 127.719 229.46 127.111 229.732L125.935 227.308C126.639 226.94 127.415 226.652 128.263 226.444C129.127 226.236 130.023 226.132 130.951 226.132ZM131.455 233.476C130.303 233.508 129.503 233.716 129.055 234.1C128.607 234.484 128.383 234.988 128.383 235.612C128.383 236.156 128.543 236.548 128.863 236.788C129.183 237.012 129.599 237.124 130.111 237.124C130.879 237.124 131.527 236.9 132.055 236.452C132.583 235.988 132.847 235.34 132.847 234.508V233.428L131.455 233.476ZM151.676 229.828C151.676 230.532 151.452 231.132 151.004 231.628C150.572 232.124 149.924 232.444 149.06 232.588V232.684C149.972 232.796 150.7 233.108 151.244 233.62C151.804 234.132 152.084 234.788 152.084 235.588C152.084 236.148 151.972 236.668 151.747 237.148C151.54 237.628 151.204 238.044 150.74 238.396C150.276 238.748 149.676 239.02 148.94 239.212C148.22 239.404 147.34 239.5 146.3 239.5H140.06V226.396H146.3C147.324 226.396 148.236 226.508 149.036 226.732C149.852 226.94 150.492 227.292 150.956 227.788C151.436 228.284 151.676 228.964 151.676 229.828ZM148.388 235.396C148.388 234.884 148.188 234.516 147.788 234.292C147.388 234.052 146.788 233.932 145.988 233.932H143.636V237.028H146.06C146.732 237.028 147.284 236.908 147.716 236.668C148.164 236.412 148.388 235.988 148.388 235.396ZM148.052 230.116C148.052 229.7 147.892 229.396 147.572 229.204C147.252 229.012 146.78 228.916 146.156 228.916H143.636V231.508H145.748C146.5 231.508 147.068 231.404 147.452 231.196C147.852 230.972 148.052 230.612 148.052 230.116ZM160.553 226.156C161.769 226.156 162.809 226.388 163.673 226.852C164.553 227.316 165.233 227.988 165.713 228.868C166.193 229.748 166.433 230.828 166.433 232.108V233.836H157.985C158.017 234.844 158.313 235.636 158.873 236.212C159.449 236.788 160.241 237.076 161.249 237.076C162.097 237.076 162.865 236.996 163.553 236.836C164.241 236.66 164.953 236.396 165.689 236.044V238.804C165.049 239.124 164.369 239.356 163.649 239.5C162.945 239.66 162.089 239.74 161.081 239.74C159.769 239.74 158.609 239.5 157.601 239.02C156.593 238.524 155.801 237.78 155.225 236.788C154.649 235.796 154.361 234.548 154.361 233.044C154.361 231.508 154.617 230.236 155.129 229.228C155.657 228.204 156.385 227.436 157.313 226.924C158.241 226.412 159.321 226.156 160.553 226.156ZM160.577 228.7C159.889 228.7 159.313 228.924 158.849 229.372C158.401 229.82 158.137 230.516 158.057 231.46H163.073C163.073 230.932 162.977 230.46 162.785 230.044C162.609 229.628 162.337 229.3 161.969 229.06C161.601 228.82 161.137 228.7 160.577 228.7ZM181.885 220.756C181.805 221.588 181.573 222.324 181.189 222.964C180.805 223.588 180.205 224.076 179.389 224.428C178.573 224.78 177.477 224.956 176.101 224.956C174.693 224.956 173.589 224.788 172.789 224.452C172.005 224.1 171.445 223.612 171.109 222.988C170.773 222.364 170.573 221.62 170.509 220.756H173.701C173.781 221.636 174.005 222.22 174.373 222.508C174.741 222.796 175.341 222.94 176.173 222.94C176.861 222.94 177.421 222.788 177.853 222.484C178.301 222.164 178.565 221.588 178.645 220.756H181.885ZM172.789 231.58C172.789 231.852 172.773 232.188 172.741 232.588C172.725 232.988 172.701 233.396 172.669 233.812C172.653 234.228 172.629 234.596 172.597 234.916C172.565 235.236 172.541 235.46 172.525 235.588L178.573 226.396H182.869V239.5H179.413V234.268C179.413 233.836 179.429 233.364 179.461 232.852C179.493 232.324 179.525 231.836 179.557 231.388C179.605 230.924 179.637 230.572 179.653 230.332L173.629 239.5H169.333V226.396H172.789V231.58Z" fill="#262626"/>
<g clip-path="url(#clip1_5965_57156)">
<path d="M151 189C151 186.676 150.582 184.45 149.818 182.392L132 181.565L114.182 182.391C113.418 184.45 113 186.676 113 189C113 191.324 113.418 193.551 114.182 195.609L132 196.435L149.818 195.609C150.582 193.551 151 191.324 151 189Z" fill="#496E2D"/>
<path d="M132 208C140.169 208 147.134 202.844 149.818 195.608H114.182C116.866 202.844 123.831 208 132 208Z" fill="#D80027"/>
<path d="M114.182 182.391H149.818C147.134 175.156 140.169 170 132 170C123.831 170 116.866 175.156 114.182 182.391Z" fill="#F0F0F0"/>
</g>
</g>
<g filter="url(#filter3_d_5965_57156)">
<path d="M128.527 272.163L129.703 273.123C131.051 274.225 132.978 274.262 134.368 273.214L136.165 271.859C140.062 268.92 144.392 266.606 149 265H132.515H115L115.581 265.182C120.302 266.663 124.696 269.033 128.527 272.163Z" fill="#FCFCFD"/>
</g>
<g filter="url(#filter4_dd_5965_57156)">
<rect x="12" y="355" width="240" height="72" rx="36" fill="#FCFCFD" shape-rendering="crispEdges"/>
<path d="M77.232 384.052C78.112 384.148 79.104 384.22 80.208 384.268C81.312 384.316 82.496 384.34 83.76 384.34C84.544 384.34 85.352 384.324 86.184 384.292C87.032 384.26 87.848 384.22 88.632 384.172C89.416 384.124 90.112 384.068 90.72 384.004V387.196C90.16 387.244 89.48 387.292 88.68 387.34C87.896 387.388 87.072 387.428 86.208 387.46C85.36 387.476 84.552 387.484 83.784 387.484C82.536 387.484 81.376 387.46 80.304 387.412C79.232 387.364 78.208 387.3 77.232 387.22V384.052ZM79.248 394.228C79.136 394.644 79.04 395.052 78.96 395.452C78.88 395.852 78.84 396.252 78.84 396.652C78.84 397.42 79.224 398.052 79.992 398.548C80.776 399.044 82.032 399.292 83.76 399.292C84.848 399.292 85.896 399.252 86.904 399.172C87.912 399.092 88.864 398.98 89.76 398.836C90.672 398.692 91.48 398.524 92.184 398.332L92.208 401.716C91.504 401.876 90.72 402.012 89.856 402.124C88.992 402.252 88.056 402.348 87.048 402.412C86.056 402.492 85 402.532 83.88 402.532C82.056 402.532 80.528 402.332 79.296 401.932C78.064 401.532 77.144 400.956 76.536 400.204C75.928 399.436 75.624 398.5 75.624 397.396C75.624 396.692 75.68 396.052 75.792 395.476C75.904 394.9 76.008 394.388 76.104 393.94L79.248 394.228ZM109.848 383.668C109.736 383.828 109.608 384.012 109.464 384.22C109.336 384.412 109.208 384.604 109.08 384.796C108.792 385.228 108.472 385.732 108.12 386.308C107.784 386.868 107.432 387.468 107.064 388.108C106.696 388.732 106.336 389.356 105.984 389.98C105.648 390.604 105.328 391.18 105.024 391.708C105.472 391.452 105.928 391.268 106.392 391.156C106.856 391.044 107.32 390.988 107.784 390.988C108.68 390.988 109.384 391.26 109.896 391.804C110.424 392.332 110.712 393.1 110.76 394.108C110.776 394.46 110.784 394.884 110.784 395.38C110.784 395.876 110.784 396.372 110.784 396.868C110.8 397.364 110.824 397.78 110.856 398.116C110.904 398.58 111.072 398.916 111.36 399.124C111.664 399.316 112.016 399.412 112.416 399.412C112.928 399.412 113.392 399.26 113.808 398.956C114.24 398.652 114.624 398.236 114.96 397.708C115.296 397.164 115.584 396.556 115.824 395.884C116.08 395.196 116.296 394.484 116.472 393.748L119.064 395.86C118.648 397.22 118.12 398.42 117.48 399.46C116.84 400.484 116.056 401.276 115.128 401.836C114.216 402.412 113.144 402.7 111.912 402.7C111.032 402.7 110.296 402.54 109.704 402.22C109.112 401.916 108.672 401.516 108.384 401.02C108.096 400.508 107.936 399.956 107.904 399.364C107.872 398.932 107.848 398.452 107.832 397.924C107.832 397.396 107.824 396.884 107.808 396.388C107.808 395.876 107.792 395.46 107.76 395.14C107.728 394.724 107.592 394.396 107.352 394.156C107.112 393.916 106.776 393.796 106.344 393.796C105.816 393.796 105.312 393.964 104.832 394.3C104.352 394.636 103.912 395.076 103.512 395.62C103.128 396.164 102.792 396.764 102.504 397.42C102.344 397.772 102.176 398.188 102 398.668C101.824 399.148 101.656 399.644 101.496 400.156C101.336 400.668 101.184 401.148 101.04 401.596C100.896 402.06 100.776 402.452 100.68 402.772L97.296 401.62C97.6 400.82 97.968 399.908 98.4 398.884C98.848 397.844 99.336 396.756 99.864 395.62C100.392 394.484 100.928 393.356 101.472 392.236C102.016 391.116 102.536 390.06 103.032 389.068C103.528 388.06 103.968 387.188 104.352 386.452C104.752 385.7 105.056 385.132 105.264 384.748C105.424 384.428 105.608 384.068 105.816 383.668C106.024 383.268 106.232 382.812 106.44 382.3L109.848 383.668ZM130.752 384.724C131.488 384.82 132.312 384.892 133.224 384.94C134.152 384.972 135.088 384.988 136.032 384.988C136.992 384.972 137.912 384.94 138.792 384.892C139.672 384.828 140.432 384.764 141.072 384.7V387.796C140.336 387.86 139.528 387.916 138.648 387.964C137.768 387.996 136.864 388.012 135.936 388.012C135.008 388.012 134.096 387.996 133.2 387.964C132.32 387.916 131.504 387.86 130.752 387.796V384.724ZM132.672 394.972C132.576 395.372 132.504 395.732 132.456 396.052C132.408 396.356 132.384 396.668 132.384 396.988C132.384 397.244 132.448 397.484 132.576 397.708C132.704 397.916 132.896 398.1 133.152 398.26C133.424 398.404 133.768 398.516 134.184 398.596C134.616 398.66 135.136 398.692 135.744 398.692C136.816 398.692 137.824 398.644 138.768 398.548C139.712 398.436 140.712 398.276 141.768 398.068L141.816 401.308C141.048 401.452 140.16 401.564 139.152 401.644C138.16 401.724 136.984 401.764 135.624 401.764C133.56 401.764 132.024 401.42 131.016 400.732C130.008 400.028 129.504 399.06 129.504 397.828C129.504 397.364 129.536 396.884 129.6 396.388C129.68 395.876 129.784 395.316 129.912 394.708L132.672 394.972ZM127.056 383.116C126.992 383.276 126.92 383.5 126.84 383.788C126.76 384.076 126.68 384.356 126.6 384.628C126.536 384.9 126.488 385.108 126.456 385.252C126.408 385.588 126.328 386.028 126.216 386.572C126.12 387.1 126.016 387.7 125.904 388.372C125.808 389.028 125.712 389.7 125.616 390.388C125.52 391.076 125.44 391.74 125.376 392.38C125.328 393.02 125.304 393.58 125.304 394.06C125.304 394.284 125.304 394.54 125.304 394.828C125.32 395.116 125.352 395.38 125.4 395.62C125.512 395.348 125.632 395.076 125.76 394.804C125.888 394.532 126.016 394.26 126.144 393.988C126.272 393.7 126.384 393.428 126.48 393.172L127.968 394.348C127.744 395.004 127.512 395.708 127.272 396.46C127.048 397.212 126.84 397.924 126.648 398.596C126.472 399.252 126.336 399.796 126.24 400.228C126.208 400.404 126.176 400.604 126.144 400.828C126.128 401.052 126.12 401.228 126.12 401.356C126.12 401.484 126.12 401.636 126.12 401.812C126.136 402.004 126.152 402.18 126.168 402.34L123.384 402.532C123.144 401.7 122.928 400.596 122.736 399.22C122.544 397.828 122.448 396.316 122.448 394.684C122.448 393.788 122.488 392.876 122.568 391.948C122.648 391.02 122.744 390.132 122.856 389.284C122.968 388.42 123.072 387.636 123.168 386.932C123.28 386.228 123.376 385.644 123.456 385.18C123.488 384.844 123.528 384.468 123.576 384.052C123.64 383.62 123.68 383.212 123.696 382.828L127.056 383.116ZM154.872 382.372C154.744 382.788 154.632 383.204 154.536 383.62C154.456 384.02 154.376 384.42 154.296 384.82C154.216 385.204 154.12 385.644 154.008 386.14C153.912 386.636 153.8 387.164 153.672 387.724C153.56 388.268 153.432 388.82 153.288 389.38C153.16 389.94 153.024 390.492 152.88 391.036C152.736 391.564 152.6 392.052 152.472 392.5C153.448 391.956 154.416 391.572 155.376 391.348C156.336 391.108 157.352 390.988 158.424 390.988C159.72 390.988 160.848 391.204 161.808 391.636C162.784 392.068 163.536 392.668 164.064 393.436C164.608 394.204 164.88 395.1 164.88 396.124C164.88 397.468 164.568 398.604 163.944 399.532C163.336 400.46 162.456 401.188 161.304 401.716C160.168 402.244 158.8 402.58 157.2 402.724C155.616 402.868 153.856 402.836 151.92 402.628L151.08 399.532C152.392 399.756 153.672 399.868 154.92 399.868C156.184 399.868 157.32 399.748 158.328 399.508C159.336 399.268 160.136 398.884 160.728 398.356C161.336 397.812 161.64 397.1 161.64 396.22C161.64 395.5 161.336 394.884 160.728 394.372C160.12 393.844 159.232 393.58 158.064 393.58C156.672 393.58 155.392 393.82 154.224 394.3C153.072 394.78 152.136 395.476 151.416 396.388C151.304 396.564 151.192 396.732 151.08 396.892C150.984 397.052 150.872 397.236 150.744 397.444L147.912 396.436C148.36 395.572 148.776 394.588 149.16 393.484C149.544 392.38 149.888 391.268 150.192 390.148C150.496 389.028 150.744 387.988 150.936 387.028C151.128 386.052 151.264 385.26 151.344 384.652C151.424 384.14 151.472 383.708 151.488 383.356C151.504 382.988 151.496 382.612 151.464 382.228L154.872 382.372ZM146.496 385.18C147.264 385.308 148.096 385.42 148.992 385.516C149.888 385.596 150.712 385.636 151.464 385.636C152.232 385.636 153.072 385.612 153.984 385.564C154.912 385.516 155.888 385.444 156.912 385.348C157.936 385.252 158.96 385.132 159.984 384.988C161.024 384.828 162.04 384.644 163.032 384.436L163.08 387.292C162.312 387.42 161.44 387.548 160.464 387.676C159.504 387.804 158.496 387.924 157.44 388.036C156.384 388.132 155.344 388.212 154.32 388.276C153.296 388.34 152.352 388.372 151.488 388.372C150.56 388.372 149.672 388.356 148.824 388.324C147.992 388.276 147.216 388.22 146.496 388.156V385.18ZM177.384 386.764C178.072 386.828 178.76 386.884 179.448 386.932C180.152 386.964 180.864 386.98 181.584 386.98C183.056 386.98 184.52 386.916 185.976 386.788C187.432 386.66 188.776 386.46 190.008 386.188V389.188C188.76 389.364 187.408 389.508 185.952 389.62C184.496 389.716 183.04 389.764 181.584 389.764C180.88 389.764 180.176 389.756 179.472 389.74C178.784 389.708 178.088 389.668 177.384 389.62V386.764ZM186.504 382.708C186.472 382.932 186.44 383.18 186.408 383.452C186.392 383.724 186.376 383.996 186.36 384.268C186.344 384.524 186.328 384.868 186.312 385.3C186.296 385.732 186.288 386.22 186.288 386.764C186.288 387.292 186.288 387.852 186.288 388.444C186.288 389.532 186.304 390.556 186.336 391.516C186.368 392.46 186.408 393.34 186.456 394.156C186.504 394.956 186.544 395.692 186.576 396.364C186.624 397.036 186.648 397.66 186.648 398.236C186.648 398.86 186.56 399.436 186.384 399.964C186.224 400.492 185.96 400.956 185.592 401.356C185.224 401.756 184.736 402.06 184.128 402.268C183.536 402.492 182.808 402.604 181.944 402.604C180.28 402.604 178.968 402.268 178.008 401.596C177.048 400.924 176.568 399.956 176.568 398.692C176.568 397.876 176.784 397.164 177.216 396.556C177.648 395.932 178.264 395.452 179.064 395.116C179.864 394.764 180.808 394.588 181.896 394.588C183.032 394.588 184.064 394.708 184.992 394.948C185.92 395.188 186.768 395.508 187.536 395.908C188.304 396.308 188.984 396.748 189.576 397.228C190.184 397.692 190.728 398.14 191.208 398.572L189.552 401.092C188.64 400.228 187.752 399.484 186.888 398.86C186.024 398.236 185.16 397.756 184.296 397.42C183.448 397.084 182.568 396.916 181.656 396.916C180.984 396.916 180.432 397.044 180 397.3C179.584 397.556 179.376 397.916 179.376 398.38C179.376 398.86 179.592 399.212 180.024 399.436C180.456 399.66 180.984 399.772 181.608 399.772C182.104 399.772 182.496 399.692 182.784 399.532C183.072 399.356 183.272 399.108 183.384 398.788C183.512 398.452 183.576 398.052 183.576 397.588C183.576 397.172 183.56 396.628 183.528 395.956C183.496 395.284 183.456 394.532 183.408 393.7C183.376 392.868 183.344 392.004 183.312 391.108C183.28 390.196 183.264 389.308 183.264 388.444C183.264 387.532 183.256 386.708 183.24 385.972C183.24 385.22 183.24 384.66 183.24 384.292C183.24 384.116 183.224 383.868 183.192 383.548C183.16 383.228 183.12 382.948 183.072 382.708H186.504ZM174.792 382.972C174.744 383.132 174.672 383.356 174.576 383.644C174.496 383.932 174.424 384.212 174.36 384.484C174.312 384.756 174.272 384.964 174.24 385.108C174.16 385.444 174.072 385.9 173.976 386.476C173.88 387.036 173.776 387.676 173.664 388.396C173.568 389.1 173.472 389.828 173.376 390.58C173.28 391.316 173.208 392.02 173.16 392.692C173.112 393.348 173.088 393.916 173.088 394.396C173.088 394.636 173.088 394.9 173.088 395.188C173.104 395.46 173.136 395.716 173.184 395.956C173.296 395.668 173.408 395.388 173.52 395.116C173.648 394.844 173.776 394.572 173.904 394.3C174.032 394.028 174.152 393.756 174.264 393.484L175.728 394.684C175.504 395.34 175.272 396.028 175.032 396.748C174.808 397.468 174.6 398.148 174.408 398.788C174.232 399.428 174.096 399.964 174 400.396C173.968 400.556 173.936 400.748 173.904 400.972C173.888 401.196 173.88 401.38 173.88 401.524C173.88 401.652 173.88 401.804 173.88 401.98C173.896 402.172 173.912 402.348 173.928 402.508L171.216 402.724C170.96 401.876 170.736 400.796 170.544 399.484C170.352 398.156 170.256 396.676 170.256 395.044C170.256 394.148 170.296 393.212 170.376 392.236C170.456 391.244 170.544 390.292 170.64 389.38C170.752 388.468 170.864 387.636 170.976 386.884C171.088 386.116 171.176 385.5 171.24 385.036C171.288 384.7 171.336 384.324 171.384 383.908C171.432 383.476 171.464 383.068 171.48 382.684L174.792 382.972Z" fill="#262626"/>
<g clip-path="url(#clip2_5965_57156)">
<path d="M132 370C142.493 370 151 361.493 151 351C151 340.507 142.493 332 132 332C121.507 332 113 340.507 113 351C113 361.493 121.507 370 132 370Z" fill="#E4E4E4"/>
<path d="M132 359.261C136.562 359.261 140.261 355.562 140.261 351C140.261 346.438 136.562 342.739 132 342.739C127.438 342.739 123.739 346.438 123.739 351C123.739 355.562 127.438 359.261 132 359.261Z" fill="#D80027"/>
</g>
</g>
<g filter="url(#filter5_d_5965_57156)">
<path d="M128.527 434.163L129.703 435.123C131.051 436.225 132.978 436.262 134.368 435.214L136.165 433.859C140.062 430.92 144.392 428.606 149 427H132.515H115L115.581 427.182C120.302 428.663 124.696 431.033 128.527 434.163Z" fill="#FCFCFD"/>
</g>
<defs>
<filter id="filter0_dd_5965_57156" x="0.8" y="0.8" width="262.4" height="117.4" filterUnits="userSpaceOnUse" color-interpolation-filters="sRGB">
<feFlood flood-opacity="0" result="BackgroundImageFix"/>
<feColorMatrix in="SourceAlpha" type="matrix" values="0 0 0 0 0 0 0 0 0 0 0 0 0 0 0 0 0 0 127 0" result="hardAlpha"/>
<feMorphology radius="6" operator="dilate" in="SourceAlpha" result="effect1_dropShadow_5965_57156"/>
<feOffset/>
<feComposite in2="hardAlpha" operator="out"/>
<feColorMatrix type="matrix" values="0 0 0 0 0.859931 0 0 0 0 0.921825 0 0 0 0 0.973403 0 0 0 1 0"/>
<feBlend mode="normal" in2="BackgroundImageFix" result="effect1_dropShadow_5965_57156"/>
<feColorMatrix in="SourceAlpha" type="matrix" values="0 0 0 0 0 0 0 0 0 0 0 0 0 0 0 0 0 0 127 0" result="hardAlpha"/>
<feOffset dy="4"/>
<feGaussianBlur stdDeviation="5.6"/>
<feComposite in2="hardAlpha" operator="out"/>
<feColorMatrix type="matrix" values="0 0 0 0 0 0 0 0 0 0 0 0 0 0 0 0 0 0 0.1 0"/>
<feBlend mode="normal" in2="effect1_dropShadow_5965_57156" result="effect2_dropShadow_5965_57156"/>
<feBlend mode="normal" in="SourceGraphic" in2="effect2_dropShadow_5965_57156" result="shape"/>
</filter>
<filter id="filter1_d_5965_57156" x="109.3" y="101.3" width="45.4" height="20.3756" filterUnits="userSpaceOnUse" color-interpolation-filters="sRGB">
<feFlood flood-opacity="0" result="BackgroundImageFix"/>
<feColorMatrix in="SourceAlpha" type="matrix" values="0 0 0 0 0 0 0 0 0 0 0 0 0 0 0 0 0 0 127 0" result="hardAlpha"/>
<feOffset dy="4"/>
<feGaussianBlur stdDeviation="2.85"/>
<feComposite in2="hardAlpha" operator="out"/>
<feColorMatrix type="matrix" values="0 0 0 0 0.48 0 0 0 0 0.48 0 0 0 0 0.48 0 0 0 0.03 0"/>
<feBlend mode="normal" in2="BackgroundImageFix" result="effect1_dropShadow_5965_57156"/>
<feBlend mode="normal" in="SourceGraphic" in2="effect1_dropShadow_5965_57156" result="shape"/>
</filter>
<filter id="filter2_dd_5965_57156" x="0.8" y="162.8" width="262.4" height="117.4" filterUnits="userSpaceOnUse" color-interpolation-filters="sRGB">
<feFlood flood-opacity="0" result="BackgroundImageFix"/>
<feColorMatrix in="SourceAlpha" type="matrix" values="0 0 0 0 0 0 0 0 0 0 0 0 0 0 0 0 0 0 127 0" result="hardAlpha"/>
<feMorphology radius="6" operator="dilate" in="SourceAlpha" result="effect1_dropShadow_5965_57156"/>
<feOffset/>
<feComposite in2="hardAlpha" operator="out"/>
<feColorMatrix type="matrix" values="0 0 0 0 0.859931 0 0 0 0 0.921825 0 0 0 0 0.973403 0 0 0 1 0"/>
<feBlend mode="normal" in2="BackgroundImageFix" result="effect1_dropShadow_5965_57156"/>
<feColorMatrix in="SourceAlpha" type="matrix" values="0 0 0 0 0 0 0 0 0 0 0 0 0 0 0 0 0 0 127 0" result="hardAlpha"/>
<feOffset dy="4"/>
<feGaussianBlur stdDeviation="5.6"/>
<feComposite in2="hardAlpha" operator="out"/>
<feColorMatrix type="matrix" values="0 0 0 0 0 0 0 0 0 0 0 0 0 0 0 0 0 0 0.1 0"/>
<feBlend mode="normal" in2="effect1_dropShadow_5965_57156" result="effect2_dropShadow_5965_57156"/>
<feBlend mode="normal" in="SourceGraphic" in2="effect2_dropShadow_5965_57156" result="shape"/>
</filter>
<filter id="filter3_d_5965_57156" x="109.3" y="263.3" width="45.4" height="20.3756" filterUnits="userSpaceOnUse" color-interpolation-filters="sRGB">
<feFlood flood-opacity="0" result="BackgroundImageFix"/>
<feColorMatrix in="SourceAlpha" type="matrix" values="0 0 0 0 0 0 0 0 0 0 0 0 0 0 0 0 0 0 127 0" result="hardAlpha"/>
<feOffset dy="4"/>
<feGaussianBlur stdDeviation="2.85"/>
<feComposite in2="hardAlpha" operator="out"/>
<feColorMatrix type="matrix" values="0 0 0 0 0.48 0 0 0 0 0.48 0 0 0 0 0.48 0 0 0 0.03 0"/>
<feBlend mode="normal" in2="BackgroundImageFix" result="effect1_dropShadow_5965_57156"/>
<feBlend mode="normal" in="SourceGraphic" in2="effect1_dropShadow_5965_57156" result="shape"/>
</filter>
<filter id="filter4_dd_5965_57156" x="0.8" y="324.8" width="262.4" height="117.4" filterUnits="userSpaceOnUse" color-interpolation-filters="sRGB">
<feFlood flood-opacity="0" result="BackgroundImageFix"/>
<feColorMatrix in="SourceAlpha" type="matrix" values="0 0 0 0 0 0 0 0 0 0 0 0 0 0 0 0 0 0 127 0" result="hardAlpha"/>
<feMorphology radius="6" operator="dilate" in="SourceAlpha" result="effect1_dropShadow_5965_57156"/>
<feOffset/>
<feComposite in2="hardAlpha" operator="out"/>
<feColorMatrix type="matrix" values="0 0 0 0 0.859931 0 0 0 0 0.921825 0 0 0 0 0.973403 0 0 0 1 0"/>
<feBlend mode="normal" in2="BackgroundImageFix" result="effect1_dropShadow_5965_57156"/>
<feColorMatrix in="SourceAlpha" type="matrix" values="0 0 0 0 0 0 0 0 0 0 0 0 0 0 0 0 0 0 127 0" result="hardAlpha"/>
<feOffset dy="4"/>
<feGaussianBlur stdDeviation="5.6"/>
<feComposite in2="hardAlpha" operator="out"/>
<feColorMatrix type="matrix" values="0 0 0 0 0 0 0 0 0 0 0 0 0 0 0 0 0 0 0.1 0"/>
<feBlend mode="normal" in2="effect1_dropShadow_5965_57156" result="effect2_dropShadow_5965_57156"/>
<feBlend mode="normal" in="SourceGraphic" in2="effect2_dropShadow_5965_57156" result="shape"/>
</filter>
<filter id="filter5_d_5965_57156" x="109.3" y="425.3" width="45.4" height="20.3756" filterUnits="userSpaceOnUse" color-interpolation-filters="sRGB">
<feFlood flood-opacity="0" result="BackgroundImageFix"/>
<feColorMatrix in="SourceAlpha" type="matrix" values="0 0 0 0 0 0 0 0 0 0 0 0 0 0 0 0 0 0 127 0" result="hardAlpha"/>
<feOffset dy="4"/>
<feGaussianBlur stdDeviation="2.85"/>
<feComposite in2="hardAlpha" operator="out"/>
<feColorMatrix type="matrix" values="0 0 0 0 0.48 0 0 0 0 0.48 0 0 0 0 0.48 0 0 0 0.03 0"/>
<feBlend mode="normal" in2="BackgroundImageFix" result="effect1_dropShadow_5965_57156"/>
<feBlend mode="normal" in="SourceGraphic" in2="effect1_dropShadow_5965_57156" result="shape"/>
</filter>
<clipPath id="clip0_5965_57156">
<rect width="38" height="38" fill="white" transform="translate(113 8)"/>
</clipPath>
<clipPath id="clip1_5965_57156">
<rect width="38" height="38" fill="white" transform="translate(113 170)"/>
</clipPath>
<clipPath id="clip2_5965_57156">
<rect width="38" height="38" fill="white" transform="translate(113 332)"/>
</clipPath>
</defs>
</svg>
