<svg width="152" height="65" viewBox="0 0 152 65" fill="none" xmlns="http://www.w3.org/2000/svg">
<path fill-rule="evenodd" clip-rule="evenodd" d="M77.5797 15.828C77.5797 23.6009 71.293 29.9021 63.5381 29.9021C55.7831 29.9021 49.4965 23.6009 49.4965 15.828C49.4965 8.05508 55.7831 1.75391 63.5381 1.75391C71.293 1.75391 77.5797 8.05508 77.5797 15.828ZM72.9747 19.3469C71.5632 23.1756 67.8889 25.9053 63.5786 25.9053C62.6839 25.9053 61.8166 25.7877 60.9912 25.567C61.0334 25.4531 61.1004 25.3365 61.1997 25.206C61.2542 25.1345 61.3191 25.0693 61.3843 25.0039C61.4464 24.9416 61.5087 24.879 61.5623 24.8107C61.6953 24.641 61.6815 24.6089 61.6502 24.536C61.6314 24.4922 61.6063 24.4338 61.6029 24.3223C61.5954 24.0769 61.6421 24.0732 61.7391 24.0656C61.7888 24.0617 61.8518 24.0567 61.9276 24.0174C62.0104 23.9745 62.0998 23.8694 62.1765 23.7792C62.2071 23.7433 62.2356 23.7098 62.2609 23.6835C62.3194 23.6226 62.3873 23.558 62.4578 23.4911C62.6227 23.3345 62.8016 23.1645 62.9072 22.9955C62.9915 22.8605 63.0287 22.6991 63.0661 22.5365C63.1039 22.3723 63.142 22.2068 63.2293 22.066C63.3551 21.8633 63.5139 21.7883 63.684 21.7079C63.7836 21.6609 63.8871 21.612 63.99 21.5346C64.2446 21.3433 64.2459 21.1448 64.2474 20.914C64.248 20.8172 64.2487 20.7147 64.2681 20.6047C64.3784 19.9819 64.6596 19.2954 65.0514 18.7994C65.5444 18.1749 65.7563 17.6444 65.1564 17.045C64.9463 16.835 64.8076 16.8135 64.6044 16.7821C64.521 16.7692 64.4267 16.7546 64.3122 16.7246C64.1808 16.6901 64.055 16.6285 63.9296 16.567C63.7689 16.4883 63.6086 16.4098 63.4373 16.3886C63.3542 16.3784 63.2865 16.3865 63.2217 16.3942C63.144 16.4035 63.0705 16.4123 62.9794 16.3885C62.9102 16.3703 62.8756 16.3414 62.8439 16.315C62.8044 16.282 62.7697 16.2531 62.6786 16.2541C62.5875 16.2552 62.4829 16.3267 62.3769 16.3992C62.1979 16.5215 62.0148 16.6467 61.8851 16.4415C61.8203 16.3391 61.9025 16.1351 61.984 15.9328C62.0475 15.7753 62.1105 15.6188 62.1036 15.5119C62.084 15.2124 61.9727 14.7241 61.6798 14.5601C61.6189 14.5259 61.5169 14.5079 61.4149 14.4899C61.3316 14.4751 61.2482 14.4604 61.1872 14.4369C61.0275 14.3752 60.871 14.2763 60.7281 14.1842C60.7089 14.1718 60.6878 14.1585 60.6653 14.1443C60.4702 14.021 60.1725 13.8329 60.0983 13.6407C59.9889 13.6363 59.8964 13.6052 59.8042 13.5742C59.7033 13.5403 59.6027 13.5065 59.4809 13.5081C59.3896 13.5093 59.3118 13.5284 59.2342 13.5475C59.134 13.5721 59.0344 13.5966 58.907 13.5822C58.826 13.5732 58.7426 13.5417 58.6576 13.5095C58.5346 13.463 58.4084 13.4153 58.2822 13.4329C58.1844 13.4466 58.0544 13.538 57.9425 13.6166C57.8915 13.6525 57.8442 13.6858 57.8056 13.7077C57.4802 13.8916 57.1337 14.0251 56.7736 14.0925C56.2161 14.1972 56.116 13.9836 56.1489 13.4664L56.0655 13.2994C56.2503 12.7849 55.9736 12.697 55.6202 12.5847C55.5773 12.571 55.5332 12.557 55.4886 12.5418C55.4637 12.3616 55.5467 12.204 55.6299 12.0459C55.7366 11.8433 55.8437 11.6398 55.7252 11.3866C55.5444 11.3773 55.3567 11.5881 55.1729 11.7944C54.9231 12.0749 54.6805 12.3472 54.4726 12.047C54.4352 11.993 54.4126 11.9237 54.4019 11.8442C54.7185 11.12 55.1179 10.4404 55.5881 9.81753C55.7981 9.69312 56.004 9.59983 56.1467 9.58185C56.4283 9.54672 56.6746 9.67065 56.7828 9.91798C56.8516 10.0753 56.8279 10.2273 56.803 10.3874C56.7852 10.5018 56.7667 10.6203 56.7809 10.7477C57.0971 10.6743 57.0635 10.3111 57.04 10.0573C57.0367 10.0224 57.0337 9.98949 57.0318 9.95973C57.0144 9.68731 57.103 9.60915 57.2258 9.50091C57.288 9.446 57.3591 9.38334 57.4295 9.28365C57.5127 9.16576 57.5651 9.04061 57.6177 8.91529C57.6853 8.75391 57.753 8.59227 57.8867 8.44552C58.0716 8.2423 58.2887 8.02827 58.4915 7.84115C58.6231 7.71973 58.7641 7.67359 58.9051 7.62751C59.0121 7.59251 59.119 7.55755 59.2215 7.48967C59.3867 7.38014 59.3763 7.22762 59.3674 7.09762C59.3568 6.94361 59.3485 6.82122 59.6369 6.83939C59.7174 6.84444 59.7467 6.86874 59.773 6.89061C59.8086 6.92015 59.8389 6.94525 59.9828 6.91241C60.0562 6.8956 60.1725 6.84346 60.2742 6.7979C60.3198 6.77747 60.3624 6.75835 60.3969 6.74435C60.7658 6.59401 60.6766 6.52372 60.5108 6.39323C60.4876 6.37501 60.463 6.35562 60.4379 6.33467C60.7073 6.24558 60.9817 6.16763 61.2606 6.10137C61.2882 6.14103 61.3315 6.16671 61.4383 6.16306C61.6057 6.15739 61.6744 6.09516 61.6884 6.00967C62.3005 5.89247 62.9324 5.83113 63.5786 5.83113C65.1932 5.83113 66.7186 6.21415 68.0692 6.89448C68.1471 7.35144 68.6575 7.69992 69.1339 7.53031C69.1386 7.52865 69.1431 7.52695 69.1476 7.52521C69.33 7.64773 69.5081 7.7761 69.6817 7.91004C69.4589 8.01724 69.2591 8.13249 69.1218 8.21168L69.1109 8.21795C69.0753 8.2385 69.0389 8.2533 69.0034 8.26775C68.9261 8.29924 68.8528 8.32908 68.7998 8.41328C68.7239 8.53376 68.7525 8.60298 68.783 8.67696C68.8058 8.73227 68.8297 8.79024 68.8119 8.87428C68.7782 9.03381 68.6455 9.14441 68.517 9.25151C68.4196 9.3327 68.3246 9.41187 68.277 9.50882C68.1265 9.81527 68.2349 10.1968 68.3435 10.579C68.4263 10.8701 68.5092 11.1617 68.4778 11.4209C68.4617 11.5541 68.3946 11.6918 68.3288 11.827C68.2303 12.0292 68.1346 12.2256 68.217 12.3925C68.2461 12.4514 68.3108 12.506 68.3784 12.5631C68.4483 12.6222 68.5213 12.6838 68.5614 12.7557C68.5917 12.8098 68.6146 12.8711 68.6381 12.9338C68.6703 13.0198 68.7036 13.1086 68.7582 13.1855C69.0264 13.5632 69.3975 13.9781 69.7265 14.346C69.7733 14.3982 69.8191 14.4495 69.8638 14.4997C70.0678 14.7285 70.3452 14.7926 70.6528 14.729C70.9067 14.6767 71.2922 14.5914 71.5275 14.4784C71.6273 14.4306 71.6997 14.3765 71.7625 14.3295C71.8975 14.2285 71.9884 14.1605 72.2139 14.2586C72.2841 14.2892 72.3522 14.3356 72.42 14.3819C72.6059 14.5088 72.7903 14.6346 73.0152 14.4308C73.2015 14.6133 73.0986 14.8955 73.0088 15.1418C72.9766 15.2301 72.9461 15.3138 72.9312 15.3866C72.8587 15.7407 72.9985 16.0479 73.2156 16.3489C73.2251 16.3621 73.2343 16.3749 73.2433 16.3873C73.4802 16.7151 73.5352 16.7911 73.4839 17.2559C73.4531 17.5348 73.3927 17.796 73.3307 18.0643C73.3091 18.1577 73.2873 18.252 73.2664 18.3483C73.236 18.4891 73.1821 18.6166 73.1289 18.7426C73.0482 18.9336 72.9689 19.1213 72.9747 19.3469ZM54.0289 12.8385C53.7273 13.7945 53.5647 14.8123 53.5647 15.8682C53.5647 20.0436 56.1083 23.6235 59.7271 25.136C59.6796 24.9232 59.6373 24.7078 59.6055 24.4872C59.5674 24.2224 59.501 23.9753 59.4347 23.7281C59.3328 23.3487 59.2309 22.9692 59.2309 22.5252C59.2309 22.4829 59.2311 22.4408 59.2312 22.3989C59.2331 21.748 59.2348 21.153 58.7719 20.6884C58.6316 20.5475 58.47 20.4365 58.3107 20.327C58.0434 20.1432 57.7822 19.9637 57.6378 19.6549C57.5488 19.4646 57.5357 19.2879 57.522 19.1044C57.513 18.9833 57.5038 18.8592 57.4724 18.7262C57.4063 18.4461 57.2239 18.3256 57.0231 18.1929C56.9647 18.1543 56.9047 18.1147 56.8455 18.0698C56.3344 17.6815 56.3652 16.8873 56.5736 16.3467C56.6093 16.2541 56.6862 16.1173 56.7757 15.9579C57.0432 15.482 57.4239 14.8046 57.1608 14.4976C57.0329 14.3484 56.8449 14.4078 56.667 14.464C56.5526 14.5002 56.4423 14.535 56.355 14.5121C56.261 14.4873 56.1221 14.3794 55.995 14.2807C55.914 14.2178 55.8378 14.1587 55.7811 14.1271C55.7377 13.7538 55.534 13.698 55.198 13.6262C55.0165 13.2051 54.8356 13.0076 54.3995 12.9561C54.2377 12.9371 54.1215 12.897 54.0289 12.8385Z" fill="#30325E"/>
<path d="M14.233 30.2539C11.3095 30.2539 8.78342 29.6762 6.65489 28.5208C4.52635 27.3397 2.88507 25.6965 1.73104 23.5911C0.577013 21.46 0 18.9694 0 16.1194C0 13.2694 0.577013 10.7789 1.73104 8.64783C2.88507 6.49107 4.48788 4.80931 6.53948 3.60255C8.59109 2.37012 10.9761 1.75391 13.6944 1.75391C15.8999 1.75391 17.8746 2.16472 19.6185 2.98634C21.388 3.78228 22.8113 4.88634 23.8884 6.2985C24.9911 7.68499 25.6579 9.30256 25.8887 11.1512H20.8879C20.6314 9.50796 19.8621 8.21134 18.5798 7.26134C17.2976 6.31134 15.6948 5.83634 13.7714 5.83634C12.0275 5.83634 10.5016 6.24715 9.19374 7.06877C7.88585 7.89039 6.87287 9.05864 6.15481 10.5735C5.43675 12.0884 5.07772 13.8985 5.07772 16.0039C5.07772 18.1607 5.43675 20.0093 6.15481 21.5499C6.89851 23.0647 7.96278 24.2201 9.34761 25.0161C10.7581 25.812 12.4763 26.21 14.5023 26.21C16.0666 26.21 17.413 26.0174 18.5414 25.6323C19.6697 25.2215 20.5801 24.6181 21.2726 23.8222L26.081 25.7093C24.6192 27.1985 22.9267 28.3282 21.0033 29.0985C19.0799 29.8688 16.8231 30.2539 14.233 30.2539ZM21.0802 25.7093V17.6215L22.2727 18.8154H14.4638V14.887H26.081V25.7093H21.0802Z" fill="#30325E"/>
<path d="M30.3383 29.8688V2.13904H35.3391V29.8688H30.3383ZM32.7233 29.8688V25.9019H48.9566V29.8688H32.7233Z" fill="#30325E"/>
<path d="M85.1263 29.8688V26.1715H92.8583C94.2687 26.1715 95.3587 25.7863 96.128 25.0161C96.8973 24.2201 97.282 23.1417 97.282 21.7809C97.282 20.3688 96.8717 19.2519 96.0511 18.4303C95.2304 17.6086 94.0892 17.1978 92.6274 17.1978H85.1263V13.5005H92.2812C93.6661 13.5005 94.7303 13.1667 95.4741 12.4992C96.2178 11.8316 96.5896 10.8688 96.5896 9.61066C96.5896 8.37823 96.2306 7.44107 95.5125 6.79918C94.8201 6.15729 93.7943 5.83634 92.4351 5.83634H85.1263V2.13904H93.3583C95.8459 2.13904 97.8334 2.7681 99.3208 4.0262C100.834 5.25864 101.59 6.94039 101.59 9.07147C101.59 10.4066 101.27 11.5749 100.629 12.5762C100.013 13.5519 99.1798 14.3093 98.1283 14.8485C97.0769 15.3877 95.8844 15.6573 94.5508 15.6573L94.7432 14.8485C96.1536 14.8485 97.4359 15.1694 98.5899 15.8113C99.7439 16.4276 100.654 17.3005 101.321 18.4303C102.014 19.56 102.36 20.8694 102.36 22.3586C102.36 23.8735 102.001 25.1958 101.283 26.3255C100.59 27.4553 99.6029 28.3282 98.3206 28.9444C97.064 29.5607 95.5766 29.8688 93.8584 29.8688H85.1263ZM81.2026 29.8688V2.13904H86.2034V29.8688H81.2026Z" fill="#30325E"/>
<path d="M103.862 29.8688L114.056 2.13904H118.364L108.786 29.8688H103.862ZM124.75 29.8688L115.21 2.13904H119.749L129.904 29.8688H124.75ZM109.132 18.9694H124.288V22.9749H109.132V18.9694Z" fill="#30325E"/>
<path d="M133.382 29.8688V2.13904H138.382V29.8688H133.382ZM135.767 29.8688V25.9019H152V29.8688H135.767Z" fill="#30325E"/>
<path d="M13.4173 62.7399C9.79873 62.7399 6.91183 61.9474 4.75664 60.3625C2.62805 58.7521 1.37751 56.4898 1.005 53.5756H5.99388C6.23334 55.2628 7.01826 56.5793 8.34863 57.5251C9.67899 58.4453 11.4218 58.9055 13.577 58.9055C15.3597 58.9055 16.7166 58.5987 17.6479 57.9852C18.6057 57.3461 19.0847 56.4642 19.0847 55.3395C19.0847 54.3425 18.792 53.5373 18.2066 52.9238C17.6213 52.3103 16.6368 51.8118 15.2532 51.4284L10.0648 49.9329C7.43067 49.1661 5.48834 48.1563 4.23779 46.9038C3.01386 45.6512 2.40189 44.0791 2.40189 42.1874C2.40189 40.6025 2.82761 39.2222 3.67904 38.0463C4.53048 36.8704 5.7278 35.9629 7.27103 35.3238C8.84086 34.6848 10.6635 34.3652 12.7388 34.3652C15.9317 34.3652 18.4727 35.1193 20.3618 36.6275C22.2776 38.1102 23.3685 40.1296 23.6345 42.6859H18.6457C18.353 41.1521 17.6878 40.0274 16.6501 39.3116C15.6124 38.5703 14.2155 38.1996 12.4595 38.1996C10.9162 38.1996 9.6923 38.4936 8.78765 39.0816C7.883 39.6695 7.43067 40.4747 7.43067 41.4972C7.43067 42.3408 7.69675 43.0566 8.22889 43.6445C8.78765 44.2325 9.81203 44.7437 11.302 45.1783L16.5703 46.712C19.2044 47.4534 21.1201 48.4631 22.3175 49.7412C23.5148 51.0194 24.1135 52.6426 24.1135 54.6109C24.1135 57.2183 23.1689 59.225 21.2798 60.631C19.4173 62.0369 16.7965 62.7399 13.4173 62.7399Z" fill="#30325E"/>
<path d="M40.8249 62.7782C38.7762 62.7782 36.8871 62.4331 35.1576 61.7429C33.4547 61.0272 31.9647 60.0302 30.6875 58.7521C29.4104 57.474 28.4259 55.9658 27.7341 54.2275C27.0424 52.4892 26.6965 50.5848 26.6965 48.5142C26.6965 46.4436 27.0424 44.552 27.7341 42.8393C28.4259 41.1266 29.3971 39.6439 30.6476 38.3914C31.9248 37.1132 33.4148 36.1291 35.1177 35.4389C36.8471 34.7487 38.7496 34.4036 40.8249 34.4036C43.1132 34.4036 45.1752 34.8381 47.0111 35.7073C48.847 36.5764 50.3504 37.8034 51.5211 39.3883C52.7184 40.9476 53.4501 42.7882 53.7162 44.9099H48.6076C48.2883 42.8393 47.4236 41.2544 46.0134 40.1552C44.6032 39.0304 42.887 38.4681 40.8649 38.4681C39.0822 38.4681 37.5256 38.8771 36.1953 39.6951C34.8649 40.5131 33.8272 41.6762 33.0822 43.1844C32.3372 44.667 31.9647 46.4308 31.9647 48.4759C31.9647 50.572 32.3372 52.387 33.0822 53.9207C33.8272 55.4289 34.8782 56.6048 36.2352 57.4484C37.5921 58.292 39.1487 58.7137 40.9048 58.7137C42.8737 58.7137 44.5633 58.1641 45.9735 57.065C47.3837 55.9402 48.275 54.3553 48.6475 52.3103H53.796C53.4767 54.4064 52.7184 56.2469 51.5211 57.8318C50.3504 59.4167 48.847 60.6437 47.0111 61.5129C45.1752 62.3564 43.1132 62.7782 40.8249 62.7782Z" fill="#30325E"/>
<path d="M57.3518 62.3948V34.787H69.4848C71.5335 34.787 73.3162 35.1193 74.8328 35.784C76.3495 36.4486 77.5069 37.3816 78.3051 38.5831C79.1299 39.7845 79.5423 41.1905 79.5423 42.8009C79.5423 44.3858 79.1299 45.779 78.3051 46.9804C77.5069 48.1819 76.3495 49.1149 74.8328 49.7796C73.3162 50.4442 71.5335 50.7765 69.4848 50.7765H61.4227V46.9804H69.3251C71.0014 46.9804 72.2785 46.6098 73.1566 45.8685C74.0612 45.1271 74.5136 44.1046 74.5136 42.8009C74.5136 41.4972 74.0745 40.5003 73.1965 39.8101C72.3184 39.0943 71.028 38.7365 69.3251 38.7365H62.5403V62.3948H57.3518ZM73.7952 62.3948L60.9837 48.2841H66.8107L80.9791 62.3948H73.7952Z" fill="#30325E"/>
<path d="M108.566 62.3948V58.7137H116.588C118.051 58.7137 119.182 58.3303 119.98 57.5634C120.778 56.771 121.178 55.6973 121.178 54.3425C121.178 52.9366 120.752 51.8246 119.9 51.0066C119.049 50.1886 117.865 49.7796 116.348 49.7796H108.566V46.0985H115.989C117.426 46.0985 118.53 45.7662 119.302 45.1016C120.073 44.437 120.459 43.4784 120.459 42.2258C120.459 40.9988 120.087 40.0657 119.342 39.4267C118.623 38.7876 117.559 38.4681 116.149 38.4681H108.566V34.787H117.107C119.688 34.787 121.75 35.4133 123.293 36.6659C124.863 37.8929 125.648 39.5673 125.648 41.689C125.648 43.0182 125.315 44.1813 124.65 45.1783C124.011 46.1497 123.146 46.9038 122.056 47.4406C120.965 47.9774 119.727 48.2458 118.344 48.2458L118.543 47.4406C120.007 47.4406 121.337 47.7601 122.535 48.3992C123.732 49.0127 124.676 49.8818 125.368 51.0066C126.087 52.1313 126.446 53.435 126.446 54.9177C126.446 56.4259 126.073 57.7424 125.328 58.8671C124.61 59.9919 123.586 60.861 122.255 61.4745C120.951 62.088 119.408 62.3948 117.625 62.3948H108.566ZM104.495 62.3948V34.787H109.683V62.3948H104.495Z" fill="#30325E"/>
<path d="M130.219 62.3948V34.787H135.407V62.3948H130.219ZM132.693 62.3948V58.4453H150.893V62.3948H132.693ZM132.693 50.1247V46.2519H149.496V50.1247H132.693ZM132.693 38.7365V34.787H150.453V38.7365H132.693Z" fill="#30325E"/>
<path d="M91.9467 64.994C95.8298 64.994 98.9777 64.2652 98.9777 63.3662C98.9777 62.4671 95.8298 61.7383 91.9467 61.7383C88.0635 61.7383 84.9156 62.4671 84.9156 63.3662C84.9156 64.2652 88.0635 64.994 91.9467 64.994Z" fill="#E4E4E7"/>
<path d="M88.3124 38.9258L91.5067 43.1139L91.446 51.203H91.054C91.0457 51.0566 91.0291 50.9185 91.0043 50.7833C90.7834 49.5835 89.9551 48.778 89.9551 48.778C88.351 47.0852 87.8679 45.3362 87.7243 44.4405C87.7243 44.4349 87.7216 44.4293 87.7216 44.4264C87.6691 44.0941 87.6636 43.88 87.6608 43.835V43.8237L90.4245 45.4263L88.2893 43.2977C87.8506 42.8604 87.6432 42.2387 87.7168 41.6176C87.8281 40.6782 88.0427 39.7739 88.3124 38.9258Z" fill="#30325E"/>
<path d="M95.7025 40.6585L91.9395 43.4882L91.8566 32.9648C91.8566 32.9648 92.7482 33.9759 93.6975 35.5971C93.9753 36.0716 94.0078 36.6454 93.7793 37.1439L93.0881 38.6519L94.3396 36.7867C94.5111 37.1304 94.6796 37.4907 94.8368 37.8648L93.0538 40.6585L95.2282 38.9097C95.4197 39.4695 95.5825 40.0543 95.7025 40.6585Z" fill="#30325E"/>
<path d="M91.5071 32.9648L91.4367 42.4358L88.3604 38.4682C88.5605 37.9093 88.922 37.1416 89.0885 36.7973L90.3083 38.6666L89.6356 37.157C89.4128 36.6571 89.4444 36.0816 89.715 35.6058C90.6405 33.9786 91.5071 32.9648 91.5071 32.9648Z" fill="#30325E"/>
<path d="M93.2807 45.5615L96.0523 43.9979V44.0062C96.0496 44.053 96.044 44.2594 95.9914 44.5843C95.9914 44.5898 95.9886 44.5898 95.9859 44.598C95.9499 44.8155 95.8917 45.088 95.8031 45.3963C95.5318 46.3267 94.9586 47.5958 93.7514 48.8372C93.7514 48.8372 92.9208 49.6245 92.6993 50.7944V50.7972C92.6743 50.9321 92.655 51.0669 92.6494 51.2046H92.2563L92.2064 44.2512L95.9305 41.3828C95.9333 41.4021 95.936 41.4241 95.9388 41.4461C95.9554 41.537 95.9665 41.6278 95.9776 41.7187C95.9914 41.8068 96.0025 41.8948 96.0108 41.9829C96.0246 42.1096 96.0385 42.2389 96.0468 42.3656C96.0469 42.3672 96.047 42.3687 96.0472 42.3703C96.0729 42.6689 95.9562 42.9622 95.7407 43.1716L93.2807 45.5615Z" fill="#30325E"/>
<path d="M96.339 56.8644L94.2762 53.5933V52.1179H94.7459C94.9833 52.1179 95.1757 51.9265 95.1757 51.6904V50.2283C95.1757 49.9922 94.9833 49.8008 94.7459 49.8008H89.1476C88.9102 49.8008 88.7178 49.9922 88.7178 50.2283V51.6904C88.7178 51.9265 88.9102 52.1179 89.1476 52.1179H89.6173V53.5933L87.5545 56.8644C87.3931 57.1204 87.4026 57.4479 87.5786 57.6942L91.3347 62.9501C91.4095 63.0547 91.5046 63.1332 91.6098 63.1856V57.3982C91.4059 57.2815 91.267 57.0651 91.267 56.8142C91.267 56.4408 91.5714 56.1382 91.9468 56.1382C92.3222 56.1382 92.6265 56.4408 92.6265 56.8142C92.6265 57.0651 92.4876 57.2815 92.2837 57.3982V63.1856C92.389 63.1332 92.4841 63.0547 92.5588 62.9501L96.3149 57.6942C96.4909 57.4479 96.5004 57.1204 96.339 56.8644Z" fill="#30325E"/>
</svg>
