<svg width="33" height="33" viewBox="0 0 33 33" fill="none" xmlns="http://www.w3.org/2000/svg">
<g clip-path="url(#clip0_6295_6432)">
<path d="M16.5 33C25.6127 33 33 25.6127 33 16.5C33 7.3873 25.6127 0 16.5 0C7.3873 0 0 7.3873 0 16.5C0 25.6127 7.3873 33 16.5 33Z" fill="#F0F0F0"/>
<path d="M16.5 12.196H32.4316C32.0179 10.6611 31.3891 9.2147 30.5782 7.8916H16.5V12.196Z" fill="#338AF3"/>
<path d="M6.22906 29.4128H26.7711C28.2769 28.2134 29.5683 26.7567 30.5783 25.1084H2.42188C3.43192 26.7566 4.7233 28.2134 6.22906 29.4128Z" fill="#338AF3"/>
<path d="M5.73921 3.99219C4.44203 5.10922 3.32061 6.42465 2.42188 7.89134H5.73921V3.99219Z" fill="#338AF3"/>
<path d="M16.5 16.4997C16.5 14.819 16.5 13.4124 16.5 12.1953H10.0435V16.4997H5.7391V12.1953H0.568412C0.198516 13.5678 0 15.0104 0 16.4997C0 17.989 0.198516 19.4316 0.568412 20.8041H32.4317C32.8015 19.4316 33 17.989 33 16.4997H16.5Z" fill="#338AF3"/>
<path d="M16.5005 0C14.2092 0 12.0272 0.467478 10.0439 1.31149V7.89132H16.5005C16.5005 6.38879 16.5005 5.11088 16.5005 3.58695H26.7715C23.9529 1.34217 20.3837 0 16.5005 0Z" fill="#338AF3"/>
</g>
<defs>
<clipPath id="clip0_6295_6432">
<rect width="33" height="33" fill="white"/>
</clipPath>
</defs>
</svg>
