<svg width="24" height="25" viewBox="0 0 24 25" fill="none" xmlns="http://www.w3.org/2000/svg">
<path d="M17.3691 5.72461C17.7619 5.40426 18.3409 5.42685 18.707 5.79297L18.7754 5.86914C19.0744 6.23573 19.0744 6.76427 18.7754 7.13086L18.707 7.20703L13.4141 12.5L18.707 17.793L18.7754 17.8691C19.0744 18.2357 19.0744 18.7643 18.7754 19.1309L18.707 19.207C18.3409 19.5731 17.7619 19.5957 17.3691 19.2754L17.293 19.207L12 13.9141L6.70703 19.207C6.34092 19.5731 5.76191 19.5957 5.36914 19.2754L5.29297 19.207C4.90244 18.8165 4.90244 18.1835 5.29297 17.793L10.5859 12.5L5.29297 7.20703C4.90244 6.81651 4.90244 6.18349 5.29297 5.79297L5.36914 5.72461C5.76191 5.40426 6.34092 5.42685 6.70703 5.79297L12 11.0859L17.293 5.79297L17.3691 5.72461Z" fill="#30325E" stroke="#30325E" stroke-width="0.5" stroke-linecap="round" stroke-linejoin="round"/>
</svg>
