<svg width="111" height="48" viewBox="0 0 111 48" fill="none" xmlns="http://www.w3.org/2000/svg">
<path fill-rule="evenodd" clip-rule="evenodd" d="M56.6536 11.6881C56.6536 17.4281 52.0627 22.0812 46.3995 22.0812C40.7364 22.0812 36.1455 17.4281 36.1455 11.6881C36.1455 5.9481 40.7364 1.29492 46.3995 1.29492C52.0627 1.29492 56.6536 5.9481 56.6536 11.6881ZM53.2907 14.2867C52.26 17.114 49.5768 19.1298 46.4291 19.1298C45.7757 19.1298 45.1424 19.0429 44.5397 18.88C44.5705 18.7959 44.6194 18.7098 44.6919 18.6134C44.7317 18.5606 44.7791 18.5125 44.8267 18.4641C44.8721 18.4181 44.9176 18.3719 44.9567 18.3215C45.0538 18.1962 45.0437 18.1724 45.0209 18.1186C45.0072 18.0863 44.9889 18.0432 44.9864 17.9608C44.9809 17.7796 45.015 17.7769 45.0858 17.7712C45.1221 17.7683 45.1681 17.7647 45.2235 17.7357C45.284 17.704 45.3492 17.6264 45.4052 17.5598C45.4275 17.5333 45.4484 17.5085 45.4668 17.4891C45.5096 17.4441 45.5592 17.3964 45.6107 17.347C45.7311 17.2314 45.8618 17.1058 45.9388 16.981C46.0004 16.8814 46.0275 16.7622 46.0549 16.6421C46.0825 16.5208 46.1103 16.3986 46.174 16.2946C46.2659 16.1449 46.3819 16.0895 46.5061 16.0302C46.5788 15.9955 46.6544 15.9594 46.7296 15.9022C46.9155 15.7609 46.9164 15.6144 46.9175 15.4439C46.918 15.3724 46.9185 15.2968 46.9327 15.2155C47.0132 14.7556 47.2186 14.2486 47.5047 13.8823C47.8647 13.4212 48.0194 13.0294 47.5813 12.5868C47.4279 12.4317 47.3266 12.4159 47.1783 12.3927C47.1173 12.3831 47.0485 12.3724 46.9649 12.3502C46.8689 12.3247 46.7771 12.2792 46.6854 12.2338C46.5681 12.1757 46.4511 12.1177 46.326 12.1021C46.2653 12.0946 46.2158 12.1005 46.1685 12.1062C46.1118 12.1131 46.0581 12.1196 45.9916 12.102C45.9411 12.0886 45.9157 12.0672 45.8926 12.0477C45.8638 12.0234 45.8384 12.002 45.7719 12.0028C45.7054 12.0036 45.629 12.0563 45.5516 12.1099C45.4209 12.2002 45.2871 12.2927 45.1924 12.1412C45.1451 12.0655 45.2051 11.9149 45.2647 11.7655C45.311 11.6492 45.357 11.5336 45.352 11.4547C45.3377 11.2335 45.2564 10.8729 45.0425 10.7518C44.998 10.7266 44.9235 10.7133 44.8491 10.6999C44.7882 10.6891 44.7273 10.6782 44.6828 10.6608C44.5661 10.6152 44.4519 10.5422 44.3475 10.4742C44.3335 10.4651 44.3181 10.4552 44.3017 10.4447C44.1592 10.3537 43.9418 10.2148 43.8876 10.0728C43.8077 10.0696 43.7402 10.0466 43.6729 10.0238C43.5991 9.99871 43.5257 9.97375 43.4367 9.97495C43.3701 9.97584 43.3132 9.98996 43.2566 10.004C43.1834 10.0222 43.1106 10.0403 43.0176 10.0297C42.9585 10.023 42.8976 9.99972 42.8355 9.97599C42.7457 9.94166 42.6535 9.90645 42.5614 9.91939C42.49 9.92951 42.395 9.99703 42.3133 10.0551C42.276 10.0816 42.2415 10.1061 42.2133 10.1223C41.9757 10.2582 41.7227 10.3567 41.4597 10.4065C41.0526 10.4838 40.9795 10.3261 41.0035 9.94414L40.9426 9.82085C41.0775 9.44089 40.8755 9.37596 40.6174 9.29303C40.5861 9.28295 40.5539 9.2726 40.5213 9.26139C40.5031 9.12833 40.5637 9.01194 40.6245 8.89514C40.7024 8.74553 40.7806 8.59524 40.6941 8.40832C40.5621 8.40144 40.425 8.55708 40.2908 8.70944C40.1083 8.91659 39.9312 9.11766 39.7794 8.89596C39.7521 8.85607 39.7356 8.80493 39.7277 8.74622C39.9589 8.2114 40.2506 7.70957 40.594 7.2496C40.7473 7.15772 40.8977 7.08883 41.0019 7.07556C41.2075 7.04961 41.3874 7.14113 41.4664 7.32377C41.5167 7.43993 41.4994 7.55221 41.4811 7.67041C41.4681 7.75488 41.4546 7.84238 41.465 7.93647C41.6959 7.88229 41.6714 7.6141 41.6542 7.42668C41.6518 7.40086 41.6496 7.37658 41.6482 7.35461C41.6355 7.15344 41.7003 7.09571 41.7899 7.01579C41.8354 6.97523 41.8872 6.92897 41.9387 6.85535C41.9994 6.76829 42.0377 6.67587 42.0761 6.58333C42.1255 6.46416 42.1749 6.34479 42.2725 6.23642C42.4076 6.08635 42.5661 5.9283 42.7142 5.79012C42.8103 5.70045 42.9133 5.66638 43.0162 5.63235C43.0944 5.60651 43.1724 5.58069 43.2473 5.53056C43.368 5.44968 43.3603 5.33705 43.3538 5.24105C43.3461 5.12732 43.34 5.03694 43.5507 5.05035C43.6095 5.05409 43.6308 5.07203 43.6501 5.08818C43.6761 5.11 43.6981 5.12853 43.8033 5.10428C43.8568 5.09187 43.9418 5.05336 44.016 5.01972C44.0493 5.00463 44.0805 4.99051 44.1056 4.98017C44.3751 4.86915 44.3099 4.81725 44.1888 4.72088C44.1719 4.70743 44.1539 4.69311 44.1356 4.67764C44.3323 4.61185 44.5327 4.55429 44.7364 4.50536C44.7566 4.53464 44.7882 4.55361 44.8661 4.55092C44.9884 4.54673 45.0386 4.50077 45.0488 4.43764C45.4958 4.35109 45.9572 4.30579 46.4291 4.30579C47.6082 4.30579 48.7221 4.58864 49.7084 5.09104C49.7654 5.42848 50.1381 5.68582 50.486 5.56057C50.4894 5.55935 50.4927 5.55809 50.496 5.55681C50.6291 5.64729 50.7592 5.74208 50.886 5.841C50.7233 5.92015 50.5774 6.00526 50.4771 6.06374L50.4692 6.06837C50.4432 6.08355 50.4166 6.09447 50.3907 6.10515C50.3342 6.1284 50.2807 6.15043 50.242 6.21262C50.1866 6.30158 50.2074 6.3527 50.2297 6.40733C50.2464 6.44817 50.2638 6.49098 50.2508 6.55304C50.2262 6.67085 50.1293 6.75253 50.0355 6.83161C49.9643 6.89157 49.895 6.95003 49.8602 7.02163C49.7503 7.24793 49.8295 7.52964 49.9088 7.8119C49.9692 8.0269 50.0297 8.24222 50.0068 8.4336C49.9951 8.532 49.9461 8.63371 49.898 8.7335C49.8261 8.88285 49.7562 9.02789 49.8164 9.15109C49.8376 9.19462 49.8849 9.23495 49.9342 9.27712C49.9853 9.32071 50.0386 9.36626 50.0679 9.41931C50.09 9.45928 50.1067 9.50451 50.1239 9.55083C50.1474 9.61434 50.1717 9.6799 50.2116 9.73673C50.4075 10.0156 50.6784 10.322 50.9187 10.5937C50.9529 10.6323 50.9864 10.6702 51.019 10.7072C51.168 10.8762 51.3705 10.9235 51.5952 10.8766C51.7806 10.8379 52.0621 10.7749 52.2339 10.6915C52.3068 10.6562 52.3597 10.6162 52.4055 10.5815C52.5041 10.5069 52.5705 10.4567 52.7352 10.5291C52.7865 10.5517 52.8361 10.586 52.8857 10.6202C53.0215 10.7139 53.1561 10.8068 53.3203 10.6563C53.4564 10.7911 53.3813 10.9995 53.3157 11.1814C53.2921 11.2466 53.2699 11.3084 53.259 11.3622C53.2061 11.6237 53.3081 11.8505 53.4667 12.0728C53.4736 12.0825 53.4804 12.092 53.4869 12.1012C53.6599 12.3432 53.7 12.3993 53.6626 12.7425C53.6401 12.9485 53.596 13.1414 53.5507 13.3395C53.5349 13.4085 53.519 13.4782 53.5038 13.5492C53.4815 13.6532 53.4422 13.7474 53.4033 13.8404C53.3444 13.9815 53.2865 14.1201 53.2907 14.2867ZM39.4554 9.48048C39.2351 10.1864 39.1163 10.938 39.1163 11.7178C39.1163 14.8011 40.9739 17.4448 43.6166 18.5617C43.5818 18.4046 43.551 18.2455 43.5277 18.0826C43.4999 17.887 43.4514 17.7046 43.403 17.522C43.3286 17.2419 43.2542 16.9616 43.2542 16.6337C43.2542 16.6025 43.2543 16.5714 43.2544 16.5404C43.2558 16.0598 43.257 15.6204 42.919 15.2773C42.8165 15.1733 42.6985 15.0913 42.5822 15.0104C42.387 14.8747 42.1963 14.7422 42.0908 14.5141C42.0258 14.3736 42.0162 14.2431 42.0063 14.1076C41.9997 14.0181 41.993 13.9265 41.97 13.8283C41.9217 13.6214 41.7886 13.5325 41.6419 13.4345C41.5992 13.406 41.5554 13.3767 41.5122 13.3436C41.139 13.0569 41.1614 12.4704 41.3136 12.0712C41.3397 12.0027 41.3958 11.9017 41.4613 11.784C41.6566 11.4326 41.9346 10.9323 41.7425 10.7057C41.6491 10.5955 41.5117 10.6393 41.3818 10.6809C41.2983 10.7076 41.2178 10.7333 41.154 10.7164C41.0854 10.698 40.9839 10.6184 40.8911 10.5455C40.832 10.499 40.7763 10.4554 40.7349 10.4321C40.7032 10.1564 40.5545 10.1151 40.3091 10.0622C40.1765 9.7512 40.0444 9.60533 39.726 9.56734C39.6078 9.55326 39.523 9.52369 39.4554 9.48048Z" fill="#30325E"/>
<path d="M10.3938 22.3411C8.25888 22.3411 6.41421 21.9145 4.85982 21.0612C3.30543 20.1891 2.10686 18.9756 1.26411 17.4208C0.421371 15.8471 0 14.0079 0 11.9033C0 9.79871 0.421371 7.95954 1.26411 6.38582C2.10686 4.79313 3.27733 3.55122 4.77554 2.66008C6.27375 1.74997 8.01542 1.29492 10.0006 1.29492C11.6111 1.29492 13.0532 1.59829 14.3266 2.20503C15.6188 2.7928 16.6582 3.6081 17.4448 4.65093C18.2501 5.6748 18.737 6.86931 18.9055 8.23446H15.2536C15.0664 7.02099 14.5045 6.06349 13.5682 5.36195C12.6318 4.66041 11.4613 4.30964 10.0567 4.30964C8.78325 4.30964 7.66896 4.61301 6.71385 5.21975C5.75874 5.82648 5.019 6.68918 4.49463 7.80785C3.97026 8.92652 3.70807 10.2632 3.70807 11.818C3.70807 13.4107 3.97026 14.7758 4.49463 15.9135C5.03773 17.0321 5.81493 17.8854 6.82622 18.4731C7.85624 19.0609 9.11099 19.3548 10.5905 19.3548C11.7329 19.3548 12.7161 19.2126 13.5401 18.9282C14.3641 18.6248 15.0289 18.1792 15.5346 17.5915L19.046 18.9851C17.9785 20.0848 16.7425 20.919 15.3379 21.4879C13.9334 22.0567 12.2853 22.3411 10.3938 22.3411ZM15.3941 18.9851V13.0125L16.2649 13.8942H10.5624V10.9932H19.046V18.9851H15.3941Z" fill="#30325E"/>
<path d="M22.1549 22.0567V1.57933H25.8068V22.0567H22.1549ZM23.8966 22.0567V19.1273H35.7512V22.0567H23.8966Z" fill="#30325E"/>
<path d="M62.1646 22.0567V19.3264H67.811C68.841 19.3264 69.6369 19.042 70.1987 18.4731C70.7606 17.8854 71.0415 17.089 71.0415 16.0841C71.0415 15.0413 70.7418 14.2165 70.1426 13.6098C69.5433 13.003 68.7099 12.6997 67.6424 12.6997H62.1646V9.96935H67.3896C68.4009 9.96935 69.1781 9.72286 69.7212 9.22989C70.2643 8.73692 70.5358 8.0259 70.5358 7.09683C70.5358 6.18673 70.2736 5.49467 69.7493 5.02066C69.2436 4.54665 68.4945 4.30964 67.502 4.30964H62.1646V1.57933H68.1761C69.9927 1.57933 71.4441 2.04386 72.5303 2.97293C73.6353 3.88303 74.1877 5.12494 74.1877 6.69866C74.1877 7.68461 73.9536 8.54731 73.4854 9.28677C73.036 10.0073 72.4273 10.5666 71.6595 10.9648C70.8917 11.3629 70.0208 11.562 69.047 11.562L69.1874 10.9648C70.2175 10.9648 71.1538 11.2018 71.9966 11.6758C72.8393 12.1308 73.5042 12.7755 73.9911 13.6098C74.4967 14.444 74.7495 15.411 74.7495 16.5107C74.7495 17.6294 74.4874 18.6059 73.963 19.4401C73.4573 20.2744 72.7363 20.919 71.7999 21.3741C70.8823 21.8291 69.7961 22.0567 68.5413 22.0567H62.1646ZM59.2993 22.0567V1.57933H62.9511V22.0567H59.2993Z" fill="#30325E"/>
<path d="M75.8464 22.0567L83.2907 1.57933H86.4369L79.4421 22.0567H75.8464ZM91.1001 22.0567L84.1334 1.57933H87.4482L94.8643 22.0567H91.1001ZM79.6949 14.0079H90.763V16.9658H79.6949V14.0079Z" fill="#30325E"/>
<path d="M97.4037 22.0567V1.57933H101.056V22.0567H97.4037ZM99.1454 22.0567V19.1273H111V22.0567H99.1454Z" fill="#30325E"/>
<path d="M9.79814 46.3305C7.15562 46.3305 5.04742 45.7453 3.47357 44.575C1.91914 43.3857 1.00591 41.7151 0.733887 39.5631H4.37708C4.55195 40.809 5.12515 41.7812 6.09666 42.4796C7.06818 43.1592 8.34087 43.499 9.91473 43.499C11.2166 43.499 12.2075 43.2724 12.8876 42.8194C13.5871 42.3475 13.9368 41.6962 13.9368 40.8656C13.9368 40.1294 13.7231 39.5348 13.2956 39.0817C12.8681 38.6287 12.1492 38.2606 11.1388 37.9774L7.34992 36.8731C5.42632 36.3068 4.0079 35.5612 3.09467 34.6362C2.20088 33.7112 1.75398 32.5503 1.75398 31.1533C1.75398 29.983 2.06487 28.9636 2.68664 28.0953C3.30841 27.2269 4.18277 26.5568 5.30973 26.0848C6.45612 25.6129 7.7871 25.377 9.30267 25.377C11.6343 25.377 13.4899 25.9338 14.8695 27.0476C16.2684 28.1424 17.0651 29.6337 17.2594 31.5215H13.6162C13.4025 30.3888 12.9167 29.5582 12.1589 29.0297C11.4011 28.4822 10.3811 28.2085 9.09865 28.2085C7.97169 28.2085 7.0779 28.4256 6.41726 28.8598C5.75663 29.294 5.42632 29.8886 5.42632 30.6437C5.42632 31.2666 5.62062 31.7952 6.00923 32.2293C6.41726 32.6635 7.16533 33.0411 8.25343 33.362L12.1006 34.4946C14.0242 35.042 15.4232 35.7877 16.2976 36.7315C17.172 37.6754 17.6091 38.8741 17.6091 40.3276C17.6091 42.2531 16.9194 43.7349 15.5398 44.7732C14.1797 45.8114 12.2658 46.3305 9.79814 46.3305Z" fill="#30325E"/>
<path d="M29.8129 46.3589C28.3168 46.3589 26.9372 46.104 25.6743 45.5943C24.4307 45.0658 23.3426 44.3296 22.41 43.3857C21.4773 42.4419 20.7584 41.3281 20.2532 40.0445C19.748 38.7608 19.4954 37.3545 19.4954 35.8254C19.4954 34.2964 19.748 32.8995 20.2532 31.6347C20.7584 30.3699 21.4676 29.2751 22.3808 28.3501C23.3135 27.4062 24.4016 26.6795 25.6451 26.1698C26.9081 25.6601 28.2974 25.4053 29.8129 25.4053C31.4839 25.4053 32.9898 25.7262 34.3305 26.368C35.6712 27.0098 36.769 27.9159 37.6239 29.0863C38.4983 30.2378 39.0326 31.597 39.2269 33.1638H35.4963C35.2631 31.6347 34.6316 30.4643 33.6018 29.6526C32.572 28.822 31.3188 28.4067 29.8421 28.4067C28.5402 28.4067 27.4036 28.7088 26.432 29.3128C25.4605 29.9169 24.7027 30.7758 24.1587 31.8896C23.6146 32.9844 23.3426 34.2869 23.3426 35.7971C23.3426 37.345 23.6146 38.6853 24.1587 39.8179C24.7027 40.9317 25.4702 41.8 26.4612 42.423C27.4521 43.0459 28.5888 43.3574 29.8712 43.3574C31.3091 43.3574 32.5429 42.9515 33.5727 42.1398C34.6025 41.3092 35.2534 40.1388 35.5254 38.6287H39.2852C39.0521 40.1766 38.4983 41.5358 37.6239 42.7061C36.769 43.8765 35.6712 44.7826 34.3305 45.4244C32.9898 46.0474 31.4839 46.3589 29.8129 46.3589Z" fill="#30325E"/>
<path d="M41.8819 46.0757V25.6884H50.7421C52.2383 25.6884 53.5401 25.9338 54.6476 26.4246C55.7552 26.9154 56.6004 27.6045 57.1833 28.4917C57.7856 29.3789 58.0868 30.4171 58.0868 31.6064C58.0868 32.7768 57.7856 33.8056 57.1833 34.6928C56.6004 35.58 55.7552 36.269 54.6476 36.7598C53.5401 37.2507 52.2383 37.4961 50.7421 37.4961H44.8547V34.6928H50.6256C51.8497 34.6928 52.7823 34.4191 53.4235 33.8716C54.0842 33.3242 54.4145 32.5691 54.4145 31.6064C54.4145 30.6437 54.0939 29.9075 53.4527 29.3978C52.8115 28.8692 51.8691 28.6049 50.6256 28.6049H45.6708V46.0757H41.8819ZM53.8899 46.0757L44.5341 35.6555H48.7894L59.1361 46.0757H53.8899Z" fill="#30325E"/>
<path d="M79.2815 46.0757V43.3574H85.1397C86.2084 43.3574 87.0342 43.0742 87.6171 42.5079C88.2 41.9227 88.4915 41.1299 88.4915 40.1294C88.4915 39.0912 88.1806 38.27 87.5588 37.6659C86.937 37.0619 86.0724 36.7598 84.9649 36.7598H79.2815V34.0415H84.7025C85.7518 34.0415 86.5581 33.7961 87.1216 33.3053C87.6851 32.8145 87.9669 32.1066 87.9669 31.1817C87.9669 30.2756 87.6948 29.5865 87.1508 29.1146C86.6261 28.6427 85.8489 28.4067 84.8191 28.4067H79.2815V25.6884H85.5186C87.4034 25.6884 88.9092 26.1509 90.0362 27.0759C91.1826 27.982 91.7558 29.2184 91.7558 30.7852C91.7558 31.7669 91.5129 32.6258 91.0271 33.362C90.5608 34.0793 89.9293 34.6362 89.1327 35.0326C88.336 35.429 87.4325 35.6272 86.4221 35.6272L86.5679 35.0326C87.6365 35.0326 88.608 35.2686 89.4824 35.7405C90.3568 36.1935 91.0466 36.8354 91.5517 37.6659C92.0764 38.4965 92.3387 39.4593 92.3387 40.5541C92.3387 41.6679 92.0667 42.6401 91.5226 43.4707C90.998 44.3012 90.2499 44.9431 89.2784 45.3961C88.3263 45.8492 87.1993 46.0757 85.8975 46.0757H79.2815ZM76.3086 46.0757V25.6884H80.0976V46.0757H76.3086Z" fill="#30325E"/>
<path d="M95.0938 46.0757V25.6884H98.8828V46.0757H95.0938ZM96.9009 46.0757V43.1592H110.191V46.0757H96.9009ZM96.9009 37.0147V34.1548H109.171V37.0147H96.9009ZM96.9009 28.6049V25.6884H109.871V28.6049H96.9009Z" fill="#30325E"/>
<path d="M67.1452 47.9951C69.9809 47.9951 72.2797 47.4569 72.2797 46.7929C72.2797 46.129 69.9809 45.5908 67.1452 45.5908C64.3095 45.5908 62.0107 46.129 62.0107 46.7929C62.0107 47.4569 64.3095 47.9951 67.1452 47.9951Z" fill="#E4E4E7"/>
<path d="M64.4912 28.7451L66.8239 31.8379L66.7796 37.8114H66.4933C66.4872 37.7032 66.4751 37.6013 66.457 37.5015C66.2957 36.6154 65.6908 36.0206 65.6908 36.0206C64.5194 34.7706 64.1666 33.479 64.0618 32.8175C64.0618 32.8134 64.0597 32.8092 64.0597 32.8071C64.0214 32.5617 64.0174 32.4036 64.0154 32.3704V32.362L66.0336 33.5455L64.4743 31.9736C64.154 31.6507 64.0025 31.1916 64.0562 30.7329C64.1376 30.0392 64.2943 29.3714 64.4912 28.7451Z" fill="#30325E"/>
<path d="M69.8879 30.0242L67.1399 32.1138L67.0793 24.3428C67.0793 24.3428 67.7304 25.0894 68.4237 26.2866C68.6265 26.637 68.6503 27.0607 68.4834 27.4289L67.9787 28.5425L68.8926 27.1651C69.0178 27.4189 69.1409 27.6849 69.2556 27.9612L67.9536 30.0242L69.5415 28.7328C69.6813 29.1462 69.8002 29.5781 69.8879 30.0242Z" fill="#30325E"/>
<path d="M66.8241 24.3428L66.7727 31.3367L64.5262 28.4068C64.6723 27.9941 64.9363 27.4272 65.058 27.1729L65.9488 28.5533L65.4575 27.4385C65.2948 27.0694 65.3178 26.6444 65.5155 26.293C66.1913 25.0914 66.8241 24.3428 66.8241 24.3428Z" fill="#30325E"/>
<path d="M68.1194 33.6444L70.1434 32.4897V32.4959C70.1413 32.5304 70.1373 32.6829 70.0989 32.9227C70.0989 32.9268 70.0969 32.9268 70.0948 32.9329C70.0685 33.0935 70.0261 33.2947 69.9614 33.5224C69.7632 34.2095 69.3447 35.1466 68.4631 36.0634C68.4631 36.0634 67.8565 36.6448 67.6947 37.5087V37.5107C67.6765 37.6103 67.6624 37.71 67.6584 37.8116H67.3712L67.3348 32.6768L70.0544 30.5586C70.0564 30.5728 70.0584 30.5891 70.0605 30.6054C70.0726 30.6724 70.0807 30.7395 70.0888 30.8066C70.0989 30.8717 70.107 30.9367 70.113 31.0017C70.1231 31.0953 70.1332 31.1908 70.1393 31.2843C70.1394 31.2855 70.1395 31.2867 70.1396 31.2878C70.1584 31.5083 70.0732 31.7249 69.9158 31.8795L68.1194 33.6444Z" fill="#30325E"/>
<path d="M70.3529 41.9916L68.8465 39.576V38.4865H69.1895C69.3628 38.4865 69.5033 38.3452 69.5033 38.1708V37.0911C69.5033 36.9167 69.3628 36.7754 69.1895 36.7754H65.1012C64.9279 36.7754 64.7874 36.9167 64.7874 37.0911V38.1708C64.7874 38.3452 64.9279 38.4865 65.1012 38.4865H65.4442V39.576L63.9378 41.9916C63.82 42.1807 63.8269 42.4225 63.9554 42.6044L66.6984 46.4857C66.753 46.5629 66.8224 46.6208 66.8993 46.6595V42.3858C66.7504 42.2996 66.649 42.1398 66.649 41.9546C66.649 41.6788 66.8712 41.4553 67.1453 41.4553C67.4195 41.4553 67.6417 41.6788 67.6417 41.9546C67.6417 42.1398 67.5403 42.2996 67.3914 42.3858V46.6595C67.4683 46.6208 67.5377 46.5629 67.5923 46.4857L70.3353 42.6044C70.4638 42.4225 70.4707 42.1807 70.3529 41.9916Z" fill="#30325E"/>
</svg>
