<svg width="33" height="33" viewBox="0 0 33 33" fill="none" xmlns="http://www.w3.org/2000/svg">
<g clip-path="url(#clip0_6295_5440)">
<path d="M16.5 33C25.6127 33 33 25.6127 33 16.5C33 7.3873 25.6127 0 16.5 0C7.3873 0 0 7.3873 0 16.5C0 25.6127 7.3873 33 16.5 33Z" fill="#F0F0F0"/>
<path d="M16.5005 0C9.95885 0 4.30657 3.80692 1.6377 9.32611H31.3632C28.6943 3.80692 23.042 0 16.5005 0Z" fill="#FF9811"/>
<path d="M16.5005 32.9999C23.042 32.9999 28.6943 29.193 31.3632 23.6738H1.6377C4.30657 29.193 9.95885 32.9999 16.5005 32.9999Z" fill="#6DA544"/>
<path d="M16.4998 22.2389C19.6695 22.2389 22.2389 19.6695 22.2389 16.4998C22.2389 13.3302 19.6695 10.7607 16.4998 10.7607C13.3302 10.7607 10.7607 13.3302 10.7607 16.4998C10.7607 19.6695 13.3302 22.2389 16.4998 22.2389Z" fill="#0052B4"/>
<path d="M16.5 20.087C18.481 20.087 20.087 18.481 20.087 16.5C20.087 14.519 18.481 12.9131 16.5 12.9131C14.519 12.9131 12.9131 14.519 12.9131 16.5C12.9131 18.481 14.519 20.087 16.5 20.087Z" fill="#F0F0F0"/>
<path d="M16.5002 12.0742L17.6068 14.5839L20.3334 14.2873L18.7133 16.5005L20.3334 18.7136L17.6068 18.417L16.5002 20.9267L15.3936 18.417L12.667 18.7135L14.2871 16.5005L12.667 14.2873L15.3936 14.5839L16.5002 12.0742Z" fill="#0052B4"/>
</g>
<defs>
<clipPath id="clip0_6295_5440">
<rect width="33" height="33" fill="white"/>
</clipPath>
</defs>
</svg>
