<svg width="75" height="74" viewBox="0 0 75 74" fill="none" xmlns="http://www.w3.org/2000/svg">
<rect x="0.833282" y="0.5" width="73" height="73" rx="36.5" fill="#FCFCFD"/>
<rect x="0.833282" y="0.5" width="73" height="73" rx="36.5" stroke="#E4E4E7"/>
<rect x="10.3333" y="10" width="54" height="54" rx="27" fill="url(#paint0_linear_5945_55723)"/>
<path d="M45.4872 37.1242L39.4427 34.8906L37.2161 28.8414C37.0842 28.4832 36.8457 28.1741 36.5326 27.9557C36.2195 27.7373 35.847 27.6202 35.4653 27.6202C35.0836 27.6202 34.7111 27.7373 34.398 27.9557C34.0849 28.1741 33.8464 28.4832 33.7145 28.8414L31.4739 34.8906L25.4247 37.1172C25.0665 37.249 24.7573 37.4876 24.539 37.8007C24.3206 38.1137 24.2035 38.4863 24.2035 38.868C24.2035 39.2497 24.3206 39.6222 24.539 39.9353C24.7573 40.2483 25.0665 40.4869 25.4247 40.6187L31.4739 42.8594L33.7005 48.9086C33.8323 49.2668 34.0709 49.5759 34.384 49.7943C34.697 50.0127 35.0695 50.1298 35.4513 50.1298C35.833 50.1298 36.2055 50.0127 36.5186 49.7943C36.8316 49.5759 37.0702 49.2668 37.202 48.9086L39.4427 42.8594L45.4919 40.6328C45.8501 40.501 46.1592 40.2624 46.3776 39.9493C46.596 39.6363 46.713 39.2637 46.713 38.882C46.713 38.5003 46.596 38.1278 46.3776 37.8147C46.1592 37.5017 45.8501 37.2631 45.4919 37.1312L45.4872 37.1242ZM39.2083 26.6875C39.2083 26.4389 39.3071 26.2004 39.4829 26.0246C39.6587 25.8488 39.8971 25.75 40.1458 25.75H42.0208V23.875C42.0208 23.6264 42.1196 23.3879 42.2954 23.2121C42.4712 23.0363 42.7096 22.9375 42.9583 22.9375C43.2069 22.9375 43.4454 23.0363 43.6212 23.2121C43.797 23.3879 43.8958 23.6264 43.8958 23.875V25.75H45.7708C46.0194 25.75 46.2579 25.8488 46.4337 26.0246C46.6095 26.2004 46.7083 26.4389 46.7083 26.6875C46.7083 26.9361 46.6095 27.1746 46.4337 27.3504C46.2579 27.5262 46.0194 27.625 45.7708 27.625H43.8958V29.5C43.8958 29.7486 43.797 29.9871 43.6212 30.1629C43.4454 30.3387 43.2069 30.4375 42.9583 30.4375C42.7096 30.4375 42.4712 30.3387 42.2954 30.1629C42.1196 29.9871 42.0208 29.7486 42.0208 29.5V27.625H40.1458C39.8971 27.625 39.6587 27.5262 39.4829 27.3504C39.3071 27.1746 39.2083 26.9361 39.2083 26.6875ZM51.3958 32.3125C51.3958 32.5611 51.297 32.7996 51.1212 32.9754C50.9454 33.1512 50.7069 33.25 50.4583 33.25H49.5208V34.1875C49.5208 34.4361 49.422 34.6746 49.2462 34.8504C49.0704 35.0262 48.8319 35.125 48.5833 35.125C48.3346 35.125 48.0962 35.0262 47.9204 34.8504C47.7446 34.6746 47.6458 34.4361 47.6458 34.1875V33.25H46.7083C46.4596 33.25 46.2212 33.1512 46.0454 32.9754C45.8696 32.7996 45.7708 32.5611 45.7708 32.3125C45.7708 32.0639 45.8696 31.8254 46.0454 31.6496C46.2212 31.4738 46.4596 31.375 46.7083 31.375H47.6458V30.4375C47.6458 30.1889 47.7446 29.9504 47.9204 29.7746C48.0962 29.5988 48.3346 29.5 48.5833 29.5C48.8319 29.5 49.0704 29.5988 49.2462 29.7746C49.422 29.9504 49.5208 30.1889 49.5208 30.4375V31.375H50.4583C50.7069 31.375 50.9454 31.4738 51.1212 31.6496C51.297 31.8254 51.3958 32.0639 51.3958 32.3125Z" fill="white"/>
<defs>
<linearGradient id="paint0_linear_5945_55723" x1="37.3333" y1="10" x2="37.3333" y2="64" gradientUnits="userSpaceOnUse">
<stop stop-color="#156EEB"/>
<stop offset="1" stop-color="#0048AC"/>
</linearGradient>
</defs>
</svg>
