<svg width="75" height="74" viewBox="0 0 75 74" fill="none" xmlns="http://www.w3.org/2000/svg">
<rect x="1.16663" y="0.5" width="73" height="73" rx="36.5" fill="#FCFCFD"/>
<rect x="1.16663" y="0.5" width="73" height="73" rx="36.5" stroke="#E4E4E7"/>
<rect x="10.6666" y="10" width="54" height="54" rx="27" fill="url(#paint0_linear_5945_55705)"/>
<path fill-rule="evenodd" clip-rule="evenodd" d="M35.7916 26.6875C31.6495 26.6875 28.2916 30.0454 28.2916 34.1875C28.2916 34.3961 28.3002 34.6028 28.3169 34.8074C26.087 35.8551 24.5416 38.1211 24.5416 40.75C24.5416 44.3744 27.4798 47.3125 31.1041 47.3125H45.1666C48.2732 47.3125 50.7916 44.7941 50.7916 41.6875C50.7916 39.5816 49.6347 37.7477 47.9238 36.7837C47.9603 36.5483 47.9791 36.3074 47.9791 36.0625C47.9791 33.4737 45.8805 31.375 43.2916 31.375C43.1115 31.375 42.9335 31.3852 42.7583 31.4051C41.6533 28.641 38.9516 26.6875 35.7916 26.6875ZM38.3295 33.5246C37.9634 33.1585 37.3698 33.1585 37.0037 33.5246L33.2537 37.2746C32.8876 37.6407 32.8876 38.2343 33.2537 38.6004C33.6198 38.9665 34.2134 38.9665 34.5795 38.6004L36.7291 36.4508L36.7291 42.625C36.7291 43.1428 37.1489 43.5625 37.6666 43.5625C38.1844 43.5625 38.6041 43.1428 38.6041 42.625V36.4508L40.7537 38.6004C41.1198 38.9665 41.7134 38.9665 42.0795 38.6004C42.4457 38.2343 42.4457 37.6407 42.0795 37.2746L38.3295 33.5246Z" fill="white"/>
<defs>
<linearGradient id="paint0_linear_5945_55705" x1="37.6666" y1="10" x2="37.6666" y2="64" gradientUnits="userSpaceOnUse">
<stop stop-color="#156EEB"/>
<stop offset="1" stop-color="#0048AC"/>
</linearGradient>
</defs>
</svg>
