<svg width="74" height="74" viewBox="0 0 74 74" fill="none" xmlns="http://www.w3.org/2000/svg">
<rect x="0.5" y="0.5" width="73" height="73" rx="36.5" fill="#FCFCFD"/>
<rect x="0.5" y="0.5" width="73" height="73" rx="36.5" stroke="#E4E4E7"/>
<rect x="10" y="10" width="54" height="54" rx="27" fill="url(#paint0_linear_5945_55714)"/>
<path d="M27.625 26.6875C25.5539 26.6875 23.875 28.3664 23.875 30.4375V31.375H50.125V30.4375C50.125 28.3664 48.4461 26.6875 46.375 26.6875H27.625Z" fill="white"/>
<path fill-rule="evenodd" clip-rule="evenodd" d="M50.125 34.1875H23.875V43.5625C23.875 45.6336 25.5539 47.3125 27.625 47.3125H46.375C48.4461 47.3125 50.125 45.6336 50.125 43.5625V34.1875ZM27.625 38.875C27.625 38.3572 28.0447 37.9375 28.5625 37.9375H36.0625C36.5803 37.9375 37 38.3572 37 38.875C37 39.3928 36.5803 39.8125 36.0625 39.8125H28.5625C28.0447 39.8125 27.625 39.3928 27.625 38.875ZM28.5625 41.6875C28.0447 41.6875 27.625 42.1072 27.625 42.625C27.625 43.1428 28.0447 43.5625 28.5625 43.5625H32.3125C32.8303 43.5625 33.25 43.1428 33.25 42.625C33.25 42.1072 32.8303 41.6875 32.3125 41.6875H28.5625Z" fill="white"/>
<defs>
<linearGradient id="paint0_linear_5945_55714" x1="37" y1="10" x2="37" y2="64" gradientUnits="userSpaceOnUse">
<stop stop-color="#156EEB"/>
<stop offset="1" stop-color="#0048AC"/>
</linearGradient>
</defs>
</svg>
