<svg width="82" height="82" viewBox="0 0 82 82" fill="none" xmlns="http://www.w3.org/2000/svg">
<rect x="0.5" y="0.5" width="81" height="81" rx="40.5" stroke="url(#paint0_linear_5945_55992)"/>
<rect x="0.5" y="0.5" width="81" height="81" rx="40.5" stroke="url(#paint1_linear_5945_55992)"/>
<rect x="10.5" y="10.5" width="61" height="61" rx="30.5" stroke="url(#paint2_linear_5945_55992)"/>
<rect x="10.5" y="10.5" width="61" height="61" rx="30.5" stroke="url(#paint3_linear_5945_55992)"/>
<path d="M41.2734 35.8047H38.7031L39.0859 34.1641C39.1406 34 39.25 33.8906 39.4688 33.8906H40.5078C40.6719 33.8906 40.8359 34 40.8906 34.1641L41.2734 35.8047Z" fill="#FCFCFD"/>
<path d="M28.9688 25.3047C27.8203 25.3047 26.8359 26.2344 26.8359 27.4375V54.5625C26.8359 55.7109 27.7656 56.6953 28.9688 56.6953H51.7188V25.3047H28.9688ZM48.4375 53.1953H30.7734V28.4766H48.4375V53.1953Z" fill="#FCFCFD"/>
<path d="M55.1641 26.6172H52.9219V55.3281H55.1641V26.6172Z" fill="#FCFCFD"/>
<path d="M41.2734 35.8047H38.7031L39.0859 34.1641C39.1406 34 39.25 33.8906 39.4688 33.8906H40.5078C40.6719 33.8906 40.8359 34 40.8906 34.1641L41.2734 35.8047Z" fill="#FCFCFD"/>
<path d="M32.1406 29.8984V51.7734H47.3438V29.8984H32.1406ZM37.0078 38.7578L37.6094 36.1875L38.1562 33.9453C38.3203 33.3438 38.8125 32.9609 39.4141 32.9609H40.4531C41.0547 32.9609 41.6016 33.3984 41.7109 33.9453L42.2578 36.1875L42.8594 38.7578C42.9141 39.0312 42.75 39.25 42.5312 39.3047C42.4766 39.3047 42.4766 39.3047 42.4219 39.3047C42.2031 39.3047 42.0391 39.1406 41.9844 38.9219L41.4375 36.6797H38.4297L37.8828 38.9219C37.8281 39.1953 37.5547 39.3047 37.3359 39.25C37.1172 39.25 36.9531 39.0312 37.0078 38.7578ZM42.6953 44.2812H42.2031C42.0938 44.9375 41.7656 46.3047 40.6719 47.5078C41.1094 47.9453 41.7109 48.2734 42.3672 48.4375C42.6406 48.4922 42.75 48.7656 42.6953 48.9844C42.6406 49.2031 42.4219 49.3125 42.2578 49.3125C42.2031 49.3125 42.2031 49.3125 42.1484 49.3125C41.2734 49.0938 40.5625 48.6562 39.9609 48.1094C39.4141 48.5469 38.8125 48.9297 37.9922 49.2578C37.9375 49.2578 37.8828 49.3125 37.8281 49.3125C37.6641 49.3125 37.4453 49.2031 37.3906 49.0391C37.2812 48.8203 37.3906 48.5469 37.6641 48.4375C38.3203 48.1641 38.8672 47.8359 39.3047 47.4531C38.4297 46.4141 38.1016 45.375 38.0469 45.3203C37.9375 45.1016 38.1016 44.8281 38.3203 44.7187C38.5391 44.6094 38.8125 44.7734 38.9219 44.9922C38.9219 44.9922 39.25 45.9219 39.9609 46.7969C40.7812 45.8672 41.1094 44.8281 41.2188 44.2812H37.2266C36.9531 44.2812 36.7344 44.0625 36.7344 43.7891C36.7344 43.5156 36.9531 43.2969 37.2266 43.2969H39.4688V43.0234C39.4688 42.75 39.6875 42.5312 39.9609 42.5312C40.2344 42.5312 40.4531 42.75 40.4531 43.0234V43.2969H42.6953C42.9688 43.2969 43.1875 43.5156 43.1875 43.7891C43.1875 44.0625 42.9688 44.2812 42.6953 44.2812ZM45.2109 41.4375H34.7656C34.4922 41.4375 34.2734 41.2188 34.2734 40.9453C34.2734 40.6719 34.4922 40.4531 34.7656 40.4531H45.2109C45.4844 40.4531 45.7031 40.6719 45.7031 40.9453C45.6484 41.2188 45.4297 41.4375 45.2109 41.4375Z" fill="#FCFCFD"/>
<defs>
<linearGradient id="paint0_linear_5945_55992" x1="6.75" y1="86.5" x2="85.75" y2="-5.5" gradientUnits="userSpaceOnUse">
<stop stop-color="#156EEB"/>
<stop offset="0.323723" stop-color="#156EEB" stop-opacity="0"/>
</linearGradient>
<linearGradient id="paint1_linear_5945_55992" x1="81.75" y1="-10.5" x2="6.75" y2="82" gradientUnits="userSpaceOnUse">
<stop stop-color="#156EEB"/>
<stop offset="0.576615" stop-color="#156EEB" stop-opacity="0"/>
</linearGradient>
<linearGradient id="paint2_linear_5945_55992" x1="3.25" y1="13.5" x2="71.75" y2="72" gradientUnits="userSpaceOnUse">
<stop stop-color="#156EEB"/>
<stop offset="0.323723" stop-color="#156EEB" stop-opacity="0"/>
</linearGradient>
<linearGradient id="paint3_linear_5945_55992" x1="84.25" y1="86" x2="12.25" y2="35" gradientUnits="userSpaceOnUse">
<stop stop-color="#156EEB"/>
<stop offset="0.576615" stop-color="#156EEB" stop-opacity="0"/>
</linearGradient>
</defs>
</svg>
