<svg width="82" height="82" viewBox="0 0 82 82" fill="none" xmlns="http://www.w3.org/2000/svg">
<rect x="0.5" y="0.5" width="81" height="81" rx="40.5" stroke="url(#paint0_linear_5945_55967)"/>
<rect x="0.5" y="0.5" width="81" height="81" rx="40.5" stroke="url(#paint1_linear_5945_55967)"/>
<rect x="10.5" y="10.5" width="61" height="61" rx="30.5" stroke="url(#paint2_linear_5945_55967)"/>
<rect x="10.5" y="10.5" width="61" height="61" rx="30.5" stroke="url(#paint3_linear_5945_55967)"/>
<path d="M40.1875 40.625C34.625 40.625 30.0625 43.375 30.0625 46.75C30.0625 50.125 34.625 52.875 40.1875 52.875C45.75 52.875 50.3125 50.125 50.3125 46.75C50.3125 43.3125 45.8125 40.625 40.1875 40.625ZM46.4375 45.3125L45.25 45.5625C45.25 46 45.25 46.375 45.125 46.6875C44.75 47.9375 43.8125 48.375 43.75 48.375C43.4375 48.5 43.125 48.375 43 48.0625C42.875 47.75 43 47.4375 43.25 47.3125C43.3125 47.3125 43.625 47.125 43.875 46.625C44 46.3125 44.125 45.9375 44.0625 45.4375C44 44.75 43.1875 44.3125 42.5 44.25C42.0625 44.25 41.3125 44.3125 41.0625 45.375C40.9375 45.8125 40.875 46.25 40.75 46.625C40.1875 48.5 39.4375 49.1875 38.0625 49.1875C37.9375 49.1875 37.8125 49.1875 37.6875 49.1875C36.75 49.125 36.0625 48.4375 35.75 47.5625L34.5 47.875C34.4375 47.875 34.375 47.875 34.375 47.875C34.125 47.875 33.875 47.6875 33.8125 47.4375C33.75 47.125 33.9375 46.8125 34.25 46.6875L34.625 46.5625L35.5 46.3125C35.4375 44.8125 36.25 43.6875 37.6875 43.5C38 43.4375 38.3125 43.6875 38.375 44C38.4375 44.3125 38.1875 44.625 37.875 44.6875C36.75 44.875 36.6875 45.875 36.6875 46.3125C36.6875 46.4375 36.6875 46.5 36.6875 46.625C36.8125 47.3125 37.1875 47.9375 37.8125 48C38.5625 48.0625 39.0625 48.0625 39.5 46.625C39.625 46.25 39.75 45.75 39.9375 45.125C40.3125 43.5 41.5625 43 42.625 43.0625C43.5 43.125 44.4375 43.625 44.9375 44.375L46.25 44.125C46.5625 44.0625 46.875 44.25 46.9375 44.5625C47 44.9375 46.8125 45.25 46.4375 45.3125Z" fill="#FCFCFD"/>
<path d="M51 47.5625V51.5C51 55.125 46.1875 58 40.1875 58C34.25 58 29.375 55.0625 29.375 51.5V47.5625C29.375 51.1875 34.1875 54.0625 40.1875 54.0625C46.125 54.0625 51 51.1875 51 47.5625Z" fill="#FCFCFD"/>
<path d="M52.625 27.5617C48.8125 25.7492 44.875 26.1242 43.75 28.3742C42.625 30.6242 44.8125 33.8742 48.625 35.6867C52.4375 37.4992 56.375 37.1242 57.5 34.8742C58.625 32.6867 56.4375 29.3742 52.625 27.5617ZM56.0625 32.4992C56 32.8117 55.75 32.9992 55.4375 32.9992C55.375 32.9992 55.3125 32.9992 55.25 32.9992L54.5 32.8117C54.375 32.9992 54.25 33.1867 54.125 33.3742C53.5625 33.9992 52.875 34.1867 52.5 34.1867C52.125 34.1867 51.875 33.8742 51.875 33.5617C51.875 33.1867 52.1875 32.9367 52.5 32.9367C52.5625 32.9367 52.6875 32.9367 52.9375 32.8117C53.125 32.6867 53.3125 32.4992 53.5 32.1242C53.625 31.8117 53.375 31.3117 52.9375 31.0617C52.5 30.8117 52.125 30.9367 51.8125 31.3117C51.625 31.5617 51.4375 31.8117 51.25 31.9992C50.1875 33.1242 49.3125 33.4992 48.0625 32.8117C47.4375 32.4367 47.125 31.7492 47.1875 31.0617L46.4375 30.9367C46.0625 30.8742 45.875 30.5617 45.9375 30.1867C46 29.9367 46.1875 29.7492 46.4375 29.6867C46.5 29.6867 46.625 29.6867 46.6875 29.6867L47.5 29.8117C48 28.8117 49 28.3742 50.0625 28.6242C50.375 28.7492 50.625 29.0617 50.5 29.4367C50.375 29.7492 50.0625 29.9992 49.6875 29.8742C49.0625 29.6867 48.75 30.1867 48.625 30.4367C48.5625 30.4992 48.5625 30.5617 48.5625 30.6242C48.4375 31.0617 48.5 31.4992 48.75 31.6242C49.125 31.8742 49.375 31.9992 50.0625 31.3742C50.25 31.1867 50.5625 30.8742 50.875 30.4992C51.5625 29.6242 52.6875 29.4367 53.625 29.9367C54.25 30.3117 54.6875 30.9367 54.8125 31.5617L55.625 31.7492C55.9375 31.8117 56.1875 32.1242 56.0625 32.4992Z" fill="#FCFCFD"/>
<path d="M58.0625 35.625L56.75 38.375C56.0625 39.8125 54.3125 40.5625 52.1875 40.5625C50.625 40.5625 48.75 40.125 47 39.3125C42.8125 37.3125 40.4375 33.625 41.625 31.125L42.9375 28.375C41.6875 30.875 44.125 34.5625 48.3125 36.5625C52.5 38.5625 56.875 38.1875 58.0625 35.625Z" fill="#FCFCFD"/>
<path d="M34.625 24.7497C32.875 23.0622 29.25 24.1872 26.5625 27.1247C23.875 30.0622 23.125 33.7497 24.875 35.3747C26.625 36.9997 30.25 35.9372 32.9375 32.9997C35.6875 30.0622 36.4375 26.3747 34.625 24.7497ZM32.5625 28.9997C32.4375 29.3122 32.125 29.4997 31.8125 29.3747C31.5 29.2497 31.3125 28.9372 31.4375 28.6247C31.4375 28.5622 31.5 28.4372 31.4375 28.1872C31.375 27.9997 31.25 27.7497 30.9375 27.4997C30.6875 27.3122 30.125 27.3747 29.8125 27.7497C29.5 28.0622 29.4375 28.4372 29.75 28.8122C29.9375 29.0622 30.0625 29.3122 30.1875 29.5622C30.9375 30.8122 31.0625 31.6872 30.0625 32.6872C29.75 32.9997 29.3125 33.1247 28.875 33.1247C28.625 33.1247 28.4375 33.0622 28.1875 32.9997L27.875 33.6247C27.75 33.8122 27.5625 33.9372 27.3125 33.9372C27.1875 33.9372 27.125 33.9372 27.0625 33.8747C26.8125 33.7497 26.6875 33.4997 26.75 33.3122C26.75 33.2497 26.75 33.1247 26.8125 33.0622L27.1875 32.3747C26.4375 31.6247 26.25 30.6247 26.8125 29.7497C27 29.4997 27.375 29.3747 27.625 29.5622C27.875 29.7497 28 30.1247 27.8125 30.3747C27.4375 30.9372 27.8125 31.3122 28.0625 31.4997C28.125 31.5622 28.1875 31.5622 28.25 31.6247C28.625 31.8747 29.0625 31.8747 29.25 31.6872C29.5625 31.3747 29.75 31.1872 29.375 30.4372C29.25 30.1872 29.0625 29.8747 28.75 29.4372C28.125 28.5622 28.25 27.4997 29 26.8122C29.5 26.3122 30.1875 26.1247 30.8125 26.1872L31.25 25.4997C31.4375 25.1872 31.8125 25.1247 32.0625 25.3122C32.375 25.4997 32.4375 25.8747 32.25 26.1247L31.875 26.7497C32.0625 26.9372 32.1875 27.0622 32.3125 27.2497C32.75 27.9372 32.6875 28.6247 32.5625 28.9997Z" fill="#FCFCFD"/>
<path d="M35.875 35.6875C32.9375 38.875 29 40.0625 27.0625 38.25L24.9375 36.3125C26.875 38.0625 30.8125 36.9375 33.75 33.75C36.6875 30.5625 37.5 26.5625 35.5625 24.75L37.6875 26.6875C39.625 28.5 38.8125 32.5 35.875 35.6875Z" fill="#FCFCFD"/>
<defs>
<linearGradient id="paint0_linear_5945_55967" x1="6.75" y1="86.5" x2="85.75" y2="-5.5" gradientUnits="userSpaceOnUse">
<stop stop-color="#156EEB"/>
<stop offset="0.323723" stop-color="#156EEB" stop-opacity="0"/>
</linearGradient>
<linearGradient id="paint1_linear_5945_55967" x1="81.75" y1="-10.5" x2="6.75" y2="82" gradientUnits="userSpaceOnUse">
<stop stop-color="#156EEB"/>
<stop offset="0.576615" stop-color="#156EEB" stop-opacity="0"/>
</linearGradient>
<linearGradient id="paint2_linear_5945_55967" x1="3.25" y1="13.5" x2="71.75" y2="72" gradientUnits="userSpaceOnUse">
<stop stop-color="#156EEB"/>
<stop offset="0.323723" stop-color="#156EEB" stop-opacity="0"/>
</linearGradient>
<linearGradient id="paint3_linear_5945_55967" x1="84.25" y1="86" x2="12.25" y2="35" gradientUnits="userSpaceOnUse">
<stop stop-color="#156EEB"/>
<stop offset="0.576615" stop-color="#156EEB" stop-opacity="0"/>
</linearGradient>
</defs>
</svg>
