<svg width="82" height="82" viewBox="0 0 82 82" fill="none" xmlns="http://www.w3.org/2000/svg">
<rect x="0.5" y="0.5" width="81" height="81" rx="40.5" stroke="url(#paint0_linear_5945_55981)"/>
<rect x="0.5" y="0.5" width="81" height="81" rx="40.5" stroke="url(#paint1_linear_5945_55981)"/>
<rect x="10.5" y="10.5" width="61" height="61" rx="30.5" stroke="url(#paint2_linear_5945_55981)"/>
<rect x="10.5" y="10.5" width="61" height="61" rx="30.5" stroke="url(#paint3_linear_5945_55981)"/>
<path d="M39.125 36.6875H27.375C24.4375 36.6875 22.125 39.0625 22.125 41.9375V47.625C22.125 50.5625 24.5 52.9375 27.375 52.9375L33.5625 57.4375L33.125 52.9375H39.125C41.8125 52.9375 44.0625 50.875 44.375 48.25C44.375 48.0625 44.4375 47.8125 44.4375 47.625V41.9375C44.4375 38.75 42.0625 36.6875 39.125 36.6875ZM38.9375 39.9375C39 39.9375 39.0625 39.9375 39.125 39.9375H40.1875C40.5625 39.9375 40.875 40.25 40.875 40.625C40.875 41 40.5625 41.3125 40.1875 41.3125H39.125C38.75 41.3125 38.4375 41 38.4375 40.625C38.4375 40.25 38.6875 40 38.9375 39.9375ZM26.1875 39.875H36.875C37.25 39.875 37.5625 40.1875 37.5625 40.5625C37.5625 40.9375 37.25 41.25 36.875 41.25H26.1875C25.8125 41.25 25.5 40.9375 25.5 40.5625C25.5 40.1875 25.8125 39.875 26.1875 39.875ZM26.1875 42.8125H28.1875C28.5625 42.8125 28.875 43.125 28.875 43.5C28.875 43.875 28.5625 44.1875 28.1875 44.1875H26.1875C25.8125 44.1875 25.5 43.875 25.5 43.5C25.5 43.125 25.8125 42.8125 26.1875 42.8125ZM26.1875 45.75H35.8125C36.1875 45.75 36.5 46.0625 36.5 46.4375C36.5 46.8125 36.1875 47.125 35.8125 47.125H26.1875C25.8125 47.125 25.5 46.8125 25.5 46.4375C25.5 46.0625 25.8125 45.75 26.1875 45.75ZM36.125 50.375H26.1875C25.8125 50.375 25.5 50.0625 25.5 49.6875C25.5 49.3125 25.8125 49 26.1875 49H36.125C36.5 49 36.8125 49.3125 36.8125 49.6875C36.875 50.0625 36.5625 50.375 36.125 50.375ZM40.5625 47.125H38.5625C38.1875 47.125 37.875 46.8125 37.875 46.4375C37.875 46.0625 38.1875 45.75 38.5625 45.75H40.5625C40.9375 45.75 41.25 46.0625 41.25 46.4375C41.3125 46.8125 41 47.125 40.5625 47.125ZM41.3125 43.5C41.3125 43.875 41 44.1875 40.625 44.1875H30.9375C30.5625 44.1875 30.25 43.875 30.25 43.5C30.25 43.125 30.5625 42.8125 30.9375 42.8125H40.5625C40.6875 42.8125 40.8125 42.8125 40.875 42.875C41.125 43 41.25 43.1875 41.3125 43.5Z" fill="#FCFCFD"/>
<path d="M54.625 29.8125H42.875C40.0625 29.8125 37.75 32 37.625 34.75C37.625 34.875 37.625 34.9375 37.625 35.0625V36.0625H39.875C42.8125 36.0625 45.125 38.4375 45.125 41.3125V47C45.125 47.1875 45.125 47.4375 45.0625 47.625L49 50.5L48.5625 46H54.625C57.5625 46 59.875 43.625 59.875 40.75V35.0625C59.875 32.1875 57.5 29.8125 54.625 29.8125ZM42.0625 33.6875C41.6875 33.6875 41.375 33.375 41.375 33C41.375 32.625 41.6875 32.3125 42.0625 32.3125H57.0625C57.4375 32.3125 57.75 32.625 57.75 33C57.75 33.375 57.4375 33.6875 57.0625 33.6875H42.0625ZM57.75 36.25C57.75 36.625 57.4375 36.9375 57.0625 36.9375H49.5625C49.1875 36.9375 48.875 36.625 48.875 36.25C48.875 35.875 49.1875 35.5625 49.5625 35.5625H57.0625C57.4375 35.5625 57.75 35.875 57.75 36.25ZM44.4375 36.25C44.4375 35.875 44.75 35.5625 45.125 35.5625H47.125C47.5 35.5625 47.8125 35.875 47.8125 36.25C47.8125 36.625 47.5 36.9375 47.125 36.9375H45.125C44.75 36.9375 44.4375 36.625 44.4375 36.25ZM48.75 42.8125H47.6875C47.3125 42.8125 47 42.5 47 42.125C47 41.75 47.3125 41.4375 47.6875 41.4375H48.75C49.125 41.4375 49.4375 41.75 49.4375 42.125C49.4375 42.5 49.125 42.8125 48.75 42.8125ZM57.0625 42.8125H51.1875C50.8125 42.8125 50.5 42.5 50.5 42.125C50.5 41.75 50.8125 41.4375 51.1875 41.4375H57.0625C57.4375 41.4375 57.75 41.75 57.75 42.125C57.75 42.5 57.4375 42.8125 57.0625 42.8125ZM57.125 39.875H47.5C47.125 39.875 46.8125 39.5625 46.8125 39.1875C46.8125 38.8125 47.125 38.5 47.5 38.5H57.125C57.5 38.5 57.8125 38.8125 57.8125 39.1875C57.8125 39.5625 57.5 39.875 57.125 39.875Z" fill="#FCFCFD"/>
<path d="M36.625 34.75C36.625 34.875 36.625 34.9375 36.625 35.0625V36.0625H31.875C29.5625 35 28.625 32.0625 28.625 32.0625L25.75 33L28 24.625L35.9375 29.125L32.625 30.5625C32.625 30.5 33.875 33.4375 36.625 34.75Z" fill="#FCFCFD"/>
<defs>
<linearGradient id="paint0_linear_5945_55981" x1="6.75" y1="86.5" x2="85.75" y2="-5.5" gradientUnits="userSpaceOnUse">
<stop stop-color="#156EEB"/>
<stop offset="0.323723" stop-color="#156EEB" stop-opacity="0"/>
</linearGradient>
<linearGradient id="paint1_linear_5945_55981" x1="81.75" y1="-10.5" x2="6.75" y2="82" gradientUnits="userSpaceOnUse">
<stop stop-color="#156EEB"/>
<stop offset="0.576615" stop-color="#156EEB" stop-opacity="0"/>
</linearGradient>
<linearGradient id="paint2_linear_5945_55981" x1="3.25" y1="13.5" x2="71.75" y2="72" gradientUnits="userSpaceOnUse">
<stop stop-color="#156EEB"/>
<stop offset="0.323723" stop-color="#156EEB" stop-opacity="0"/>
</linearGradient>
<linearGradient id="paint3_linear_5945_55981" x1="84.25" y1="86" x2="12.25" y2="35" gradientUnits="userSpaceOnUse">
<stop stop-color="#156EEB"/>
<stop offset="0.576615" stop-color="#156EEB" stop-opacity="0"/>
</linearGradient>
</defs>
</svg>
