<svg width="33" height="33" viewBox="0 0 33 33" fill="none" xmlns="http://www.w3.org/2000/svg">
<g clip-path="url(#clip0_6295_4406)">
<path d="M1.02629 10.761C0.363064 12.5485 0 14.4818 0 16.5001C0 18.5183 0.363064 20.4517 1.02629 22.2392L16.5 23.674L31.9737 22.2392C32.6369 20.4517 33 18.5183 33 16.5001C33 14.4818 32.6369 12.5485 31.9737 10.761L16.5 9.32617L1.02629 10.761Z" fill="#F0F0F0"/>
<path d="M16.5 0C9.40566 0 3.35764 4.47769 1.02637 10.7609H31.9739C29.6424 4.47769 23.5945 0 16.5 0Z" fill="#D80027"/>
<path d="M16.5 33.0002C23.5945 33.0002 29.6424 28.5225 31.9738 22.2393H1.02637C3.35764 28.5225 9.40566 33.0002 16.5 33.0002Z" fill="#6DA544"/>
</g>
<defs>
<clipPath id="clip0_6295_4406">
<rect width="33" height="33" fill="white"/>
</clipPath>
</defs>
</svg>
