<svg width="75" height="74" viewBox="0 0 75 74" fill="none" xmlns="http://www.w3.org/2000/svg">
<rect x="1.1665" y="0.5" width="73" height="73" rx="36.5" fill="#FCFCFD"/>
<rect x="1.1665" y="0.5" width="73" height="73" rx="36.5" stroke="#E4E4E7"/>
<rect x="10.6665" y="10" width="54" height="54" rx="27" fill="url(#paint0_linear_5970_11632)"/>
<path d="M37.5 43.6667C39.6262 43.6667 41.5141 42.6188 42.7 41C43.5164 39.8856 44 38.5012 44 37C44 35.4988 43.5164 34.1144 42.7 33C41.5141 31.3812 39.6262 30.3333 37.5 30.3333C35.3738 30.3333 33.4859 31.3812 32.3 33C31.4836 34.1144 31 35.4988 31 37C31 38.5012 31.4836 39.8856 32.3 41C33.4859 42.6188 35.3738 43.6667 37.5 43.6667Z" fill="#FCFCFD"/>
<path d="M32.3 33L33.3271 26.6792C33.4844 25.7112 34.3205 25 35.3012 25H39.6988C40.6795 25 41.5156 25.7112 41.6729 26.6792L42.7 33M32.3 33C33.4859 31.3812 35.3738 30.3333 37.5 30.3333M32.3 33C31.4836 34.1144 31 35.4988 31 37M42.7 33C43.5164 34.1144 44 35.4988 44 37M42.7 33C41.5141 31.3812 39.6262 30.3333 37.5 30.3333M32.3 41L33.3271 47.3208C33.4844 48.2888 34.3205 49 35.3012 49H39.6988C40.6795 49 41.5156 48.2888 41.6729 47.3208L42.7 41M32.3 41C31.4836 39.8856 31 38.5012 31 37M32.3 41C33.4859 42.6188 35.3738 43.6667 37.5 43.6667M42.7 41C41.5141 42.6188 39.6262 43.6667 37.5 43.6667M42.7 41C43.5164 39.8856 44 38.5012 44 37M37.5 43.6667C41.0899 43.6667 44 40.6819 44 37M37.5 43.6667C33.9101 43.6667 31 40.6819 31 37M44 37C44 33.3181 41.0899 30.3333 37.5 30.3333M37.5 30.3333C33.9101 30.3333 31 33.3181 31 37" stroke="#FCFCFD" stroke-width="2" stroke-linecap="round" stroke-linejoin="round"/>
<defs>
<linearGradient id="paint0_linear_5970_11632" x1="37.6665" y1="10" x2="37.6665" y2="64" gradientUnits="userSpaceOnUse">
<stop stop-color="#156EEB"/>
<stop offset="1" stop-color="#0048AC"/>
</linearGradient>
</defs>
</svg>
