<svg width="22" height="20" viewBox="0 0 22 20" fill="none" xmlns="http://www.w3.org/2000/svg">
<path fill-rule="evenodd" clip-rule="evenodd" d="M1.25 0.3125C0.835786 0.3125 0.5 0.648286 0.5 1.0625C0.5 1.47671 0.835786 1.8125 1.25 1.8125H2V12.3125C2 13.9694 3.34315 15.3125 5 15.3125H6.20943L5.03849 18.8253C4.9075 19.2183 5.11987 19.643 5.51283 19.774C5.90579 19.905 6.33053 19.6926 6.46151 19.2997L6.79057 18.3125H15.2094L15.5385 19.2997C15.6695 19.6926 16.0942 19.905 16.4872 19.774C16.8801 19.643 17.0925 19.2183 16.9615 18.8253L15.7906 15.3125H17C18.6569 15.3125 20 13.9694 20 12.3125V1.8125H20.75C21.1642 1.8125 21.5 1.47671 21.5 1.0625C21.5 0.648286 21.1642 0.3125 20.75 0.3125H1.25ZM7.79057 15.3125H14.2094L14.7094 16.8125H7.29057L7.79057 15.3125ZM15.8755 6.31717C16.2341 6.10977 16.3566 5.65097 16.1492 5.29242C15.9418 4.93388 15.483 4.81136 15.1245 5.01876C13.7577 5.80938 12.5517 6.84621 11.5667 8.06864L10.0303 6.53225C9.73744 6.23936 9.26256 6.23936 8.96967 6.53225L5.96967 9.53225C5.67678 9.82515 5.67678 10.3 5.96967 10.5929C6.26256 10.8858 6.73744 10.8858 7.03033 10.5929L9.5 8.12324L11.1173 9.74051C11.2742 9.89748 11.4927 9.97685 11.7138 9.95725C11.9349 9.93765 12.136 9.82109 12.2629 9.63895C13.207 8.28417 14.4414 7.14678 15.8755 6.31717Z" fill="url(#paint0_linear_6005_11730)"/>
<defs>
<linearGradient id="paint0_linear_6005_11730" x1="11" y1="0.3125" x2="11" y2="19.8127" gradientUnits="userSpaceOnUse">
<stop stop-color="#F8FBFF"/>
<stop offset="1" stop-color="#5991E0"/>
</linearGradient>
</defs>
</svg>
