<svg width="21" height="20" viewBox="0 0 21 20" fill="none" xmlns="http://www.w3.org/2000/svg">
<path fill-rule="evenodd" clip-rule="evenodd" d="M4.01967 1.06796V1.88438C3.02614 2.02538 2.04295 2.19832 1.0712 2.40212C0.693398 2.48136 0.445867 2.84214 0.510147 3.21986C1.0002 6.09959 3.41869 8.32844 6.40349 8.55283C7.15775 9.16388 8.05419 9.61017 9.03636 9.8352C8.94147 10.9478 8.56106 11.9787 7.96803 12.8571H7.25959C6.26542 12.8571 5.4595 13.6566 5.4595 14.6429V17.1429H4.73936C3.54636 17.1429 2.57925 18.1022 2.57925 19.2857C2.57925 19.6802 2.90162 20 3.29928 20H17.7C18.0977 20 18.4201 19.6802 18.4201 19.2857C18.4201 18.1022 17.4529 17.1429 16.2599 17.1429H15.54V14.6429C15.54 13.6566 14.7341 12.8571 13.7399 12.8571H13.031C12.4382 11.9788 12.058 10.9479 11.9631 9.83531C12.9455 9.61032 13.8421 9.16398 14.5965 8.55283C17.5813 8.32844 19.9998 6.09959 20.4899 3.21986C20.5541 2.84214 20.3066 2.48136 19.9288 2.40212C18.9571 2.19832 17.9739 2.02538 16.9803 1.88438V1.06796C16.9803 0.707652 16.7098 0.403753 16.3494 0.359168C14.4329 0.12209 12.4806 0 10.5 0C8.51936 0 6.56713 0.12209 4.65061 0.359168C4.29019 0.403753 4.01967 0.707652 4.01967 1.06796ZM4.01967 3.57143C4.01967 4.71065 4.31871 5.7809 4.84267 6.7088C3.53976 6.13019 2.52931 5.01881 2.09371 3.65417C2.73087 3.53167 3.37296 3.42283 4.01967 3.32798V3.57143ZM16.9803 3.57143V3.32798C17.627 3.42283 18.2691 3.53167 18.9063 3.65417C18.4707 5.01881 17.4602 6.13019 16.1573 6.7088C16.6813 5.7809 16.9803 4.71065 16.9803 3.57143Z" fill="url(#paint0_linear_6011_13047)"/>
<defs>
<linearGradient id="paint0_linear_6011_13047" x1="10.5" y1="0" x2="10.5" y2="20" gradientUnits="userSpaceOnUse">
<stop stop-color="#F8FBFF"/>
<stop offset="1" stop-color="#5991E0"/>
</linearGradient>
</defs>
</svg>
