<svg width="74" height="74" viewBox="0 0 74 74" fill="none" xmlns="http://www.w3.org/2000/svg">
<rect x="0.5" y="0.5" width="73" height="73" rx="36.5" fill="#FCFCFD"/>
<rect x="0.5" y="0.5" width="73" height="73" rx="36.5" stroke="#E4E4E7"/>
<rect x="10" y="10" width="54" height="54" rx="27" fill="url(#paint0_linear_5970_11641)"/>
<path d="M35.1091 32.9954C35.3887 32.7733 35.7209 32.6117 36.0769 32.5108V35.9507C35.7141 35.8477 35.3828 35.6836 35.1091 35.4661C34.6245 35.0812 34.4369 34.6282 34.4369 34.2308C34.4369 33.8333 34.6245 33.3804 35.1091 32.9954Z" fill="white"/>
<path d="M37.9231 41.5066V38.0318C38.3505 38.1357 38.74 38.3117 39.057 38.5495C39.5819 38.9432 39.7692 39.3937 39.7692 39.7692C39.7692 40.1447 39.5819 40.5952 39.057 40.9889C38.74 41.2267 38.3505 41.4027 37.9231 41.5066Z" fill="white"/>
<path fill-rule="evenodd" clip-rule="evenodd" d="M37 25C30.3726 25 25 30.3726 25 37C25 43.6274 30.3726 49 37 49C43.6274 49 49 43.6274 49 37C49 30.3726 43.6274 25 37 25ZM37.9231 29.6154C37.9231 29.1056 37.5098 28.6923 37 28.6923C36.4902 28.6923 36.0769 29.1056 36.0769 29.6154V30.6192C35.3054 30.7559 34.5696 31.0661 33.9607 31.5499C33.084 32.2463 32.5908 33.2108 32.5908 34.2308C32.5908 35.2507 33.084 36.2152 33.9607 36.9117C34.5791 37.4029 35.3171 37.7077 36.0769 37.8423V41.5065C35.6496 41.4026 35.2602 41.2266 34.9432 40.9889L33.8616 40.1776C33.4537 39.8717 32.8751 39.9543 32.5692 40.3622C32.2634 40.77 32.346 41.3486 32.7538 41.6545L33.8355 42.4658C34.4918 42.958 35.2744 43.2592 36.0769 43.3881V44.3846C36.0769 44.8944 36.4902 45.3077 37 45.3077C37.5098 45.3077 37.9231 44.8944 37.9231 44.3846V43.3881C38.7257 43.2592 39.5084 42.9581 40.1648 42.4658C41.0818 41.778 41.6154 40.8111 41.6154 39.7692C41.6154 38.7273 41.0818 37.7604 40.1648 37.0726C39.5084 36.5803 38.7257 36.2792 37.9231 36.1503V32.5109C38.279 32.6118 38.6111 32.7733 38.8906 32.9954L39.4012 33.401C39.8004 33.7182 40.3811 33.6516 40.6982 33.2524C41.0153 32.8533 40.9488 32.2726 40.5496 31.9555L40.0389 31.5499C39.4301 31.0662 38.6945 30.756 37.9231 30.6193V29.6154Z" fill="white"/>
<defs>
<linearGradient id="paint0_linear_5970_11641" x1="37" y1="10" x2="37" y2="64" gradientUnits="userSpaceOnUse">
<stop stop-color="#156EEB"/>
<stop offset="1" stop-color="#0048AC"/>
</linearGradient>
</defs>
</svg>
