<svg width="22" height="20" viewBox="0 0 22 20" fill="none" xmlns="http://www.w3.org/2000/svg">
<path fill-rule="evenodd" clip-rule="evenodd" d="M4.03204 1.00764C6.30683 0.673171 8.6337 0.5 11.0006 0.5C13.3672 0.5 15.6939 0.67314 17.9685 1.00755C19.8961 1.29095 21.231 2.9792 21.231 4.87541V10.74C21.231 12.6362 19.8961 14.3244 17.9685 14.6078C16.0789 14.8856 14.1534 15.0521 12.1989 15.1005C12.098 15.103 12.0057 15.1435 11.9394 15.2097L7.86318 19.2859C7.65418 19.4949 7.33986 19.5575 7.0668 19.4444C6.79373 19.3312 6.61568 19.0648 6.61568 18.7692V14.9156C5.74754 14.8361 4.88611 14.7333 4.03203 14.6077C2.10444 14.3243 0.769531 12.6361 0.769531 10.7399V4.87549C0.769531 2.9793 2.10445 1.29107 4.03204 1.00764Z" fill="url(#paint0_linear_6005_12202)"/>
<defs>
<linearGradient id="paint0_linear_6005_12202" x1="11.0003" y1="0.5" x2="11.0003" y2="19.5" gradientUnits="userSpaceOnUse">
<stop stop-color="#F8FBFF"/>
<stop offset="1" stop-color="#5991E0"/>
</linearGradient>
</defs>
</svg>
