<svg width="75" height="74" viewBox="0 0 75 74" fill="none" xmlns="http://www.w3.org/2000/svg">
<rect x="0.833008" y="0.5" width="73" height="73" rx="36.5" fill="#FCFCFD"/>
<rect x="0.833008" y="0.5" width="73" height="73" rx="36.5" stroke="#E4E4E7"/>
<rect x="10.333" y="10" width="54" height="54" rx="27" fill="url(#paint0_linear_5970_11650)"/>
<path d="M36 29.8C36 30.3523 36.4477 30.8 37 30.8C37.5523 30.8 38 30.3523 38 29.8H36ZM38 25C38 24.4477 37.5523 24 37 24C36.4477 24 36 24.4477 36 25H38ZM36 49C36 49.5523 36.4477 50 37 50C37.5523 50 38 49.5523 38 49H36ZM38 44.2C38 43.6477 37.5523 43.2 37 43.2C36.4477 43.2 36 43.6477 36 44.2H38ZM44.2 36C43.6477 36 43.2 36.4477 43.2 37C43.2 37.5523 43.6477 38 44.2 38V36ZM49 38C49.5523 38 50 37.5523 50 37C50 36.4477 49.5523 36 49 36V38ZM25 36C24.4477 36 24 36.4477 24 37C24 37.5523 24.4477 38 25 38V36ZM29.8 38C30.3523 38 30.8 37.5523 30.8 37C30.8 36.4477 30.3523 36 29.8 36V38ZM45.6 36.9999C45.6 41.7496 41.7496 45.5999 37 45.5999V47.5999C42.8542 47.5999 47.6 42.8541 47.6 36.9999H45.6ZM37 45.5999C32.2503 45.5999 28.4 41.7496 28.4 36.9999H26.4C26.4 42.8541 31.1458 47.5999 37 47.5999V45.5999ZM28.4 36.9999C28.4 32.2503 32.2503 28.3999 37 28.3999V26.3999C31.1458 26.3999 26.4 31.1457 26.4 36.9999H28.4ZM37 28.3999C41.7496 28.3999 45.6 32.2503 45.6 36.9999H47.6C47.6 31.1457 42.8542 26.3999 37 26.3999V28.3999ZM38 29.8V25H36V29.8H38ZM38 49V44.2H36V49H38ZM44.2 38H49V36H44.2V38ZM25 38H29.8V36H25V38ZM39.6 37C39.6 38.4359 38.4359 39.6 37 39.6V41.6C39.5405 41.6 41.6 39.5405 41.6 37H39.6ZM37 39.6C35.5641 39.6 34.4 38.4359 34.4 37H32.4C32.4 39.5405 34.4595 41.6 37 41.6V39.6ZM34.4 37C34.4 35.5641 35.5641 34.4 37 34.4V32.4C34.4595 32.4 32.4 34.4595 32.4 37H34.4ZM37 34.4C38.4359 34.4 39.6 35.5641 39.6 37H41.6C41.6 34.4595 39.5405 32.4 37 32.4V34.4Z" fill="#FCFCFD"/>
<defs>
<linearGradient id="paint0_linear_5970_11650" x1="37.333" y1="10" x2="37.333" y2="64" gradientUnits="userSpaceOnUse">
<stop stop-color="#156EEB"/>
<stop offset="1" stop-color="#0048AC"/>
</linearGradient>
</defs>
</svg>
