<svg width="17" height="22" viewBox="0 0 17 22" fill="none" xmlns="http://www.w3.org/2000/svg">
<path fill-rule="evenodd" clip-rule="evenodd" d="M1.875 0.5H5.25C7.32107 0.5 9 2.17893 9 4.25V6.125C9 7.16053 9.83947 8 10.875 8H12.75C14.8211 8 16.5 9.67893 16.5 11.75V19.625C16.5 20.6605 15.6605 21.5 14.625 21.5H1.875C0.839466 21.5 0 20.6605 0 19.625V2.375C0 1.33947 0.839467 0.5 1.875 0.5ZM6 16.25C6 15.8358 5.66421 15.5 5.25 15.5C4.83579 15.5 4.5 15.8358 4.5 16.25V17C4.5 17.4142 4.83579 17.75 5.25 17.75C5.66421 17.75 6 17.4142 6 17V16.25ZM8.25 13.25C8.66421 13.25 9 13.5858 9 14V17C9 17.4142 8.66421 17.75 8.25 17.75C7.83579 17.75 7.5 17.4142 7.5 17V14C7.5 13.5858 7.83579 13.25 8.25 13.25ZM12 11.75C12 11.3358 11.6642 11 11.25 11C10.8358 11 10.5 11.3358 10.5 11.75V17C10.5 17.4142 10.8358 17.75 11.25 17.75C11.6642 17.75 12 17.4142 12 17V11.75Z" fill="white"/>
<path fill-rule="evenodd" clip-rule="evenodd" d="M1.875 0.5H5.25C7.32107 0.5 9 2.17893 9 4.25V6.125C9 7.16053 9.83947 8 10.875 8H12.75C14.8211 8 16.5 9.67893 16.5 11.75V19.625C16.5 20.6605 15.6605 21.5 14.625 21.5H1.875C0.839466 21.5 0 20.6605 0 19.625V2.375C0 1.33947 0.839467 0.5 1.875 0.5ZM6 16.25C6 15.8358 5.66421 15.5 5.25 15.5C4.83579 15.5 4.5 15.8358 4.5 16.25V17C4.5 17.4142 4.83579 17.75 5.25 17.75C5.66421 17.75 6 17.4142 6 17V16.25ZM8.25 13.25C8.66421 13.25 9 13.5858 9 14V17C9 17.4142 8.66421 17.75 8.25 17.75C7.83579 17.75 7.5 17.4142 7.5 17V14C7.5 13.5858 7.83579 13.25 8.25 13.25ZM12 11.75C12 11.3358 11.6642 11 11.25 11C10.8358 11 10.5 11.3358 10.5 11.75V17C10.5 17.4142 10.8358 17.75 11.25 17.75C11.6642 17.75 12 17.4142 12 17V11.75Z" fill="url(#paint0_linear_6005_12425)"/>
<path d="M10.5 4.25C10.5 2.93695 10.018 1.73648 9.22119 0.815905C12.6201 1.70377 15.2962 4.37988 16.1841 7.77881C15.2635 6.98204 14.0631 6.5 12.75 6.5H10.875C10.6679 6.5 10.5 6.33211 10.5 6.125V4.25Z" fill="white"/>
<path d="M10.5 4.25C10.5 2.93695 10.018 1.73648 9.22119 0.815905C12.6201 1.70377 15.2962 4.37988 16.1841 7.77881C15.2635 6.98204 14.0631 6.5 12.75 6.5H10.875C10.6679 6.5 10.5 6.33211 10.5 6.125V4.25Z" fill="url(#paint1_linear_6005_12425)"/>
<defs>
<linearGradient id="paint0_linear_6005_12425" x1="8.25" y1="0.5" x2="8.25" y2="21.5" gradientUnits="userSpaceOnUse">
<stop stop-color="#F8FBFF"/>
<stop offset="1" stop-color="#5991E0"/>
</linearGradient>
<linearGradient id="paint1_linear_6005_12425" x1="8.25" y1="0.5" x2="8.25" y2="21.5" gradientUnits="userSpaceOnUse">
<stop stop-color="#F8FBFF"/>
<stop offset="1" stop-color="#5991E0"/>
</linearGradient>
</defs>
</svg>
