<svg width="82" height="82" viewBox="0 0 82 82" fill="none" xmlns="http://www.w3.org/2000/svg">
<rect x="0.5" y="0.5" width="81" height="81" rx="40.5" stroke="url(#paint0_linear_5970_11859)"/>
<rect x="0.5" y="0.5" width="81" height="81" rx="40.5" stroke="url(#paint1_linear_5970_11859)"/>
<rect x="10.5" y="10.5" width="61" height="61" rx="30.5" stroke="url(#paint2_linear_5970_11859)"/>
<rect x="10.5" y="10.5" width="61" height="61" rx="30.5" stroke="url(#paint3_linear_5970_11859)"/>
<path d="M34.112 49.74C32.704 49.74 31.456 49.364 30.368 48.612C29.28 47.844 28.424 46.788 27.8 45.444C27.192 44.084 26.888 42.532 26.888 40.788C26.888 39.044 27.192 37.516 27.8 36.204C28.408 34.876 29.256 33.844 30.344 33.108C31.448 32.356 32.704 31.98 34.112 31.98C35.536 31.98 36.792 32.356 37.88 33.108C38.968 33.844 39.816 34.876 40.424 36.204C41.048 37.516 41.36 39.044 41.36 40.788C41.36 42.548 41.048 44.1 40.424 45.444C39.816 46.788 38.968 47.844 37.88 48.612C36.792 49.364 35.536 49.74 34.112 49.74ZM34.112 47.124C34.992 47.124 35.72 46.844 36.296 46.284C36.872 45.724 37.304 44.964 37.592 44.004C37.896 43.044 38.048 41.964 38.048 40.764C38.048 39.564 37.904 38.5 37.616 37.572C37.328 36.644 36.888 35.916 36.296 35.388C35.72 34.86 34.992 34.596 34.112 34.596C33.248 34.596 32.52 34.868 31.928 35.412C31.352 35.94 30.92 36.668 30.632 37.596C30.344 38.524 30.2 39.58 30.2 40.764C30.2 41.98 30.344 43.068 30.632 44.028C30.92 44.988 31.36 45.748 31.952 46.308C32.544 46.852 33.264 47.124 34.112 47.124ZM42.7981 49.5V47.028C44.4301 45.684 45.7901 44.524 46.8781 43.548C47.9821 42.556 48.8621 41.684 49.5181 40.932C50.1741 40.18 50.6381 39.492 50.9101 38.868C51.1981 38.228 51.3421 37.604 51.3421 36.996C51.3421 36.196 51.1181 35.572 50.6701 35.124C50.2221 34.676 49.5981 34.452 48.7981 34.452C47.9661 34.452 47.2861 34.7 46.7581 35.196C46.2301 35.676 45.9101 36.356 45.7981 37.236H42.6301C42.8061 35.62 43.4541 34.34 44.5741 33.396C45.6941 32.452 47.1501 31.98 48.9421 31.98C50.7181 31.98 52.1101 32.444 53.1181 33.372C54.1421 34.284 54.6541 35.556 54.6541 37.188C54.6541 38.004 54.5101 38.796 54.2221 39.564C53.9501 40.316 53.4861 41.108 52.8301 41.94C52.1901 42.756 51.3261 43.66 50.2381 44.652C49.1661 45.628 47.8221 46.74 46.2061 47.988L45.4621 47.028H54.9661V49.5H42.7981Z" fill="url(#paint4_linear_5970_11859)"/>
<defs>
<linearGradient id="paint0_linear_5970_11859" x1="6.75" y1="86.5" x2="85.75" y2="-5.5" gradientUnits="userSpaceOnUse">
<stop stop-color="#156EEB"/>
<stop offset="0.323723" stop-color="#156EEB" stop-opacity="0"/>
</linearGradient>
<linearGradient id="paint1_linear_5970_11859" x1="81.75" y1="-10.5" x2="6.75" y2="82" gradientUnits="userSpaceOnUse">
<stop stop-color="#156EEB"/>
<stop offset="0.576615" stop-color="#156EEB" stop-opacity="0"/>
</linearGradient>
<linearGradient id="paint2_linear_5970_11859" x1="3.25" y1="13.5" x2="71.75" y2="72" gradientUnits="userSpaceOnUse">
<stop stop-color="#156EEB"/>
<stop offset="0.323723" stop-color="#156EEB" stop-opacity="0"/>
</linearGradient>
<linearGradient id="paint3_linear_5970_11859" x1="84.25" y1="86" x2="12.25" y2="35" gradientUnits="userSpaceOnUse">
<stop stop-color="#156EEB"/>
<stop offset="0.576615" stop-color="#156EEB" stop-opacity="0"/>
</linearGradient>
<linearGradient id="paint4_linear_5970_11859" x1="41" y1="26.5" x2="41" y2="55.5" gradientUnits="userSpaceOnUse">
<stop stop-color="#156EEB"/>
<stop offset="1" stop-color="#0048AC"/>
</linearGradient>
</defs>
</svg>
