<svg width="82" height="82" viewBox="0 0 82 82" fill="none" xmlns="http://www.w3.org/2000/svg">
<rect x="0.5" y="0.5" width="81" height="81" rx="40.5" stroke="url(#paint0_linear_5970_11870)"/>
<rect x="0.5" y="0.5" width="81" height="81" rx="40.5" stroke="url(#paint1_linear_5970_11870)"/>
<rect x="10.5" y="10.5" width="61" height="61" rx="30.5" stroke="url(#paint2_linear_5970_11870)"/>
<rect x="10.5" y="10.5" width="61" height="61" rx="30.5" stroke="url(#paint3_linear_5970_11870)"/>
<path d="M34.112 49.74C32.704 49.74 31.456 49.364 30.368 48.612C29.28 47.844 28.424 46.788 27.8 45.444C27.192 44.084 26.888 42.532 26.888 40.788C26.888 39.044 27.192 37.516 27.8 36.204C28.408 34.876 29.256 33.844 30.344 33.108C31.448 32.356 32.704 31.98 34.112 31.98C35.536 31.98 36.792 32.356 37.88 33.108C38.968 33.844 39.816 34.876 40.424 36.204C41.048 37.516 41.36 39.044 41.36 40.788C41.36 42.548 41.048 44.1 40.424 45.444C39.816 46.788 38.968 47.844 37.88 48.612C36.792 49.364 35.536 49.74 34.112 49.74ZM34.112 47.124C34.992 47.124 35.72 46.844 36.296 46.284C36.872 45.724 37.304 44.964 37.592 44.004C37.896 43.044 38.048 41.964 38.048 40.764C38.048 39.564 37.904 38.5 37.616 37.572C37.328 36.644 36.888 35.916 36.296 35.388C35.72 34.86 34.992 34.596 34.112 34.596C33.248 34.596 32.52 34.868 31.928 35.412C31.352 35.94 30.92 36.668 30.632 37.596C30.344 38.524 30.2 39.58 30.2 40.764C30.2 41.98 30.344 43.068 30.632 44.028C30.92 44.988 31.36 45.748 31.952 46.308C32.544 46.852 33.264 47.124 34.112 47.124ZM49.2061 49.74C48.0221 49.74 46.9581 49.524 46.0141 49.092C45.0861 48.66 44.3261 48.02 43.7341 47.172C43.1581 46.324 42.8221 45.3 42.7261 44.1H45.8461C45.9901 45.156 46.3421 45.948 46.9021 46.476C47.4621 47.004 48.2061 47.268 49.1341 47.268C49.9661 47.268 50.6381 47.036 51.1501 46.572C51.6781 46.108 51.9421 45.444 51.9421 44.58C51.9421 43.716 51.6861 43.02 51.1741 42.492C50.6781 41.964 49.8941 41.7 48.8221 41.7H47.0701V39.276H48.7501C49.6941 39.276 50.3901 39.052 50.8381 38.604C51.3021 38.14 51.5341 37.548 51.5341 36.828C51.5341 36.108 51.3261 35.532 50.9101 35.1C50.5101 34.668 49.8941 34.452 49.0621 34.452C48.2941 34.452 47.6301 34.684 47.0701 35.148C46.5261 35.596 46.1981 36.268 46.0861 37.164H42.9181C43.0461 36.092 43.3741 35.172 43.9021 34.404C44.4461 33.636 45.1661 33.044 46.0621 32.628C46.9581 32.196 47.9901 31.98 49.1581 31.98C50.3101 31.98 51.3101 32.172 52.1581 32.556C53.0061 32.924 53.6621 33.452 54.1261 34.14C54.6061 34.812 54.8461 35.62 54.8461 36.564C54.8461 37.38 54.6621 38.092 54.2941 38.7C53.9261 39.308 53.4461 39.788 52.8541 40.14C52.2781 40.476 51.6701 40.644 51.0301 40.644L50.9581 40.14C51.8541 40.14 52.6221 40.348 53.2621 40.764C53.9021 41.164 54.3901 41.708 54.7261 42.396C55.0781 43.084 55.2541 43.86 55.2541 44.724C55.2541 45.732 54.9901 46.62 54.4621 47.388C53.9501 48.14 53.2381 48.724 52.3261 49.14C51.4141 49.54 50.3741 49.74 49.2061 49.74Z" fill="url(#paint4_linear_5970_11870)"/>
<defs>
<linearGradient id="paint0_linear_5970_11870" x1="6.75" y1="86.5" x2="85.75" y2="-5.5" gradientUnits="userSpaceOnUse">
<stop stop-color="#156EEB"/>
<stop offset="0.323723" stop-color="#156EEB" stop-opacity="0"/>
</linearGradient>
<linearGradient id="paint1_linear_5970_11870" x1="81.75" y1="-10.5" x2="6.75" y2="82" gradientUnits="userSpaceOnUse">
<stop stop-color="#156EEB"/>
<stop offset="0.576615" stop-color="#156EEB" stop-opacity="0"/>
</linearGradient>
<linearGradient id="paint2_linear_5970_11870" x1="3.25" y1="13.5" x2="71.75" y2="72" gradientUnits="userSpaceOnUse">
<stop stop-color="#156EEB"/>
<stop offset="0.323723" stop-color="#156EEB" stop-opacity="0"/>
</linearGradient>
<linearGradient id="paint3_linear_5970_11870" x1="84.25" y1="86" x2="12.25" y2="35" gradientUnits="userSpaceOnUse">
<stop stop-color="#156EEB"/>
<stop offset="0.576615" stop-color="#156EEB" stop-opacity="0"/>
</linearGradient>
<linearGradient id="paint4_linear_5970_11870" x1="41" y1="26.5" x2="41" y2="55.5" gradientUnits="userSpaceOnUse">
<stop stop-color="#156EEB"/>
<stop offset="1" stop-color="#0048AC"/>
</linearGradient>
</defs>
</svg>
