<svg width="21" height="20" viewBox="0 0 21 20" fill="none" xmlns="http://www.w3.org/2000/svg">
<path d="M3 4.125C3 1.84683 4.84683 0 7.125 0C9.40317 0 11.25 1.84683 11.25 4.125C11.25 6.40317 9.40317 8.25 7.125 8.25C4.84683 8.25 3 6.40317 3 4.125Z" fill="url(#paint0_linear_5970_11925)"/>
<path d="M12.75 6.375C12.75 4.51104 14.261 3 16.125 3C17.989 3 19.5 4.51104 19.5 6.375C19.5 8.23896 17.989 9.75 16.125 9.75C14.261 9.75 12.75 8.23896 12.75 6.375Z" fill="url(#paint1_linear_5970_11925)"/>
<path d="M0 16.875C0 12.94 3.18997 9.75 7.125 9.75C11.06 9.75 14.25 12.94 14.25 16.875V16.8776C14.25 16.9174 14.2496 16.9574 14.249 16.9969C14.2446 17.2554 14.1074 17.4935 13.8859 17.6268C11.9107 18.8161 9.59657 19.5 7.125 19.5C4.65343 19.5 2.3393 18.8161 0.364061 17.6268C0.142563 17.4935 0.00537291 17.2554 0.00102639 16.9969C0.000344753 16.9564 0 16.9157 0 16.875Z" fill="url(#paint2_linear_5970_11925)"/>
<path d="M15.7498 16.8781C15.7498 16.9262 15.7494 16.9744 15.7486 17.0222C15.7429 17.3608 15.6612 17.6878 15.5157 17.982C15.7172 17.9939 15.9203 18 16.1248 18C17.7206 18 19.232 17.6303 20.5764 16.9713C20.8234 16.8502 20.9843 16.6036 20.9957 16.3287C20.9984 16.2611 20.9998 16.1932 20.9998 16.125C20.9998 13.4326 18.8172 11.25 16.1248 11.25C15.3784 11.25 14.6711 11.4178 14.0387 11.7176C15.1135 13.1561 15.7498 14.9412 15.7498 16.875V16.8781Z" fill="url(#paint3_linear_5970_11925)"/>
<defs>
<linearGradient id="paint0_linear_5970_11925" x1="10.4999" y1="0" x2="10.4999" y2="19.5" gradientUnits="userSpaceOnUse">
<stop stop-color="white"/>
<stop offset="1" stop-color="#5991E0"/>
</linearGradient>
<linearGradient id="paint1_linear_5970_11925" x1="10.4999" y1="0" x2="10.4999" y2="19.5" gradientUnits="userSpaceOnUse">
<stop stop-color="white"/>
<stop offset="1" stop-color="#5991E0"/>
</linearGradient>
<linearGradient id="paint2_linear_5970_11925" x1="10.4999" y1="0" x2="10.4999" y2="19.5" gradientUnits="userSpaceOnUse">
<stop stop-color="white"/>
<stop offset="1" stop-color="#5991E0"/>
</linearGradient>
<linearGradient id="paint3_linear_5970_11925" x1="10.4999" y1="0" x2="10.4999" y2="19.5" gradientUnits="userSpaceOnUse">
<stop stop-color="white"/>
<stop offset="1" stop-color="#5991E0"/>
</linearGradient>
</defs>
</svg>
