<svg width="21" height="17" viewBox="0 0 21 17" fill="none" xmlns="http://www.w3.org/2000/svg">
<path fill-rule="evenodd" clip-rule="evenodd" d="M3 0C1.34315 0 0 1.34315 0 3V13.5C0 15.1569 1.34315 16.5 3 16.5H18C19.6569 16.5 21 15.1569 21 13.5V3C21 1.34315 19.6569 0 18 0H3ZM7.125 3C5.88236 3 4.875 4.00736 4.875 5.25C4.875 6.49264 5.88236 7.5 7.125 7.5C8.36764 7.5 9.375 6.49264 9.375 5.25C9.375 4.00736 8.36764 3 7.125 3ZM3.25191 11.7028C3.8309 10.1265 5.34542 9 7.12496 9C8.90449 9 10.419 10.1265 10.998 11.7028C11.1271 12.0543 10.9771 12.4472 10.6466 12.6233C9.59578 13.1831 8.39627 13.5 7.12496 13.5C5.85364 13.5 4.65413 13.1831 3.60331 12.6233C3.27278 12.4472 3.12279 12.0543 3.25191 11.7028ZM13.5 4.5C13.0858 4.5 12.75 4.83579 12.75 5.25C12.75 5.66421 13.0858 6 13.5 6H17.25C17.6642 6 18 5.66421 18 5.25C18 4.83579 17.6642 4.5 17.25 4.5H13.5ZM12.75 8.25C12.75 7.83579 13.0858 7.5 13.5 7.5H17.25C17.6642 7.5 18 7.83579 18 8.25C18 8.66421 17.6642 9 17.25 9H13.5C13.0858 9 12.75 8.66421 12.75 8.25ZM13.5 10.5C13.0858 10.5 12.75 10.8358 12.75 11.25C12.75 11.6642 13.0858 12 13.5 12H17.25C17.6642 12 18 11.6642 18 11.25C18 10.8358 17.6642 10.5 17.25 10.5H13.5Z" fill="white"/>
<path fill-rule="evenodd" clip-rule="evenodd" d="M3 0C1.34315 0 0 1.34315 0 3V13.5C0 15.1569 1.34315 16.5 3 16.5H18C19.6569 16.5 21 15.1569 21 13.5V3C21 1.34315 19.6569 0 18 0H3ZM7.125 3C5.88236 3 4.875 4.00736 4.875 5.25C4.875 6.49264 5.88236 7.5 7.125 7.5C8.36764 7.5 9.375 6.49264 9.375 5.25C9.375 4.00736 8.36764 3 7.125 3ZM3.25191 11.7028C3.8309 10.1265 5.34542 9 7.12496 9C8.90449 9 10.419 10.1265 10.998 11.7028C11.1271 12.0543 10.9771 12.4472 10.6466 12.6233C9.59578 13.1831 8.39627 13.5 7.12496 13.5C5.85364 13.5 4.65413 13.1831 3.60331 12.6233C3.27278 12.4472 3.12279 12.0543 3.25191 11.7028ZM13.5 4.5C13.0858 4.5 12.75 4.83579 12.75 5.25C12.75 5.66421 13.0858 6 13.5 6H17.25C17.6642 6 18 5.66421 18 5.25C18 4.83579 17.6642 4.5 17.25 4.5H13.5ZM12.75 8.25C12.75 7.83579 13.0858 7.5 13.5 7.5H17.25C17.6642 7.5 18 7.83579 18 8.25C18 8.66421 17.6642 9 17.25 9H13.5C13.0858 9 12.75 8.66421 12.75 8.25ZM13.5 10.5C13.0858 10.5 12.75 10.8358 12.75 11.25C12.75 11.6642 13.0858 12 13.5 12H17.25C17.6642 12 18 11.6642 18 11.25C18 10.8358 17.6642 10.5 17.25 10.5H13.5Z" fill="url(#paint0_linear_5970_11931)"/>
<defs>
<linearGradient id="paint0_linear_5970_11931" x1="10.5" y1="0" x2="10.5" y2="16.5" gradientUnits="userSpaceOnUse">
<stop stop-color="#F8FBFF"/>
<stop offset="1" stop-color="#5991E0"/>
</linearGradient>
</defs>
</svg>
