<svg width="33" height="33" viewBox="0 0 33 33" fill="none" xmlns="http://www.w3.org/2000/svg">
<g clip-path="url(#clip0_6297_2298)">
<path d="M16.5 33C25.6127 33 33 25.6127 33 16.5C33 7.3873 25.6127 0 16.5 0C7.3873 0 0 7.3873 0 16.5C0 25.6127 7.3873 33 16.5 33Z" fill="#338AF3"/>
<path d="M25.826 16.6797H7.17383C7.17383 17.9674 8.29538 19.0112 9.58296 19.0112H9.50536C9.50536 20.2989 10.5492 21.3427 11.8369 21.3427C11.8369 22.6305 12.8807 23.6743 14.1684 23.6743H18.8315C20.1192 23.6743 21.163 22.6305 21.163 21.3427C22.4507 21.3427 23.4945 20.2989 23.4945 19.0112H23.4169C24.7044 19.0112 25.826 17.9674 25.826 16.6797Z" fill="#FFDA44"/>
<path d="M22.957 13.6309C22.957 17.1967 20.0663 20.0874 16.5005 20.0874C12.9346 20.0874 10.0439 17.1967 10.0439 13.6309" fill="#338AF3"/>
<path d="M21.4316 13.6308L19.4165 14.5787L20.4896 16.5304L18.3014 16.1117L18.0241 18.3222L16.5 16.6964L14.9758 18.3222L14.6986 16.1117L12.5104 16.5302L13.5834 14.5787L11.5684 13.6308L13.5835 12.683L12.5104 10.7314L14.6985 11.1499L14.9759 8.93945L16.5 10.5653L18.0242 8.93945L18.3014 11.1499L20.4896 10.7314L19.4166 12.683L21.4316 13.6308Z" fill="#FFDA44"/>
</g>
<defs>
<clipPath id="clip0_6297_2298">
<rect width="33" height="33" fill="white"/>
</clipPath>
</defs>
</svg>
