<svg width="33" height="33" viewBox="0 0 33 33" fill="none" xmlns="http://www.w3.org/2000/svg">
<g clip-path="url(#clip0_6297_4212)">
<path d="M16.5 33C25.6127 33 33 25.6127 33 16.5C33 7.3873 25.6127 0 16.5 0C7.3873 0 0 7.3873 0 16.5C0 25.6127 7.3873 33 16.5 33Z" fill="#F0F0F0"/>
<path d="M22.2389 16.4998C22.2389 17.9346 19.6695 21.5216 16.4998 21.5216C13.3302 21.5216 10.7607 17.9346 10.7607 16.4998C10.7607 13.3302 13.3302 10.7607 16.4998 10.7607C19.6695 10.7607 22.2389 13.3302 22.2389 16.4998Z" fill="#D80027"/>
<path d="M22.2389 16.5C22.2389 19.6697 19.6695 22.2391 16.4998 22.2391C13.3302 22.2391 10.7607 19.6697 10.7607 16.5" fill="#0052B4"/>
<path d="M22.583 21.5732L24.1046 20.0517L25.119 21.0661L23.5974 22.5876L22.583 21.5732Z" fill="black"/>
<path d="M20.0459 24.1094L21.5675 22.5878L22.5819 23.6022L21.0603 25.1238L20.0459 24.1094Z" fill="black"/>
<path d="M25.626 24.6162L27.1476 23.0946L28.1619 24.109L26.6404 25.6306L25.626 24.6162Z" fill="black"/>
<path d="M23.0898 27.1523L24.6114 25.6308L25.6258 26.6452L24.1042 28.1667L23.0898 27.1523Z" fill="black"/>
<path d="M24.1045 23.0947L25.6261 21.5732L26.6405 22.5876L25.1189 24.1091L24.1045 23.0947Z" fill="black"/>
<path d="M21.5684 25.6309L23.0899 24.1093L24.1043 25.1237L22.5828 26.6453L21.5684 25.6309Z" fill="black"/>
<path d="M25.6328 11.4297L21.5753 7.37214L22.5897 6.35775L26.6472 10.4153L25.6328 11.4297Z" fill="black"/>
<path d="M21.5742 10.416L20.0526 8.89444L21.067 7.88009L22.5886 9.40166L21.5742 10.416Z" fill="black"/>
<path d="M24.1104 12.9521L22.5888 11.4306L23.6031 10.4162L25.1247 11.9378L24.1104 12.9521Z" fill="black"/>
<path d="M24.6172 7.37207L23.0956 5.8505L24.11 4.8361L25.6316 6.35767L24.6172 7.37207Z" fill="black"/>
<path d="M27.1543 9.90918L25.6327 8.38761L26.6471 7.37321L28.1687 8.89478L27.1543 9.90918Z" fill="black"/>
<path d="M5.84961 23.0918L9.90715 27.1493L8.89275 28.1637L4.83521 24.1062L5.84961 23.0918Z" fill="black"/>
<path d="M9.90625 24.1055L11.4278 25.627L10.4135 26.6414L8.8919 25.1198L9.90625 24.1055Z" fill="black"/>
<path d="M7.37012 21.5703L8.89169 23.0919L7.87729 24.1063L6.35572 22.5847L7.37012 21.5703Z" fill="black"/>
<path d="M8.89258 20.0479L12.9501 24.1054L11.9357 25.1198L7.87818 21.0622L8.89258 20.0479Z" fill="black"/>
<path d="M9.90625 5.84766L5.84871 9.9052L4.83431 8.8908L8.89185 4.83326L9.90625 5.84766Z" fill="black"/>
<path d="M11.4277 7.36914L7.37019 11.4267L6.35579 10.4123L10.4133 6.35474L11.4277 7.36914Z" fill="black"/>
<path d="M12.9512 8.8916L8.89363 12.9491L7.87928 11.9348L11.9368 7.87725L12.9512 8.8916Z" fill="black"/>
</g>
<defs>
<clipPath id="clip0_6297_4212">
<rect width="33" height="33" fill="white"/>
</clipPath>
</defs>
</svg>
