<svg width="22" height="20" viewBox="0 0 22 20" fill="none" xmlns="http://www.w3.org/2000/svg">
<path fill-rule="evenodd" clip-rule="evenodd" d="M4.03179 1.00764C6.30659 0.673171 8.63346 0.5 11.0003 0.5C13.367 0.5 15.6937 0.67314 17.9683 1.00755C19.8959 1.29095 21.2308 2.9792 21.2308 4.87541V10.74C21.2308 12.6362 19.8959 14.3244 17.9682 14.6078C16.0787 14.8856 14.1532 15.0521 12.1987 15.1005C12.0978 15.103 12.0054 15.1435 11.9391 15.2097L7.86294 19.2859C7.65394 19.4949 7.33962 19.5575 7.06655 19.4444C6.79348 19.3312 6.61544 19.0648 6.61544 18.7692V14.9156C5.74729 14.8361 4.88586 14.7333 4.03178 14.6077C2.1042 14.3243 0.769287 12.6361 0.769287 10.7399V4.87549C0.769287 2.9793 2.1042 1.29107 4.03179 1.00764Z" fill="url(#paint0_linear_5965_57364)"/>
<defs>
<linearGradient id="paint0_linear_5965_57364" x1="11" y1="0.5" x2="11" y2="19.5" gradientUnits="userSpaceOnUse">
<stop stop-color="#F8FBFF"/>
<stop offset="1" stop-color="#5991E0"/>
</linearGradient>
</defs>
</svg>
