<svg width="33" height="33" viewBox="0 0 33 33" fill="none" xmlns="http://www.w3.org/2000/svg">
<g clip-path="url(#clip0_6297_2384)">
<path d="M16.5 33C25.6127 33 33 25.6127 33 16.5C33 7.3873 25.6127 0 16.5 0C7.3873 0 0 7.3873 0 16.5C0 25.6127 7.3873 33 16.5 33Z" fill="#F0F0F0"/>
<path d="M0 16.5C0 23.5945 4.47769 29.6424 10.7609 31.9738V1.02637C4.47769 3.35764 0 9.40566 0 16.5Z" fill="#6DA544"/>
<path d="M33.0002 16.5C33.0002 9.40566 28.5225 3.35764 22.2393 1.02637V31.9739C28.5225 29.6424 33.0002 23.5945 33.0002 16.5Z" fill="#6DA544"/>
</g>
<defs>
<clipPath id="clip0_6297_2384">
<rect width="33" height="33" fill="white"/>
</clipPath>
</defs>
</svg>
