<svg width="48" height="48" viewBox="0 0 48 48" fill="none" xmlns="http://www.w3.org/2000/svg">
<rect x="0.5" y="0.5" width="47" height="47" rx="23.5" fill="#FCFCFD"/>
<rect x="0.5" y="0.5" width="47" height="47" rx="23.5" stroke="#E4E4E7"/>
<rect x="6" y="6" width="36" height="36" rx="18" fill="url(#paint0_linear_6005_12446)"/>
<path fill-rule="evenodd" clip-rule="evenodd" d="M24 15.875C24.3452 15.875 24.625 16.1548 24.625 16.5V17.1297C26.3486 17.1557 28.0465 17.2891 29.7121 17.5235C30.5673 17.6439 31.414 17.7909 32.2513 17.9636C32.5653 18.0284 32.7794 18.3203 32.7468 18.6392C32.7142 18.9581 32.4456 19.2007 32.125 19.2007H30.527L32.5883 27.6378C32.656 27.9149 32.5276 28.2026 32.2761 28.3372C31.4856 28.7603 30.5824 29 29.625 29C28.6677 29 27.7645 28.7603 26.974 28.3372C26.7225 28.2026 26.5941 27.9149 26.6618 27.6378L28.7231 19.2007H24.625V30.2681C25.7021 30.3307 26.7369 30.5538 27.7055 30.9143C27.989 31.0197 28.1562 31.3131 28.1026 31.6108C28.049 31.9084 27.79 32.125 27.4875 32.125H20.5122C20.2097 32.125 19.9507 31.9084 19.8971 31.6108C19.8435 31.3131 20.0107 31.0197 20.2942 30.9143C21.2629 30.5538 22.2978 30.3306 23.375 30.2681V19.2007H19.277L21.3383 27.6378C21.406 27.9149 21.2776 28.2026 21.0261 28.3372C20.2356 28.7603 19.3324 29 18.375 29C17.4177 29 16.5145 28.7603 15.724 28.3372C15.4725 28.2026 15.3441 27.9149 15.4118 27.6378L17.4731 19.2007H15.875C15.5544 19.2007 15.2858 18.9581 15.2533 18.6392C15.2207 18.3203 15.4348 18.0284 15.7487 17.9636C16.586 17.7909 17.4327 17.6439 18.2879 17.5235C19.9536 17.2891 21.6514 17.1557 23.375 17.1297V16.5C23.375 16.1548 23.6548 15.875 24 15.875ZM28.065 27.1612L29.625 20.7758L31.1851 27.1612H28.065ZM19.9351 27.1612L18.375 20.7758L16.815 27.1612H19.9351Z" fill="white"/>
<defs>
<linearGradient id="paint0_linear_6005_12446" x1="24" y1="6" x2="24" y2="42" gradientUnits="userSpaceOnUse">
<stop stop-color="#156EEB"/>
<stop offset="1" stop-color="#0048AC"/>
</linearGradient>
</defs>
</svg>
