<svg width="48" height="48" viewBox="0 0 48 48" fill="none" xmlns="http://www.w3.org/2000/svg">
<rect x="0.5" y="0.5" width="47" height="47" rx="23.5" fill="#FCFCFD"/>
<rect x="0.5" y="0.5" width="47" height="47" rx="23.5" stroke="#E4E4E7"/>
<rect x="6" y="6" width="36" height="36" rx="18" fill="url(#paint0_linear_6005_12574)"/>
<path d="M23.375 17.7774C22.1121 16.969 20.6104 16.5 19 16.5C18.0515 16.5 17.1396 16.6628 16.2917 16.9625C16.042 17.0508 15.875 17.2869 15.875 17.5518V29.4268C15.875 29.6297 15.9735 29.8199 16.1391 29.9371C16.3048 30.0542 16.517 30.0837 16.7083 30.016C17.4243 29.763 18.1953 29.625 19 29.625C20.6625 29.625 22.186 30.2144 23.375 31.1964V17.7774Z" fill="white"/>
<path d="M24.625 31.1964C25.814 30.2144 27.3375 29.625 29 29.625C29.8047 29.625 30.5757 29.763 31.2917 30.016C31.483 30.0837 31.6952 30.0542 31.8609 29.9371C32.0265 29.8199 32.125 29.6297 32.125 29.4268V17.5518C32.125 17.2869 31.958 17.0508 31.7083 16.9625C30.8604 16.6628 29.9485 16.5 29 16.5C27.3896 16.5 25.8879 16.969 24.625 17.7774V31.1964Z" fill="white"/>
<defs>
<linearGradient id="paint0_linear_6005_12574" x1="24" y1="6" x2="24" y2="42" gradientUnits="userSpaceOnUse">
<stop stop-color="#156EEB"/>
<stop offset="1" stop-color="#0048AC"/>
</linearGradient>
</defs>
</svg>
