<svg width="33" height="33" viewBox="0 0 33 33" fill="none" xmlns="http://www.w3.org/2000/svg">
<g clip-path="url(#clip0_6297_2344)">
<path d="M16.5 33C25.6127 33 33 25.6127 33 16.5C33 7.3873 25.6127 0 16.5 0C7.3873 0 0 7.3873 0 16.5C0 25.6127 7.3873 33 16.5 33Z" fill="#F0F0F0"/>
<path d="M21.8588 12.1954H19.7C19.7178 12.4326 19.728 12.672 19.728 12.9127C19.728 14.5089 19.329 16.0559 18.6335 17.1572C18.4189 17.4968 18.0584 17.9765 17.5757 18.3001V12.1953H15.4236V18.3001C14.941 17.9765 14.5804 17.4969 14.3658 17.1572C13.6703 16.0559 13.2714 14.5089 13.2714 12.9127C13.2714 12.672 13.2815 12.4326 13.2993 12.1954H11.1405C11.1267 12.4315 11.1191 12.6706 11.1191 12.9127C11.1191 17.3378 13.4825 20.8041 16.4996 20.8041C19.5166 20.8041 21.88 17.3378 21.88 12.9127C21.8801 12.6706 21.8726 12.4315 21.8588 12.1954Z" fill="#D80027"/>
<path d="M6.81567 7.89132H8.96782V9.32611H11.12V7.89132H13.2721V9.32611H15.4243V7.89132H17.5764V9.32611H19.7286V7.89132H21.8807V9.32611H24.0329V7.89132H26.1851V9.32611H31.363C28.6943 3.80692 23.042 0 16.5005 0C9.95892 0 4.30657 3.80692 1.6377 9.32611H6.81567V7.89132Z" fill="#6DA544"/>
<path d="M26.1852 23.6738V25.1086H24.0331V23.6738H21.8809V25.1086H19.7288V23.6738H17.5766V25.1086H15.4245V23.6738H13.2723V25.1086H11.1202V23.6738H8.96782V25.1086H6.81567V23.6738H1.6377C4.30657 29.193 9.95885 32.9999 16.5005 32.9999C23.0421 32.9999 28.6943 29.193 31.3632 23.6738H26.1852Z" fill="#D80027"/>
</g>
<defs>
<clipPath id="clip0_6297_2344">
<rect width="33" height="33" fill="white"/>
</clipPath>
</defs>
</svg>
