<svg width="25" height="24" viewBox="0 0 25 24" fill="none" xmlns="http://www.w3.org/2000/svg">
<rect x="0.5" width="24" height="24" rx="12" fill="url(#paint0_linear_6176_4494)"/>
<path fill-rule="evenodd" clip-rule="evenodd" d="M12.5 5.5C8.91015 5.5 6 8.41015 6 12C6 15.5899 8.91015 18.5 12.5 18.5C16.0899 18.5 19 15.5899 19 12C19 8.41015 16.0899 5.5 12.5 5.5ZM13 10C13 9.72386 12.7761 9.5 12.5 9.5C12.2239 9.5 12 9.72386 12 10V11.5H10.5C10.2239 11.5 10 11.7239 10 12C10 12.2761 10.2239 12.5 10.5 12.5H12V14C12 14.2761 12.2239 14.5 12.5 14.5C12.7761 14.5 13 14.2761 13 14V12.5H14.5C14.7761 12.5 15 12.2761 15 12C15 11.7239 14.7761 11.5 14.5 11.5H13V10Z" fill="#FCFCFD"/>
<defs>
<linearGradient id="paint0_linear_6176_4494" x1="12.5" y1="0" x2="12.5" y2="24" gradientUnits="userSpaceOnUse">
<stop stop-color="#156EEB"/>
<stop offset="1" stop-color="#0048AC"/>
</linearGradient>
</defs>
</svg>
