<svg width="56" height="41" viewBox="0 0 56 41" fill="none" xmlns="http://www.w3.org/2000/svg">
<g style="mix-blend-mode:plus-lighter" filter="url(#filter0_f_5970_15263)">
<path fill-rule="evenodd" clip-rule="evenodd" d="M16.5 20.75C16.5 15.3652 20.8652 11 26.25 11C31.6348 11 36 15.3652 36 20.75C36 26.1348 31.6348 30.5 26.25 30.5C20.8652 30.5 16.5 26.1348 16.5 20.75ZM27.8777 16.8333C26.9889 16.0556 25.5116 16.0556 24.6228 16.8333C24.3111 17.106 23.8372 17.0745 23.5645 16.7627C23.2917 16.451 23.3233 15.9772 23.635 15.7044C25.0894 14.4319 27.4111 14.4319 28.8654 15.7044C30.3785 17.0283 30.3785 19.2217 28.8654 20.5456C28.6088 20.7702 28.3261 20.9541 28.028 21.0984C27.3518 21.4256 27.0002 21.8722 27.0002 22.25V23C27.0002 23.4142 26.6644 23.75 26.2502 23.75C25.836 23.75 25.5002 23.4142 25.5002 23V22.25C25.5002 20.971 26.5595 20.1426 27.3746 19.7482C27.5573 19.6598 27.7265 19.549 27.8777 19.4167C28.7077 18.6904 28.7077 17.5596 27.8777 16.8333ZM26.25 26.75C26.6642 26.75 27 26.4142 27 26C27 25.5858 26.6642 25.25 26.25 25.25C25.8358 25.25 25.5 25.5858 25.5 26C25.5 26.4142 25.8358 26.75 26.25 26.75Z" fill="url(#paint0_linear_5970_15263)" fill-opacity="0.7"/>
</g>
<path fill-rule="evenodd" clip-rule="evenodd" d="M16.5 20.75C16.5 15.3652 20.8652 11 26.25 11C31.6348 11 36 15.3652 36 20.75C36 26.1348 31.6348 30.5 26.25 30.5C20.8652 30.5 16.5 26.1348 16.5 20.75ZM27.8777 16.8333C26.9889 16.0556 25.5116 16.0556 24.6228 16.8333C24.3111 17.106 23.8372 17.0745 23.5645 16.7627C23.2917 16.451 23.3233 15.9772 23.635 15.7044C25.0894 14.4319 27.4111 14.4319 28.8654 15.7044C30.3785 17.0283 30.3785 19.2217 28.8654 20.5456C28.6088 20.7702 28.3261 20.9541 28.028 21.0984C27.3518 21.4256 27.0002 21.8722 27.0002 22.25V23C27.0002 23.4142 26.6644 23.75 26.2502 23.75C25.836 23.75 25.5002 23.4142 25.5002 23V22.25C25.5002 20.971 26.5595 20.1426 27.3746 19.7482C27.5573 19.6598 27.7265 19.549 27.8777 19.4167C28.7077 18.6904 28.7077 17.5596 27.8777 16.8333ZM26.25 26.75C26.6642 26.75 27 26.4142 27 26C27 25.5858 26.6642 25.25 26.25 25.25C25.8358 25.25 25.5 25.5858 25.5 26C25.5 26.4142 25.8358 26.75 26.25 26.75Z" fill="url(#paint1_linear_5970_15263)"/>
<defs>
<filter id="filter0_f_5970_15263" x="-3.5" y="-9" width="59.5" height="59.5" filterUnits="userSpaceOnUse" color-interpolation-filters="sRGB">
<feFlood flood-opacity="0" result="BackgroundImageFix"/>
<feBlend mode="normal" in="SourceGraphic" in2="BackgroundImageFix" result="shape"/>
<feGaussianBlur stdDeviation="10" result="effect1_foregroundBlur_5970_15263"/>
</filter>
<linearGradient id="paint0_linear_5970_15263" x1="26.25" y1="11" x2="26.25" y2="30.5" gradientUnits="userSpaceOnUse">
<stop stop-color="white"/>
<stop offset="1" stop-color="#5991E0"/>
</linearGradient>
<linearGradient id="paint1_linear_5970_15263" x1="26.25" y1="11" x2="26.25" y2="30.5" gradientUnits="userSpaceOnUse">
<stop stop-color="white"/>
<stop offset="1" stop-color="#5991E0"/>
</linearGradient>
</defs>
</svg>
