<svg width="33" height="33" viewBox="0 0 33 33" fill="none" xmlns="http://www.w3.org/2000/svg">
<g clip-path="url(#clip0_6297_2350)">
<path d="M22.2392 1.02622C20.4516 0.363064 18.5183 8.57854e-09 16.5001 8.57854e-09C14.4818 -6.44445e-05 12.5484 0.363064 10.761 1.02622L9.32617 16.4999L10.761 31.9736C12.5484 32.637 14.4817 33 16.5001 33C18.5183 33 20.4517 32.637 22.2392 31.9736L23.6739 16.5L22.2392 1.02622Z" fill="#FFDA44"/>
<path d="M33.0002 16.5001C33.0002 9.40572 28.5225 3.35764 22.2393 1.02637V31.9739C28.5225 29.6424 33.0001 23.5946 33.0002 16.5001Z" fill="#D80027"/>
<path d="M0 16.5C0 23.5945 4.47769 29.6423 10.7608 31.9738L10.7608 1.02637C4.47769 3.35764 0 9.40553 0 16.5H0Z" fill="#0052B4"/>
</g>
<defs>
<clipPath id="clip0_6297_2350">
<rect width="33" height="33" fill="white"/>
</clipPath>
</defs>
</svg>
