<svg width="74" height="74" viewBox="0 0 74 74" fill="none" xmlns="http://www.w3.org/2000/svg">
<rect x="0.5" y="0.5" width="73" height="73" rx="36.5" fill="#FCFCFD"/>
<rect x="0.5" y="0.5" width="73" height="73" rx="36.5" stroke="#E4E4E7"/>
<rect x="10" y="10" width="54" height="54" rx="27" fill="url(#paint0_linear_6011_13131)"/>
<path fill-rule="evenodd" clip-rule="evenodd" d="M33.6438 31.4796C37.2445 26.8537 42.8682 23.8753 49.1875 23.875C49.4361 23.875 49.6746 23.9738 49.8504 24.1496C50.0262 24.3254 50.125 24.5639 50.125 24.8125C50.125 31.132 47.1466 36.7563 42.5206 40.3573C42.5894 40.7911 42.625 41.2354 42.625 41.6875C42.625 46.3474 38.8474 50.125 34.1875 50.125C33.6697 50.125 33.25 49.7053 33.25 49.1875V44.0231C33.2384 44.0147 33.227 44.0061 33.2158 43.9972C32.0258 43.0536 30.9475 41.9753 30.0039 40.7853C29.9947 40.7737 29.9858 40.7619 29.9772 40.75H24.8125C24.2947 40.75 23.875 40.3303 23.875 39.8125C23.875 35.1526 27.6526 31.375 32.3125 31.375C32.765 31.375 33.2097 31.4107 33.6438 31.4796ZM40.75 30.4375C39.1967 30.4375 37.9375 31.6967 37.9375 33.25C37.9375 34.8033 39.1967 36.0625 40.75 36.0625C42.3033 36.0625 43.5625 34.8033 43.5625 33.25C43.5625 31.6967 42.3033 30.4375 40.75 30.4375Z" fill="white"/>
<path d="M28.5755 43.5523C28.9905 43.2427 29.0759 42.6553 28.7663 42.2403C28.4567 41.8253 27.8693 41.7398 27.4543 42.0494C25.8526 43.2442 24.8125 45.157 24.8125 47.3124C24.8125 47.6568 24.8391 47.9957 24.8906 48.3269C24.9532 48.7302 25.2697 49.0467 25.673 49.1093C26.0042 49.1608 26.3431 49.1874 26.6875 49.1874C28.8429 49.1874 30.7556 48.1473 31.9505 46.5456C32.2601 46.1306 32.1746 45.5432 31.7596 45.2336C31.3446 44.924 30.7572 45.0094 30.4476 45.4244C29.5914 46.5722 28.226 47.3124 26.6875 47.3124C26.6875 45.7739 27.4277 44.4085 28.5755 43.5523Z" fill="white"/>
<defs>
<linearGradient id="paint0_linear_6011_13131" x1="37" y1="10" x2="37" y2="64" gradientUnits="userSpaceOnUse">
<stop stop-color="#156EEB"/>
<stop offset="1" stop-color="#0048AC"/>
</linearGradient>
</defs>
</svg>
