<svg width="75" height="74" viewBox="0 0 75 74" fill="none" xmlns="http://www.w3.org/2000/svg">
<rect x="1.16602" y="0.5" width="73" height="73" rx="36.5" fill="#FCFCFD"/>
<rect x="1.16602" y="0.5" width="73" height="73" rx="36.5" stroke="#E4E4E7"/>
<rect x="10.666" y="10" width="54" height="54" rx="27" fill="url(#paint0_linear_6011_13122)"/>
<path d="M42.3532 32.3125C42.871 32.3125 43.2907 32.7322 43.2907 33.25C43.2907 34.6502 42.6757 35.9078 41.7041 36.7654C41.3159 37.108 40.7234 37.0711 40.3808 36.6829C40.0382 36.2947 40.0751 35.7022 40.4633 35.3596C41.0488 34.8429 41.4157 34.0899 41.4157 33.25C41.4157 32.7322 41.8355 32.3125 42.3532 32.3125Z" fill="white"/>
<path fill-rule="evenodd" clip-rule="evenodd" d="M37.666 24.8125C30.935 24.8125 25.4785 30.269 25.4785 37C25.4785 43.731 30.935 49.1875 37.666 49.1875C44.397 49.1875 49.8535 43.731 49.8535 37C49.8535 30.269 44.397 24.8125 37.666 24.8125ZM28.3846 41.5002C30.056 44.9408 33.584 47.3125 37.666 47.3125C38.4938 47.3125 39.2989 47.215 40.0703 47.0307C39.7116 46.0754 38.7965 45.4375 37.7695 45.4375C37.1688 45.4375 36.6561 45.0032 36.5574 44.4106L36.4662 43.8634C36.3486 43.1579 36.7793 42.4766 37.467 42.2801L38.7029 41.927C39.2369 41.7744 39.6824 41.4046 39.9308 40.9079L39.9765 40.8166C40.2842 40.2012 40.9131 39.8125 41.6011 39.8125C42.0829 39.8125 42.5449 40.0039 42.8855 40.3445L43.291 40.75H44.0764C45.1246 40.75 46.071 41.3308 46.5545 42.2322C47.4594 40.6983 47.9785 38.9098 47.9785 37C47.9785 31.6273 43.8698 27.2141 38.6231 26.7313C38.6785 27.06 38.8495 27.3613 39.1095 27.5779L40.4453 28.691C40.9974 29.1511 41.1137 29.9534 40.7151 30.5514L40.0763 31.5096C39.7294 32.03 39.2189 32.4199 38.6255 32.6177L38.4478 32.6769C37.5819 32.9655 37.2275 33.9985 37.7338 34.7579C38.1956 35.4506 37.9458 36.3914 37.2011 36.7637L33.916 38.4062L34.4453 39.7294C34.676 40.3063 34.426 40.9637 33.8703 41.2416C33.3539 41.4998 32.7267 41.3518 32.3803 40.8899L31.5312 39.7578C30.904 38.9215 29.616 39.0376 29.1484 39.9726L28.3846 41.5002Z" fill="white"/>
<defs>
<linearGradient id="paint0_linear_6011_13122" x1="37.666" y1="10" x2="37.666" y2="64" gradientUnits="userSpaceOnUse">
<stop stop-color="#156EEB"/>
<stop offset="1" stop-color="#0048AC"/>
</linearGradient>
</defs>
</svg>
