<svg width="75" height="74" viewBox="0 0 75 74" fill="none" xmlns="http://www.w3.org/2000/svg">
<rect x="0.832031" y="0.5" width="73" height="73" rx="36.5" fill="#FCFCFD"/>
<rect x="0.832031" y="0.5" width="73" height="73" rx="36.5" stroke="#E4E4E7"/>
<rect x="10.332" y="10" width="54" height="54" rx="27" fill="url(#paint0_linear_6011_13140)"/>
<path d="M31.698 45.125C31.1673 45.125 30.6732 44.8294 30.479 44.3355C30.0614 43.2734 29.832 42.1166 29.832 40.9062C29.832 38.7199 30.5805 36.7083 31.8351 35.1138C32.0237 34.8741 32.3002 34.7276 32.5847 34.6175C33.1757 34.3886 33.6977 33.9746 34.0997 33.4621C35.0661 32.2298 36.2841 31.2042 37.6764 30.4628C38.5791 29.982 39.3624 29.2679 39.7422 28.3183C40.008 27.6539 40.1445 26.9448 40.1445 26.2292V25.4375C40.1445 24.9197 40.5643 24.5 41.082 24.5C42.6353 24.5 43.8945 25.7592 43.8945 27.3125C43.8945 28.752 43.5701 30.1158 42.9903 31.3346C42.6583 32.0326 43.1241 32.9375 43.8969 32.9375H47.8042C49.0875 32.9375 50.2362 33.805 50.372 35.0811C50.4282 35.6089 50.457 36.1448 50.457 36.6875C50.457 40.247 49.2172 43.517 47.1458 46.089C46.6613 46.6906 45.9123 47 45.1398 47H40.1198C39.5153 47 38.9146 46.9025 38.3411 46.7113L34.448 45.4137C33.8744 45.2225 33.2738 45.125 32.6692 45.125H31.698Z" fill="white"/>
<path d="M25.2464 35.4089C24.5755 37.1112 24.207 38.9657 24.207 40.9062C24.207 42.4313 24.4346 43.9033 24.8577 45.2899C25.1819 46.3525 26.2123 47 27.3231 47H28.4579C29.0148 47 29.3587 46.3772 29.1123 45.8778C28.3726 44.3786 27.957 42.691 27.957 40.9062C27.957 38.771 28.5519 36.7747 29.5849 35.0741C29.8912 34.5699 29.5496 33.875 28.9597 33.875H27.6437C26.6037 33.875 25.6277 34.4413 25.2464 35.4089Z" fill="white"/>
<defs>
<linearGradient id="paint0_linear_6011_13140" x1="37.332" y1="10" x2="37.332" y2="64" gradientUnits="userSpaceOnUse">
<stop stop-color="#156EEB"/>
<stop offset="1" stop-color="#0048AC"/>
</linearGradient>
</defs>
</svg>
