<svg width="33" height="33" viewBox="0 0 33 33" fill="none" xmlns="http://www.w3.org/2000/svg">
<g clip-path="url(#clip0_6297_2607)">
<path d="M16.5 33C25.6127 33 33 25.6127 33 16.5C33 7.3873 25.6127 0 16.5 0C7.3873 0 0 7.3873 0 16.5C0 25.6127 7.3873 33 16.5 33Z" fill="#F0F0F0"/>
<path d="M16.5 0C7.38736 0 0 7.38736 0 16.5C0 18.5183 0.363064 20.4517 1.02629 22.2391H31.9738C32.637 20.4517 33 18.5183 33 16.5C33 7.38736 25.6126 0 16.5 0Z" fill="#0052B4"/>
<path d="M16.5001 0C9.40566 0 3.3577 4.47769 1.02637 10.7609H31.9739C29.6425 4.47769 23.5945 0 16.5001 0Z" fill="#D80027"/>
<path d="M4.2666 9.32617V17.5572C4.2666 22.2394 10.3833 23.674 10.3833 23.674C10.3833 23.674 16.4999 22.2394 16.4999 17.5572V9.32617H4.2666Z" fill="#D80027"/>
<path d="M6.79688 10.7604H13.9708V7.89085L12.536 8.60821L10.3839 6.45605L8.23167 8.60821L6.79688 7.89085V10.7604Z" fill="#FFDA44"/>
<path d="M15.0654 18.7031L10.4023 14.04L5.73926 18.7031L7.26106 20.2249L10.4023 17.0836L13.5436 20.2249L15.0654 18.7031Z" fill="#FFDA44"/>
<path d="M15.0654 14.3483H12.8897C13.012 14.1372 13.0832 13.8926 13.0832 13.6311C13.0832 12.8386 12.4408 12.1963 11.6484 12.1963C11.1009 12.1963 10.6254 12.503 10.3835 12.9538C10.1416 12.503 9.66613 12.1963 9.1186 12.1963C8.32621 12.1963 7.68381 12.8386 7.68381 13.6311C7.68381 13.8926 7.75496 14.1372 7.8773 14.3483H5.73926C5.73926 15.1408 6.42949 15.7831 7.22181 15.7831H7.17405C7.17405 16.5756 7.81639 17.2179 8.60884 17.2179C8.60884 17.9195 9.11273 18.5024 9.77821 18.6272L8.64771 21.1797C9.1895 21.3999 9.78156 21.5223 10.4024 21.5223C11.0232 21.5223 11.6153 21.3999 12.157 21.1797L11.0265 18.6272C11.692 18.5026 12.1959 17.9196 12.1959 17.2179C12.9884 17.2179 13.6307 16.5756 13.6307 15.7831H13.5829C14.3752 15.7831 15.0654 15.1407 15.0654 14.3483Z" fill="#F0F0F0"/>
</g>
<defs>
<clipPath id="clip0_6297_2607">
<rect width="33" height="33" fill="white"/>
</clipPath>
</defs>
</svg>
