<svg width="21" height="22" viewBox="0 0 21 22" fill="none" xmlns="http://www.w3.org/2000/svg">
<path d="M10.8304 0.500984C10.6767 0.491996 10.5257 0.544871 10.4107 0.647975C10.2957 0.751079 10.2261 0.895967 10.2171 1.05077C10.2082 1.20556 10.2607 1.35759 10.3631 1.47341C10.4655 1.58922 10.6094 1.65933 10.7631 1.66832C12.8341 1.78777 14.805 2.60514 16.3588 3.98897H15.4397C15.2858 3.98897 15.1383 4.05053 15.0294 4.16009C14.9206 4.26966 14.8595 4.41827 14.8595 4.57322C14.8595 4.72818 14.9206 4.87678 15.0294 4.98635C15.1383 5.09592 15.2858 5.15748 15.4397 5.15748H17.7606C17.9145 5.15748 18.0621 5.09592 18.1709 4.98635C18.2797 4.87678 18.3408 4.72818 18.3408 4.57322V2.23621C18.3408 2.08126 18.2797 1.93265 18.1709 1.82308C18.0621 1.71352 17.9145 1.65196 17.7606 1.65196C17.6067 1.65196 17.4591 1.71352 17.3503 1.82308C17.2415 1.93265 17.1804 2.08126 17.1804 2.23621V3.16167C15.4245 1.57552 13.1854 0.637327 10.8304 0.500984ZM4.99573 18.011H4.07666C5.62981 19.3945 7.59982 20.2118 9.66999 20.3317C9.82372 20.3407 9.96761 20.4108 10.07 20.5266C10.1724 20.6424 10.2249 20.7944 10.216 20.9492C10.2071 21.104 10.1374 21.2489 10.0224 21.352C9.9074 21.4551 9.75642 21.508 9.60269 21.499C7.24852 21.3621 5.01038 20.4239 3.25507 18.8383V19.7638C3.25507 19.9187 3.19394 20.0673 3.08512 20.1769C2.97631 20.2865 2.82873 20.348 2.67484 20.348C2.52096 20.348 2.37338 20.2865 2.26457 20.1769C2.15575 20.0673 2.09462 19.9187 2.09462 19.7638V17.4268C2.09462 17.2718 2.15575 17.1232 2.26457 17.0136C2.37338 16.9041 2.52096 16.8425 2.67484 16.8425H4.99573C5.14962 16.8425 5.2972 16.9041 5.40601 17.0136C5.51482 17.1232 5.57595 17.2718 5.57595 17.4268C5.57595 17.5817 5.51482 17.7303 5.40601 17.8399C5.2972 17.9495 5.14962 18.011 4.99573 18.011ZM6.64356 4.24137C5.22344 3.82076 3.69776 3.95815 2.37429 4.62581C2.25648 4.68589 2.14148 4.7514 2.02964 4.82211L2.00643 4.83731L1.99947 4.84198L1.99715 4.84315L1.99483 4.84548C1.87238 4.93495 1.78948 5.06904 1.76379 5.21917C1.73811 5.3693 1.77167 5.52359 1.85733 5.64916C1.94299 5.77473 2.07396 5.86164 2.22234 5.89137C2.37072 5.92111 2.52476 5.89131 2.65164 5.80833L2.6586 5.80366C2.73703 5.75456 2.81757 5.70894 2.89997 5.66694C3.96073 5.1338 5.18272 5.02524 6.3198 5.36313C7.14603 5.60852 7.51041 6.05606 7.69608 6.51411C7.87595 6.95814 7.90032 7.44541 7.90264 7.8836C7.27252 7.70949 6.49618 7.53772 5.67343 7.50383C4.47121 7.45359 3.12394 7.6943 1.95189 8.67584C0.921416 9.54054 0.682365 10.8621 1.01541 11.9967C1.18936 12.6028 1.5242 13.1496 1.98387 13.5783C2.44354 14.007 3.01064 14.3013 3.62409 14.4296C4.67545 14.6492 5.78483 14.3478 6.68998 13.9458C7.10923 13.7591 7.51485 13.5428 7.9038 13.2984V13.9213C7.9038 14.0762 7.96493 14.2248 8.07374 14.3344C8.18256 14.444 8.33014 14.5055 8.48402 14.5055C8.63791 14.5055 8.78549 14.444 8.8943 14.3344C9.00311 14.2248 9.06424 14.0762 9.06424 13.9213V8.01447C9.06424 7.55642 9.06424 6.79922 8.77065 6.07358C8.45501 5.29302 7.81909 4.58725 6.64472 4.2402L6.64356 4.24137ZM7.9038 9.09767V11.8846C7.38187 12.2768 6.81831 12.6095 6.22348 12.8766C5.40537 13.2389 4.56405 13.4328 3.85966 13.2856C3.45204 13.2001 3.07539 13.004 2.77043 12.7186C2.46548 12.4331 2.24382 12.0692 2.12944 11.666C1.90431 10.8972 2.08186 10.0886 2.69573 9.57442C3.58115 8.83359 4.61278 8.62793 5.62585 8.67117C6.46369 8.70622 7.25743 8.90721 7.90496 9.09767H7.9038ZM15.0521 6.35987C15.197 6.41169 15.3156 6.51932 15.3817 6.65911C15.4479 6.79889 15.4562 6.9594 15.4049 7.10537C15.2657 7.50383 15.1125 8.05186 14.9953 8.50057C15.6851 8.39279 16.3703 8.25713 17.0493 8.09393C17.1974 8.06359 17.3516 8.09271 17.4787 8.17509C17.6059 8.25747 17.6962 8.38659 17.7302 8.53496C17.7642 8.68334 17.7394 8.83922 17.661 8.96943C17.5826 9.09964 17.4567 9.19387 17.3104 9.23205C16.4122 9.44238 15.5674 9.61298 14.711 9.71815C14.5984 10.2487 14.5125 10.7324 14.4475 11.1753C14.9629 11.0584 15.4908 11.0074 16.0188 11.0234V11C16.0188 10.845 16.0799 10.6964 16.1887 10.5869C16.2975 10.4773 16.4451 10.4157 16.599 10.4157C16.7529 10.4157 16.9005 10.4773 17.0093 10.5869C17.1181 10.6964 17.1792 10.845 17.1792 11C17.1792 11.0666 17.1792 11.132 17.1769 11.1975C18.5021 11.5597 19.4746 12.4489 19.8993 13.6011C20.6118 15.5408 19.6498 17.8696 16.8357 19.1293C16.7661 19.1605 16.691 19.1776 16.6148 19.1796C16.5386 19.1817 16.4627 19.1685 16.3916 19.141C16.3204 19.1135 16.2553 19.0722 16.2 19.0193C16.1447 18.9665 16.1003 18.9032 16.0693 18.8331C16.0382 18.7629 16.0213 18.6874 16.0193 18.6106C16.0173 18.5339 16.0303 18.4575 16.0576 18.3858C16.0849 18.3142 16.126 18.2486 16.1785 18.1929C16.2309 18.1372 16.2938 18.0925 16.3634 18.0613C18.7702 16.9851 19.2587 15.2241 18.812 14.0066C18.5567 13.3183 17.966 12.6932 17.0783 12.387C16.8114 14.183 16.0431 15.6121 15.1241 16.6006C15.2216 16.8028 15.3179 17.0096 15.3979 17.2106C15.4261 17.282 15.4401 17.3582 15.439 17.435C15.438 17.5118 15.4219 17.5876 15.3917 17.6581C15.3615 17.7287 15.3179 17.7925 15.2632 17.846C15.2085 17.8996 15.1439 17.9417 15.073 17.9701C15.0022 17.9985 14.9264 18.0126 14.8502 18.0115C14.7739 18.0104 14.6986 17.9942 14.6286 17.9638C14.5585 17.9335 14.4951 17.8895 14.442 17.8344C14.3888 17.7794 14.3469 17.7143 14.3187 17.643C14.2868 17.5624 14.2531 17.4825 14.2178 17.4034C13.7304 17.754 13.2233 17.9958 12.7359 18.1092C12.0675 18.2634 11.3341 18.1886 10.8362 17.6535C10.0889 16.8484 10.0355 15.5116 10.5485 14.3197C10.9894 13.2961 11.8632 12.3064 13.2175 11.6322C13.279 11.0853 13.373 10.4847 13.5053 9.81864C12.9935 9.84084 12.469 9.835 11.9178 9.79761C11.8398 9.79516 11.7631 9.77692 11.6923 9.74396C11.6215 9.71099 11.5581 9.664 11.5057 9.60577C11.4534 9.54755 11.4132 9.47929 11.3876 9.40508C11.3621 9.33088 11.3516 9.25224 11.3569 9.17388C11.3623 9.09552 11.3832 9.01904 11.4185 8.94902C11.4539 8.87899 11.5028 8.81686 11.5626 8.76633C11.6223 8.7158 11.6915 8.67792 11.7661 8.65494C11.8407 8.63197 11.9191 8.62437 11.9967 8.63261C12.6117 8.67351 13.1919 8.67234 13.764 8.63495C13.9195 7.98747 14.1023 7.34694 14.3118 6.71509C14.3632 6.56918 14.4701 6.4498 14.6089 6.3832C14.7478 6.31659 14.9072 6.3082 15.0521 6.35987ZM13.1188 13.0332C12.3564 13.5485 11.8725 14.1795 11.6137 14.7836C11.2076 15.7243 11.3642 16.5095 11.6834 16.8542C11.7924 16.9711 12.0303 17.0716 12.4759 16.9687C12.8368 16.8846 13.2697 16.6743 13.713 16.3249C13.5155 15.873 13.3673 15.4009 13.2708 14.9168C13.1532 14.2963 13.1026 13.6647 13.12 13.0332H13.1188ZM14.6042 15.4158C15.225 14.6165 15.7391 13.531 15.9352 12.1872C15.4838 12.1755 14.9883 12.2339 14.4475 12.3765L14.3083 12.4267C14.2387 13.4001 14.2955 14.1211 14.4081 14.6878C14.4615 14.9566 14.5288 15.1949 14.6054 15.4158H14.6042Z" fill="url(#paint0_linear_5981_38367)"/>
<defs>
<linearGradient id="paint0_linear_5981_38367" x1="10.5" y1="0.5" x2="10.5" y2="21.5" gradientUnits="userSpaceOnUse">
<stop stop-color="white"/>
<stop offset="1" stop-color="#5991E0"/>
</linearGradient>
</defs>
</svg>
