<svg width="33" height="33" viewBox="0 0 33 33" fill="none" xmlns="http://www.w3.org/2000/svg">
<g clip-path="url(#clip0_6297_2363)">
<path d="M0 16.5001C0 18.5183 0.363064 20.4517 1.02629 22.2392L16.5 23.674L31.9737 22.2392C32.6369 20.4517 33 18.5183 33 16.5001C33 14.4818 32.6369 12.5484 31.9737 10.761L16.5 9.32617L1.02629 10.761C0.363064 12.5484 0 14.4818 0 16.5001H0Z" fill="#FFDA44"/>
<path d="M31.9738 10.7609C29.6425 4.47775 23.5945 0 16.5001 0C9.40566 0 3.3577 4.47775 1.02637 10.7609H31.9738Z" fill="#D80027"/>
<path d="M1.02637 22.2393C3.3577 28.5224 9.40566 33.0002 16.5001 33.0002C23.5945 33.0002 29.6425 28.5224 31.9738 22.2393H1.02637Z" fill="#D80027"/>
</g>
<defs>
<clipPath id="clip0_6297_2363">
<rect width="33" height="33" fill="white"/>
</clipPath>
</defs>
</svg>
