<svg width="33" height="33" viewBox="0 0 33 33" fill="none" xmlns="http://www.w3.org/2000/svg">
<g clip-path="url(#clip0_6297_2596)">
<path d="M16.5 33C25.6127 33 33 25.6127 33 16.5C33 7.3873 25.6127 0 16.5 0C7.3873 0 0 7.3873 0 16.5C0 25.6127 7.3873 33 16.5 33Z" fill="#FFDA44"/>
<path d="M12.9131 14.3478H32.8604C31.8057 6.25208 24.8833 0 16.5 0C15.2681 0 14.068 0.136189 12.9131 0.392197V14.3478H12.9131Z" fill="#0052B4"/>
<path d="M8.60866 14.3474V2.00586C4.07799 4.47789 0.834646 9.01224 0.139648 14.3475H8.60866V14.3474Z" fill="#0052B4"/>
<path d="M8.60859 18.6523H0.139648C0.834646 23.9876 4.07799 28.5219 8.60866 30.9939L8.60859 18.6523Z" fill="#0052B4"/>
<path d="M12.9131 18.6524V32.608C14.068 32.864 15.2681 33.0002 16.5 33.0002C24.8833 33.0002 31.8057 26.7481 32.8604 18.6523H12.9131V18.6524Z" fill="#0052B4"/>
</g>
<defs>
<clipPath id="clip0_6297_2596">
<rect width="33" height="33" fill="white"/>
</clipPath>
</defs>
</svg>
