<svg width="20" height="18" viewBox="0 0 20 18" fill="none" xmlns="http://www.w3.org/2000/svg">
<path d="M9 1.53286C7.48455 0.562791 5.68246 0 3.75 0C2.61178 0 1.51756 0.195355 0.500065 0.554987C0.200372 0.660914 0 0.944254 0 1.26212V15.5121C0 15.7556 0.118178 15.9839 0.316959 16.1245C0.51574 16.265 0.770387 16.3004 0.999935 16.2192C1.85911 15.9156 2.78441 15.75 3.75 15.75C5.74502 15.75 7.57325 16.4573 9 17.6357V1.53286Z" fill="url(#paint0_linear_5981_39494)"/>
<path d="M10.5 17.6357C11.9268 16.4573 13.755 15.75 15.75 15.75C16.7156 15.75 17.6409 15.9156 18.5001 16.2192C18.7296 16.3004 18.9843 16.265 19.183 16.1245C19.3818 15.9839 19.5 15.7556 19.5 15.5121V1.26212C19.5 0.944254 19.2996 0.660914 18.9999 0.554987C17.9824 0.195355 16.8882 0 15.75 0C13.8175 0 12.0155 0.562791 10.5 1.53286V17.6357Z" fill="url(#paint1_linear_5981_39494)"/>
<defs>
<linearGradient id="paint0_linear_5981_39494" x1="9.75" y1="0" x2="9.75" y2="17.6357" gradientUnits="userSpaceOnUse">
<stop stop-color="#F8FBFF"/>
<stop offset="1" stop-color="#5991E0"/>
</linearGradient>
<linearGradient id="paint1_linear_5981_39494" x1="9.75" y1="0" x2="9.75" y2="17.6357" gradientUnits="userSpaceOnUse">
<stop stop-color="#F8FBFF"/>
<stop offset="1" stop-color="#5991E0"/>
</linearGradient>
</defs>
</svg>
