<svg width="33" height="33" viewBox="0 0 33 33" fill="none" xmlns="http://www.w3.org/2000/svg">
<g clip-path="url(#clip0_6297_4583)">
<path d="M16.5 33C25.6127 33 33 25.6127 33 16.5C33 7.3873 25.6127 0 16.5 0C7.3873 0 0 7.3873 0 16.5C0 25.6127 7.3873 33 16.5 33Z" fill="#F0F0F0"/>
<path d="M31.9737 10.7607H1.02629C0.363 12.5482 0 14.4816 0 16.4998C0 18.5181 0.363 20.4515 1.02629 22.2389H31.9738C32.637 20.4515 33 18.5181 33 16.4998C33 14.4816 32.637 12.5482 31.9737 10.7607Z" fill="#0052B4"/>
<path d="M16.5 0C11.499 0 7.01807 2.22518 3.99219 5.7391H29.0078C25.982 2.22518 21.501 0 16.5 0Z" fill="#D80027"/>
<path d="M29.0079 27.2607H3.99219C7.01807 30.7747 11.499 32.9998 16.5 32.9998C21.501 32.9998 25.982 30.7747 29.0079 27.2607Z" fill="#D80027"/>
</g>
<defs>
<clipPath id="clip0_6297_4583">
<rect width="33" height="33" fill="white"/>
</clipPath>
</defs>
</svg>
