<svg width="33" height="33" viewBox="0 0 33 33" fill="none" xmlns="http://www.w3.org/2000/svg">
<g clip-path="url(#clip0_6297_2394)">
<path d="M16.5 33C25.6127 33 33 25.6127 33 16.5C33 7.3873 25.6127 0 16.5 0C7.3873 0 0 7.3873 0 16.5C0 25.6127 7.3873 33 16.5 33Z" fill="#D80027"/>
<path d="M15.8239 13.4824L17.1777 15.348L19.3702 14.6371L18.0142 16.5011L19.3679 18.3666L17.1762 17.653L15.8203 19.517L15.8217 17.2121L13.6299 16.4984L15.8224 15.7875L15.8239 13.4824Z" fill="#F0F0F0"/>
<path d="M12.1293 21.163C9.55396 21.163 7.4662 19.0752 7.4662 16.4999C7.4662 13.9246 9.55396 11.8369 12.1293 11.8369C12.9322 11.8369 13.6877 12.0399 14.3473 12.3973C13.3125 11.3853 11.8973 10.7607 10.3358 10.7607C7.1661 10.7607 4.59668 13.3302 4.59668 16.4998C4.59668 19.6695 7.16617 22.2389 10.3358 22.2389C11.8975 22.2389 13.3126 21.6143 14.3473 20.6023C13.6877 20.9599 12.9322 21.163 12.1293 21.163Z" fill="#F0F0F0"/>
</g>
<defs>
<clipPath id="clip0_6297_2394">
<rect width="33" height="33" fill="white"/>
</clipPath>
</defs>
</svg>
