<svg width="33" height="33" viewBox="0 0 33 33" fill="none" xmlns="http://www.w3.org/2000/svg">
<g clip-path="url(#clip0_6297_5448)">
<path d="M16.5 33C25.6127 33 33 25.6127 33 16.5C33 7.3873 25.6127 0 16.5 0C7.3873 0 0 7.3873 0 16.5C0 25.6127 7.3873 33 16.5 33Z" fill="#F0F0F0"/>
<path d="M0 16.4996C0 22.7538 3.47976 28.1949 8.60868 30.9934V2.00586C3.47976 4.80435 0 10.2454 0 16.4996Z" fill="#F0F0F0"/>
<path d="M16.4997 0C13.6412 0 10.9526 0.727225 8.6084 2.00623V30.9937C10.9526 32.2728 13.6412 33 16.4997 33C25.6124 33 32.9997 25.6126 32.9997 16.5C32.9997 7.38736 25.6124 0 16.4997 0Z" fill="#496E2D"/>
<path d="M23.5551 19.2284C21.4676 20.7367 18.5527 20.2672 17.0445 18.1798C15.5361 16.0923 16.0057 13.1774 18.0931 11.6692C18.744 11.199 19.4753 10.921 20.2192 10.8244C18.7879 10.6103 17.2749 10.9328 16.0092 11.8473C13.4401 13.7037 12.8622 17.2913 14.7185 19.8605C16.5748 22.4295 20.1624 23.0075 22.7316 21.151C23.9974 20.2365 24.7787 18.9015 25.0247 17.4752C24.6995 18.1511 24.206 18.7581 23.5551 19.2284Z" fill="#F0F0F0"/>
<path d="M23.4657 10.7607L24.6416 12.028L26.2101 11.3014L25.3682 12.8112L26.544 14.0785L24.8479 13.7443L24.006 15.2542L23.7997 13.5378L22.1035 13.2036L23.6721 12.4771L23.4657 10.7607Z" fill="#F0F0F0"/>
</g>
<defs>
<clipPath id="clip0_6297_5448">
<rect width="33" height="33" fill="white"/>
</clipPath>
</defs>
</svg>
